<?xml version="1.0" encoding="UTF-8" standalone="no"?>
<!DOCTYPE score-partwise PUBLIC "-//Recordare//DTD MusicXML 3.0 Partwise//EN" "http://www.musicxml.org/dtds/partwise.dtd">
<score-partwise version="3.0">
  <movement-title>App. No. 44</movement-title>
  <identification>
    <rights>©</rights>
    <encoding>
      <software>Finale 2014 for Windows</software>
      <software>Dolet Light for Finale 2014</software>
      <encoding-date>2015-05-21</encoding-date>
      <supports attribute="new-system" element="print" type="yes" value="yes"/>
      <supports attribute="new-page" element="print" type="yes" value="yes"/>
      <supports element="accidental" type="yes"/>
      <supports element="beam" type="yes"/>
      <supports element="stem" type="yes"/>
    </encoding>
  </identification>
  <defaults>
    <scaling>
      <millimeters>6.0198</millimeters>
      <tenths>40</tenths>
    </scaling>
    <page-layout>
      <page-height>1857</page-height>
      <page-width>1435</page-width>
      <page-margins type="both">
        <left-margin>169</left-margin>
        <right-margin>84</right-margin>
        <top-margin>84</top-margin>
        <bottom-margin>84</bottom-margin>
      </page-margins>
    </page-layout>
    <system-layout>
      <system-margins>
        <left-margin>0</left-margin>
        <right-margin>0</right-margin>
      </system-margins>
      <system-distance>91</system-distance>
      <top-system-distance>36</top-system-distance>
    </system-layout>
    <staff-layout>
      <staff-distance>80</staff-distance>
    </staff-layout>
    <appearance>
      <line-width type="stem">0.7487</line-width>
      <line-width type="beam">5</line-width>
      <line-width type="staff">0.7487</line-width>
      <line-width type="light barline">0.7487</line-width>
      <line-width type="heavy barline">5</line-width>
      <line-width type="leger">0.7487</line-width>
      <line-width type="ending">0.7487</line-width>
      <line-width type="wedge">0.7487</line-width>
      <line-width type="enclosure">0.7487</line-width>
      <line-width type="tuplet bracket">0.7487</line-width>
      <note-size type="grace">60</note-size>
      <note-size type="cue">60</note-size>
      <distance type="hyphen">120</distance>
      <distance type="beam">8</distance>
    </appearance>
    <music-font font-family="Maestro,engraved" font-size="17.1"/>
    <word-font font-family="Times New Roman" font-size="8.5"/>
  </defaults>
  <credit page="1">
    <credit-type>title</credit-type>
    <credit-words default-x="759" default-y="1772" font-size="21.6" justify="center" valign="top">App. No. 44</credit-words>
  </credit>
  <credit page="1">
    <credit-words default-x="169" default-y="1775" font-size="10.8" valign="top">Score</credit-words>
  </credit>
  <credit page="1">
    <credit-type>subtitle</credit-type>
    <credit-words default-x="759" default-y="1703" font-size="16.2" justify="center" valign="top">Coerne</credit-words>
  </credit>
  <credit page="1">
    <credit-words default-x="234" default-y="118" font-size="10.8" valign="top" xml:space="preserve">Transcriber's Note: Due to playback limitations in Finale 2014, the second clarinet in A part has been replaced
by a bass clarinet in A.</credit-words>
  </credit>
  <part-list>
    <part-group number="1" type="start">
      <group-symbol default-x="-5">bracket</group-symbol>
      <group-barline>yes</group-barline>
    </part-group>
    <score-part id="P1">
      <part-name>Oboe</part-name>
      <part-abbreviation>Ob.</part-abbreviation>
      <score-instrument id="P1-I1">
        <instrument-name>ARIA Player</instrument-name>
        <instrument-sound>wind.reed.oboe</instrument-sound>
        <virtual-instrument>
          <virtual-library>Garritan Instruments for Finale</virtual-library>
          <virtual-name>001. Woodwinds/2. Oboes and Eng. Horn/Oboe Plr1</virtual-name>
        </virtual-instrument>
      </score-instrument>
      <midi-device>ARIA Player</midi-device>
      <midi-instrument id="P1-I1">
        <midi-channel>1</midi-channel>
        <midi-program>1</midi-program>
        <volume>80</volume>
        <pan>-56</pan>
      </midi-instrument>
    </score-part>
    <score-part id="P2">
      <part-name>Clarinet in A</part-name>
      <part-abbreviation>A Cl.</part-abbreviation>
      <score-instrument id="P2-I2">
        <instrument-name>ARIA Player</instrument-name>
        <instrument-sound>wind.reed.clarinet.a</instrument-sound>
        <virtual-instrument>
          <virtual-library>Garritan Instruments for Finale</virtual-library>
          <virtual-name>001. Woodwinds/3. Clarinets/Bb Clarinet Solo</virtual-name>
        </virtual-instrument>
      </score-instrument>
      <midi-device>ARIA Player</midi-device>
      <midi-instrument id="P2-I2">
        <midi-channel>2</midi-channel>
        <midi-program>1</midi-program>
        <volume>80</volume>
        <pan>-17</pan>
      </midi-instrument>
    </score-part>
    <score-part id="P3">
      <part-name>Bass Clarinet</part-name>
      <part-abbreviation>B. Cl.</part-abbreviation>
      <score-instrument id="P3-I12">
        <instrument-name>ARIA Player</instrument-name>
        <instrument-sound>wind.reed.clarinet.bass</instrument-sound>
        <virtual-instrument>
          <virtual-library>Garritan Instruments for Finale</virtual-library>
          <virtual-name>001. Woodwinds/3. Clarinets/Bass Clarinet Solo</virtual-name>
        </virtual-instrument>
      </score-instrument>
      <midi-device>ARIA Player</midi-device>
      <midi-instrument id="P3-I12">
        <midi-channel>13</midi-channel>
        <midi-program>1</midi-program>
        <volume>80</volume>
        <pan>0</pan>
      </midi-instrument>
    </score-part>
    <score-part id="P4">
      <part-name>Bassoon</part-name>
      <part-abbreviation>Bsn.</part-abbreviation>
      <score-instrument id="P4-I3">
        <instrument-name>ARIA Player</instrument-name>
        <instrument-sound>wind.reed.bassoon</instrument-sound>
        <virtual-instrument>
          <virtual-library>Garritan Instruments for Finale</virtual-library>
          <virtual-name>001. Woodwinds/4. Bassoons/Bassoon Plr1</virtual-name>
        </virtual-instrument>
      </score-instrument>
      <midi-device>ARIA Player</midi-device>
      <midi-instrument id="P4-I3">
        <midi-channel>3</midi-channel>
        <midi-program>1</midi-program>
        <volume>80</volume>
        <pan>23</pan>
      </midi-instrument>
    </score-part>
    <part-group number="1" type="stop"/>
    <score-part id="P5">
      <part-name>Timpani</part-name>
      <part-abbreviation>Timp.</part-abbreviation>
      <score-instrument id="P5-I4">
        <instrument-name>ARIA Player</instrument-name>
        <instrument-sound>drum.timpani</instrument-sound>
        <virtual-instrument>
          <virtual-library>Garritan Instruments for Finale</virtual-library>
          <virtual-name>003. Percussion/Timpani KS</virtual-name>
        </virtual-instrument>
      </score-instrument>
      <midi-device>ARIA Player</midi-device>
      <midi-instrument id="P5-I4">
        <midi-channel>4</midi-channel>
        <midi-program>1</midi-program>
        <volume>87</volume>
        <pan>-20</pan>
      </midi-instrument>
    </score-part>
    <part-group number="1" type="start">
      <group-symbol default-x="-5">bracket</group-symbol>
      <group-barline>yes</group-barline>
    </part-group>
    <score-part id="P6">
      <part-name>Trombone 1</part-name>
      <part-abbreviation>Tbn. 1</part-abbreviation>
      <score-instrument id="P6-I5">
        <instrument-name>ARIA Player</instrument-name>
        <instrument-sound>brass.trombone</instrument-sound>
        <virtual-instrument>
          <virtual-library>Garritan Instruments for Finale</virtual-library>
          <virtual-name>002. Brass/3. Trombones/Trombone Plr1</virtual-name>
        </virtual-instrument>
      </score-instrument>
      <midi-device>ARIA Player</midi-device>
      <midi-instrument id="P6-I5">
        <midi-channel>5</midi-channel>
        <midi-program>1</midi-program>
        <volume>80</volume>
        <pan>-13</pan>
      </midi-instrument>
    </score-part>
    <score-part id="P7">
      <part-name>Trombone 2</part-name>
      <part-abbreviation>Tbn. 2</part-abbreviation>
      <score-instrument id="P7-I6">
        <instrument-name>ARIA Player</instrument-name>
        <instrument-sound>brass.trombone</instrument-sound>
        <virtual-instrument>
          <virtual-library>Garritan Instruments for Finale</virtual-library>
          <virtual-name>002. Brass/3. Trombones/Trombone Plr1</virtual-name>
        </virtual-instrument>
      </score-instrument>
      <midi-device>ARIA Player</midi-device>
      <midi-instrument id="P7-I6">
        <midi-channel>6</midi-channel>
        <midi-program>1</midi-program>
        <volume>80</volume>
        <pan>37</pan>
      </midi-instrument>
    </score-part>
    <part-group number="1" type="stop"/>
    <part-group number="1" type="start">
      <group-symbol default-x="-10">square</group-symbol>
      <group-barline>yes</group-barline>
    </part-group>
    <part-group number="2" type="start">
      <group-symbol default-x="-5">bracket</group-symbol>
      <group-barline>yes</group-barline>
    </part-group>
    <score-part id="P8">
      <part-name>Violin I</part-name>
      <part-abbreviation>Vln. I</part-abbreviation>
      <score-instrument id="P8-I7">
        <instrument-name>ARIA Player</instrument-name>
        <instrument-sound>strings.violin</instrument-sound>
        <ensemble/>
        <virtual-instrument>
          <virtual-library>Garritan Instruments for Finale</virtual-library>
          <virtual-name>008. Section Strings/1. Violins/Violins KS</virtual-name>
        </virtual-instrument>
      </score-instrument>
      <midi-device>ARIA Player</midi-device>
      <midi-instrument id="P8-I7">
        <midi-channel>7</midi-channel>
        <midi-program>1</midi-program>
        <volume>80</volume>
        <pan>-70</pan>
      </midi-instrument>
    </score-part>
    <score-part id="P9">
      <part-name>Violin II</part-name>
      <part-abbreviation>Vln. II</part-abbreviation>
      <score-instrument id="P9-I8">
        <instrument-name>ARIA Player</instrument-name>
        <instrument-sound>strings.violin</instrument-sound>
        <ensemble/>
        <virtual-instrument>
          <virtual-library>Garritan Instruments for Finale</virtual-library>
          <virtual-name>008. Section Strings/1. Violins/Violins KS</virtual-name>
        </virtual-instrument>
      </score-instrument>
      <midi-device>ARIA Player</midi-device>
      <midi-instrument id="P9-I8">
        <midi-channel>8</midi-channel>
        <midi-program>1</midi-program>
        <volume>80</volume>
        <pan>-34</pan>
      </midi-instrument>
    </score-part>
    <part-group number="1" type="stop"/>
    <score-part id="P10">
      <part-name>Viola</part-name>
      <part-abbreviation>Vla.</part-abbreviation>
      <score-instrument id="P10-I9">
        <instrument-name>ARIA Player</instrument-name>
        <instrument-sound>strings.viola</instrument-sound>
        <ensemble/>
        <virtual-instrument>
          <virtual-library>Garritan Instruments for Finale</virtual-library>
          <virtual-name>008. Section Strings/2. Violas/Violas KS</virtual-name>
        </virtual-instrument>
      </score-instrument>
      <midi-device>ARIA Player</midi-device>
      <midi-instrument id="P10-I9">
        <midi-channel>9</midi-channel>
        <midi-program>1</midi-program>
        <volume>80</volume>
        <pan>4</pan>
      </midi-instrument>
    </score-part>
    <score-part id="P11">
      <part-name>Cello</part-name>
      <part-abbreviation>Vc.</part-abbreviation>
      <score-instrument id="P11-I10">
        <instrument-name>ARIA Player</instrument-name>
        <instrument-sound>strings.cello</instrument-sound>
        <ensemble/>
        <virtual-instrument>
          <virtual-library>Garritan Instruments for Finale</virtual-library>
          <virtual-name>008. Section Strings/3. Cellos/Cellos KS</virtual-name>
        </virtual-instrument>
      </score-instrument>
      <midi-device>ARIA Player</midi-device>
      <midi-instrument id="P11-I10">
        <midi-channel>11</midi-channel>
        <midi-program>1</midi-program>
        <volume>80</volume>
        <pan>41</pan>
      </midi-instrument>
    </score-part>
    <score-part id="P12">
      <part-name>Double Bass</part-name>
      <part-abbreviation>D.B.</part-abbreviation>
      <score-instrument id="P12-I11">
        <instrument-name>ARIA Player</instrument-name>
        <virtual-instrument>
          <virtual-library>Garritan Instruments for Finale</virtual-library>
          <virtual-name>008. Section Strings/4. Basses/Basses KS</virtual-name>
        </virtual-instrument>
      </score-instrument>
      <midi-device>ARIA Player</midi-device>
      <midi-instrument id="P12-I11">
        <midi-channel>12</midi-channel>
        <midi-program>1</midi-program>
        <volume>80</volume>
        <pan>80</pan>
      </midi-instrument>
    </score-part>
    <part-group number="2" type="stop"/>
  </part-list>
  <!--=========================================================-->
  <part id="P1">
    <measure number="1" width="264">
      <print>
        <system-layout>
          <system-margins>
            <left-margin>76</left-margin>
            <right-margin>0</right-margin>
          </system-margins>
          <top-system-distance>228</top-system-distance>
        </system-layout>
        <measure-numbering>system</measure-numbering>
      </print>
      <attributes>
        <divisions>8</divisions>
        <key>
          <fifths>3</fifths>
          <mode>major</mode>
        </key>
        <time symbol="common">
          <beats>4</beats>
          <beat-type>4</beat-type>
        </time>
        <clef>
          <sign>G</sign>
          <line>2</line>
        </clef>
      </attributes>
      <direction directive="yes" placement="above">
        <direction-type>
          <words default-y="40" font-size="10" font-style="italic" font-weight="bold">Sostenuto.</words>
        </direction-type>
        <sound tempo="100"/>
      </direction>
      <direction placement="below">
        <direction-type>
          <dynamics default-x="155" default-y="-85" halign="center">
            <pp/>
          </dynamics>
        </direction-type>
        <sound dynamics="40"/>
      </direction>
      <note default-x="155">
        <pitch>
          <step>C</step>
          <octave>4</octave>
        </pitch>
        <duration>32</duration>
        <tie type="start"/>
        <voice>1</voice>
        <type>whole</type>
        <accidental>natural</accidental>
        <notations>
          <tied type="start"/>
        </notations>
      </note>
    </measure>
    <!--=======================================================-->
    <measure number="2" width="124">
      <note default-x="16">
        <pitch>
          <step>C</step>
          <octave>4</octave>
        </pitch>
        <duration>24</duration>
        <tie type="stop"/>
        <voice>1</voice>
        <type>half</type>
        <dot/>
        <stem default-y="-15">up</stem>
        <notations>
          <tied type="stop"/>
        </notations>
      </note>
      <note default-x="96">
        <rest/>
        <duration>8</duration>
        <voice>1</voice>
        <type>quarter</type>
      </note>
    </measure>
    <!--=======================================================-->
    <measure number="3" width="87">
      <note default-x="35">
        <rest/>
        <duration>32</duration>
        <voice>1</voice>
        <type>whole</type>
        <notations>
          <fermata default-x="-4" default-y="5" type="upright"/>
        </notations>
      </note>
    </measure>
    <!--=======================================================-->
    <measure number="4" width="146">
      <direction placement="below">
        <direction-type>
          <dynamics default-x="36" default-y="-85" halign="center">
            <pp/>
          </dynamics>
        </direction-type>
        <sound dynamics="40"/>
      </direction>
      <note default-x="36">
        <pitch>
          <step>C</step>
          <octave>4</octave>
        </pitch>
        <duration>32</duration>
        <tie type="start"/>
        <voice>1</voice>
        <type>whole</type>
        <accidental>natural</accidental>
        <notations>
          <tied type="start"/>
        </notations>
      </note>
    </measure>
    <!--=======================================================-->
    <measure number="5" width="118">
      <note default-x="16">
        <pitch>
          <step>C</step>
          <octave>4</octave>
        </pitch>
        <duration>16</duration>
        <tie type="stop"/>
        <voice>1</voice>
        <type>half</type>
        <stem default-y="-15">up</stem>
        <notations>
          <tied type="stop"/>
        </notations>
      </note>
      <note default-x="71">
        <rest/>
        <duration>16</duration>
        <voice>1</voice>
        <type>half</type>
        <notations>
          <fermata default-x="-4" default-y="5" type="upright"/>
        </notations>
      </note>
    </measure>
    <!--=======================================================-->
    <measure number="6" width="124">
      <note>
        <rest measure="yes"/>
        <duration>32</duration>
        <voice>1</voice>
      </note>
    </measure>
    <!--=======================================================-->
    <measure number="7" width="115">
      <note>
        <rest measure="yes"/>
        <duration>32</duration>
        <voice>1</voice>
      </note>
    </measure>
    <!--=======================================================-->
    <measure number="8" width="127">
      <note default-x="36">
        <pitch>
          <step>C</step>
          <octave>4</octave>
        </pitch>
        <duration>32</duration>
        <voice>1</voice>
        <type>whole</type>
        <accidental>natural</accidental>
      </note>
      <note default-x="36">
        <chord/>
        <pitch>
          <step>E</step>
          <alter>-1</alter>
          <octave>4</octave>
        </pitch>
        <duration>32</duration>
        <voice>1</voice>
        <type>whole</type>
        <accidental>flat</accidental>
      </note>
      <direction placement="below">
        <direction-type>
          <dynamics default-x="0" default-y="-73" halign="center">
            <ff/>
          </dynamics>
        </direction-type>
        <offset>-24</offset>
        <sound dynamics="112"/>
      </direction>
      <barline location="right">
        <bar-style>light-heavy</bar-style>
      </barline>
    </measure>
  </part>
  <!--=========================================================-->
  <part id="P2">
    <measure number="1" width="264">
      <print>
        <measure-numbering>none</measure-numbering>
      </print>
      <attributes>
        <divisions>2</divisions>
        <key>
          <fifths>0</fifths>
          <mode>major</mode>
        </key>
        <time symbol="common">
          <beats>4</beats>
          <beat-type>4</beat-type>
        </time>
        <clef>
          <sign>G</sign>
          <line>2</line>
        </clef>
        <transpose>
          <diatonic>-2</diatonic>
          <chromatic>-3</chromatic>
        </transpose>
      </attributes>
      <direction placement="below">
        <direction-type>
          <dynamics default-x="160" default-y="-84" halign="center">
            <pp/>
          </dynamics>
        </direction-type>
        <sound dynamics="40"/>
      </direction>
      <note default-x="155">
        <pitch>
          <step>A</step>
          <octave>3</octave>
        </pitch>
        <duration>8</duration>
        <tie type="start"/>
        <voice>1</voice>
        <type>whole</type>
        <notations>
          <tied type="start"/>
        </notations>
      </note>
    </measure>
    <!--=======================================================-->
    <measure number="2" width="124">
      <note default-x="16">
        <pitch>
          <step>A</step>
          <octave>3</octave>
        </pitch>
        <duration>6</duration>
        <tie type="stop"/>
        <voice>1</voice>
        <type>half</type>
        <dot/>
        <stem default-y="-19">up</stem>
        <notations>
          <tied type="stop"/>
        </notations>
      </note>
      <note default-x="96">
        <rest/>
        <duration>2</duration>
        <voice>1</voice>
        <type>quarter</type>
      </note>
    </measure>
    <!--=======================================================-->
    <measure number="3" width="87">
      <note default-x="35">
        <rest/>
        <duration>8</duration>
        <voice>1</voice>
        <type>whole</type>
        <notations>
          <fermata default-x="-4" default-y="5" type="upright"/>
        </notations>
      </note>
    </measure>
    <!--=======================================================-->
    <measure number="4" width="146">
      <direction placement="below">
        <direction-type>
          <dynamics default-x="36" default-y="-95" halign="center">
            <pp/>
          </dynamics>
        </direction-type>
        <sound dynamics="40"/>
      </direction>
      <note default-x="36">
        <pitch>
          <step>A</step>
          <octave>3</octave>
        </pitch>
        <duration>8</duration>
        <tie type="start"/>
        <voice>1</voice>
        <type>whole</type>
        <notations>
          <tied type="start"/>
        </notations>
      </note>
    </measure>
    <!--=======================================================-->
    <measure number="5" width="118">
      <note default-x="16">
        <pitch>
          <step>A</step>
          <octave>3</octave>
        </pitch>
        <duration>4</duration>
        <tie type="stop"/>
        <voice>1</voice>
        <type>half</type>
        <stem default-y="-19">up</stem>
        <notations>
          <tied type="stop"/>
        </notations>
      </note>
      <note default-x="71">
        <rest/>
        <duration>4</duration>
        <voice>1</voice>
        <type>half</type>
        <notations>
          <fermata default-x="-4" default-y="5" type="upright"/>
        </notations>
      </note>
    </measure>
    <!--=======================================================-->
    <measure number="6" width="124">
      <note default-x="37">
        <pitch>
          <step>A</step>
          <octave>3</octave>
        </pitch>
        <duration>8</duration>
        <voice>1</voice>
        <type>whole</type>
      </note>
    </measure>
    <!--=======================================================-->
    <measure number="7" width="115">
      <direction placement="below">
        <direction-type>
          <wedge default-y="-74" spread="0" type="crescendo"/>
        </direction-type>
      </direction>
      <note default-x="25">
        <pitch>
          <step>A</step>
          <alter>-1</alter>
          <octave>3</octave>
        </pitch>
        <duration>8</duration>
        <voice>1</voice>
        <type>whole</type>
        <accidental>flat</accidental>
      </note>
      <direction>
        <direction-type>
          <wedge spread="15" type="stop"/>
        </direction-type>
      </direction>
    </measure>
    <!--=======================================================-->
    <measure number="8" width="127">
      <direction placement="below">
        <direction-type>
          <dynamics default-x="36" default-y="-90" halign="center">
            <ff/>
          </dynamics>
        </direction-type>
        <sound dynamics="112"/>
      </direction>
      <note default-x="36">
        <pitch>
          <step>B</step>
          <alter>-1</alter>
          <octave>3</octave>
        </pitch>
        <duration>8</duration>
        <voice>1</voice>
        <type>whole</type>
        <accidental>flat</accidental>
      </note>
      <barline location="right">
        <bar-style>light-heavy</bar-style>
      </barline>
    </measure>
  </part>
  <!--=========================================================-->
  <part id="P3">
    <measure number="1" width="264">
      <print>
        <measure-numbering>none</measure-numbering>
      </print>
      <attributes>
        <divisions>8</divisions>
        <key>
          <fifths>0</fifths>
          <mode>major</mode>
        </key>
        <time symbol="common">
          <beats>4</beats>
          <beat-type>4</beat-type>
        </time>
        <clef>
          <sign>F</sign>
          <line>4</line>
        </clef>
        <transpose>
          <diatonic>-2</diatonic>
          <chromatic>-3</chromatic>
        </transpose>
      </attributes>
      <direction placement="below">
        <direction-type>
          <dynamics default-x="160" default-y="-61" halign="center">
            <pp/>
          </dynamics>
        </direction-type>
        <sound dynamics="40"/>
      </direction>
      <note default-x="155">
        <pitch>
          <step>F</step>
          <alter>1</alter>
          <octave>3</octave>
        </pitch>
        <duration>32</duration>
        <tie type="start"/>
        <voice>1</voice>
        <type>whole</type>
        <accidental>sharp</accidental>
        <notations>
          <tied type="start"/>
        </notations>
      </note>
    </measure>
    <!--=======================================================-->
    <measure number="2" width="124">
      <note default-x="16">
        <pitch>
          <step>F</step>
          <alter>1</alter>
          <octave>3</octave>
        </pitch>
        <duration>24</duration>
        <tie type="stop"/>
        <voice>1</voice>
        <type>half</type>
        <dot/>
        <stem default-y="-45">down</stem>
        <notations>
          <tied type="stop"/>
        </notations>
      </note>
      <note default-x="96">
        <rest/>
        <duration>8</duration>
        <voice>1</voice>
        <type>quarter</type>
      </note>
    </measure>
    <!--=======================================================-->
    <measure number="3" width="87">
      <note default-x="35">
        <rest/>
        <duration>32</duration>
        <voice>1</voice>
        <type>whole</type>
        <notations>
          <fermata default-x="-4" default-y="5" type="upright"/>
        </notations>
      </note>
    </measure>
    <!--=======================================================-->
    <measure number="4" width="146">
      <direction placement="below">
        <direction-type>
          <dynamics default-x="36" default-y="-57" halign="center">
            <pp/>
          </dynamics>
        </direction-type>
        <sound dynamics="40"/>
      </direction>
      <note default-x="36">
        <pitch>
          <step>F</step>
          <alter>1</alter>
          <octave>3</octave>
        </pitch>
        <duration>32</duration>
        <tie type="start"/>
        <voice>1</voice>
        <type>whole</type>
        <accidental>sharp</accidental>
        <notations>
          <tied type="start"/>
        </notations>
      </note>
    </measure>
    <!--=======================================================-->
    <measure number="5" width="118">
      <note default-x="16">
        <pitch>
          <step>F</step>
          <alter>1</alter>
          <octave>3</octave>
        </pitch>
        <duration>16</duration>
        <tie type="stop"/>
        <voice>1</voice>
        <type>half</type>
        <stem default-y="-45">down</stem>
        <notations>
          <tied type="stop"/>
        </notations>
      </note>
      <note default-x="71">
        <rest/>
        <duration>16</duration>
        <voice>1</voice>
        <type>half</type>
        <notations>
          <fermata default-x="-4" default-y="5" type="upright"/>
        </notations>
      </note>
    </measure>
    <!--=======================================================-->
    <measure number="6" width="124">
      <note default-x="37">
        <pitch>
          <step>F</step>
          <alter>1</alter>
          <octave>3</octave>
        </pitch>
        <duration>32</duration>
        <voice>1</voice>
        <type>whole</type>
        <accidental>sharp</accidental>
      </note>
    </measure>
    <!--=======================================================-->
    <measure number="7" width="115">
      <direction placement="below">
        <direction-type>
          <wedge default-y="-51" spread="0" type="crescendo"/>
        </direction-type>
      </direction>
      <note default-x="25">
        <pitch>
          <step>F</step>
          <octave>3</octave>
        </pitch>
        <duration>32</duration>
        <voice>1</voice>
        <type>whole</type>
        <accidental>natural</accidental>
      </note>
      <direction>
        <direction-type>
          <wedge spread="15" type="stop"/>
        </direction-type>
      </direction>
    </measure>
    <!--=======================================================-->
    <measure number="8" width="127">
      <note default-x="36">
        <pitch>
          <step>G</step>
          <alter>-1</alter>
          <octave>3</octave>
        </pitch>
        <duration>32</duration>
        <voice>1</voice>
        <type>whole</type>
        <accidental>flat</accidental>
      </note>
      <direction placement="below">
        <direction-type>
          <dynamics default-x="0" default-y="-73" halign="center">
            <ff/>
          </dynamics>
        </direction-type>
        <offset>-24</offset>
        <sound dynamics="112"/>
      </direction>
      <barline location="right">
        <bar-style>light-heavy</bar-style>
      </barline>
    </measure>
  </part>
  <!--=========================================================-->
  <part id="P4">
    <measure number="1" width="264">
      <print>
        <measure-numbering>none</measure-numbering>
      </print>
      <attributes>
        <divisions>8</divisions>
        <key>
          <fifths>3</fifths>
          <mode>major</mode>
        </key>
        <time symbol="common">
          <beats>4</beats>
          <beat-type>4</beat-type>
        </time>
        <clef>
          <sign>F</sign>
          <line>4</line>
        </clef>
      </attributes>
      <note>
        <rest measure="yes"/>
        <duration>32</duration>
        <voice>1</voice>
      </note>
    </measure>
    <!--=======================================================-->
    <measure number="2" width="124">
      <note>
        <rest measure="yes"/>
        <duration>32</duration>
        <voice>1</voice>
      </note>
    </measure>
    <!--=======================================================-->
    <measure number="3" width="87">
      <note default-x="35">
        <rest/>
        <duration>32</duration>
        <voice>1</voice>
        <type>whole</type>
        <notations>
          <fermata default-x="-4" default-y="5" type="upright"/>
        </notations>
      </note>
    </measure>
    <!--=======================================================-->
    <measure number="4" width="146">
      <note>
        <rest measure="yes"/>
        <duration>32</duration>
        <voice>1</voice>
      </note>
    </measure>
    <!--=======================================================-->
    <measure number="5" width="118">
      <note default-x="51">
        <rest/>
        <duration>32</duration>
        <voice>1</voice>
        <type>whole</type>
        <notations>
          <fermata default-x="-4" default-y="5" type="upright"/>
        </notations>
      </note>
    </measure>
    <!--=======================================================-->
    <measure number="6" width="124">
      <direction placement="below">
        <direction-type>
          <dynamics default-x="37" default-y="-73" halign="center">
            <pp/>
          </dynamics>
        </direction-type>
        <sound dynamics="40"/>
      </direction>
      <note default-x="37">
        <pitch>
          <step>A</step>
          <octave>2</octave>
        </pitch>
        <duration>32</duration>
        <voice>1</voice>
        <type>whole</type>
        <notations>
          <slur number="1" placement="below" type="start"/>
        </notations>
      </note>
    </measure>
    <!--=======================================================-->
    <measure number="7" width="115">
      <direction placement="below">
        <direction-type>
          <wedge default-y="-65" spread="0" type="crescendo"/>
        </direction-type>
      </direction>
      <note default-x="25">
        <pitch>
          <step>A</step>
          <alter>-1</alter>
          <octave>2</octave>
        </pitch>
        <duration>16</duration>
        <voice>1</voice>
        <type>half</type>
        <accidental>flat</accidental>
        <stem default-y="0">up</stem>
      </note>
      <note default-x="70">
        <pitch>
          <step>G</step>
          <octave>2</octave>
        </pitch>
        <duration>16</duration>
        <voice>1</voice>
        <type>half</type>
        <accidental>natural</accidental>
        <stem default-y="-4.5">up</stem>
        <notations>
          <slur number="1" type="stop"/>
        </notations>
      </note>
      <direction>
        <direction-type>
          <wedge spread="15" type="stop"/>
        </direction-type>
      </direction>
    </measure>
    <!--=======================================================-->
    <measure number="8" width="127">
      <note default-x="36">
        <pitch>
          <step>C</step>
          <octave>2</octave>
        </pitch>
        <duration>32</duration>
        <voice>1</voice>
        <type>whole</type>
        <accidental>natural</accidental>
      </note>
      <note default-x="36">
        <chord/>
        <pitch>
          <step>G</step>
          <octave>2</octave>
        </pitch>
        <duration>32</duration>
        <voice>1</voice>
        <type>whole</type>
        <accidental>natural</accidental>
      </note>
      <direction placement="below">
        <direction-type>
          <dynamics default-x="0" default-y="-73" halign="center">
            <ff/>
          </dynamics>
        </direction-type>
        <offset>-24</offset>
        <sound dynamics="112"/>
      </direction>
      <barline location="right">
        <bar-style>light-heavy</bar-style>
      </barline>
    </measure>
  </part>
  <!--=========================================================-->
  <part id="P5">
    <measure number="1" width="264">
      <print>
        <measure-numbering>system</measure-numbering>
      </print>
      <attributes>
        <divisions>2</divisions>
        <key>
          <fifths>3</fifths>
          <mode>major</mode>
        </key>
        <time symbol="common">
          <beats>4</beats>
          <beat-type>4</beat-type>
        </time>
        <clef>
          <sign>F</sign>
          <line>4</line>
        </clef>
      </attributes>
      <note default-x="155">
        <rest/>
        <duration>2</duration>
        <voice>1</voice>
        <type>quarter</type>
      </note>
      <direction placement="below">
        <direction-type>
          <dynamics default-x="182" default-y="-73" halign="center">
            <pp/>
          </dynamics>
        </direction-type>
        <sound dynamics="40"/>
      </direction>
      <note default-x="182">
        <pitch>
          <step>A</step>
          <octave>2</octave>
        </pitch>
        <duration>2</duration>
        <voice>1</voice>
        <type>quarter</type>
        <stem default-y="0">up</stem>
      </note>
      <note default-x="209">
        <rest/>
        <duration>2</duration>
        <voice>1</voice>
        <type>quarter</type>
      </note>
      <note default-x="236">
        <pitch>
          <step>A</step>
          <octave>2</octave>
        </pitch>
        <duration>2</duration>
        <voice>1</voice>
        <type>quarter</type>
        <stem default-y="0">up</stem>
      </note>
    </measure>
    <!--=======================================================-->
    <measure number="2" width="124">
      <note default-x="16">
        <rest/>
        <duration>2</duration>
        <voice>1</voice>
        <type>quarter</type>
      </note>
      <note default-x="44">
        <pitch>
          <step>A</step>
          <octave>2</octave>
        </pitch>
        <duration>2</duration>
        <voice>1</voice>
        <type>quarter</type>
        <stem default-y="0">up</stem>
      </note>
      <note default-x="70">
        <rest/>
        <duration>4</duration>
        <voice>1</voice>
        <type>half</type>
      </note>
    </measure>
    <!--=======================================================-->
    <measure number="3" width="87">
      <note default-x="35">
        <rest/>
        <duration>8</duration>
        <voice>1</voice>
        <type>whole</type>
        <notations>
          <fermata default-x="-4" default-y="5" type="upright"/>
        </notations>
      </note>
    </measure>
    <!--=======================================================-->
    <measure number="4" width="146">
      <note default-x="37">
        <rest/>
        <duration>2</duration>
        <voice>1</voice>
        <type>quarter</type>
      </note>
      <note default-x="64">
        <pitch>
          <step>A</step>
          <octave>2</octave>
        </pitch>
        <duration>2</duration>
        <voice>1</voice>
        <type>quarter</type>
        <stem default-y="0">up</stem>
      </note>
      <note default-x="91">
        <rest/>
        <duration>2</duration>
        <voice>1</voice>
        <type>quarter</type>
      </note>
      <note default-x="118">
        <pitch>
          <step>A</step>
          <octave>2</octave>
        </pitch>
        <duration>2</duration>
        <voice>1</voice>
        <type>quarter</type>
        <stem default-y="0">up</stem>
      </note>
    </measure>
    <!--=======================================================-->
    <measure number="5" width="118">
      <note default-x="17">
        <rest/>
        <duration>2</duration>
        <voice>1</voice>
        <type>quarter</type>
      </note>
      <note default-x="44">
        <pitch>
          <step>A</step>
          <octave>2</octave>
        </pitch>
        <duration>2</duration>
        <voice>1</voice>
        <type>quarter</type>
        <stem default-y="0">up</stem>
      </note>
      <note default-x="71">
        <rest/>
        <duration>4</duration>
        <voice>1</voice>
        <type>half</type>
        <notations>
          <fermata default-x="-4" default-y="5" type="upright"/>
        </notations>
      </note>
    </measure>
    <!--=======================================================-->
    <measure number="6" width="124">
      <note>
        <rest measure="yes"/>
        <duration>8</duration>
        <voice>1</voice>
      </note>
    </measure>
    <!--=======================================================-->
    <measure number="7" width="115">
      <note>
        <rest measure="yes"/>
        <duration>8</duration>
        <voice>1</voice>
      </note>
    </measure>
    <!--=======================================================-->
    <measure number="8" width="127">
      <direction placement="below">
        <direction-type>
          <dynamics default-x="36" default-y="-73" halign="center">
            <ff/>
          </dynamics>
        </direction-type>
        <sound dynamics="112"/>
      </direction>
      <note default-x="36">
        <pitch>
          <step>C</step>
          <alter>1</alter>
          <octave>3</octave>
        </pitch>
        <duration>4</duration>
        <voice>1</voice>
        <type>half</type>
        <stem default-y="10">up</stem>
        <notations>
          <ornaments>
            <tremolo default-x="6" default-y="-17" type="single">3</tremolo>
          </ornaments>
        </notations>
      </note>
      <note default-x="76">
        <pitch>
          <step>C</step>
          <alter>1</alter>
          <octave>3</octave>
        </pitch>
        <duration>4</duration>
        <voice>1</voice>
        <type>half</type>
        <stem default-y="10">up</stem>
        <notations>
          <ornaments>
            <tremolo default-x="7" default-y="-17" type="single">3</tremolo>
          </ornaments>
        </notations>
      </note>
      <barline location="right">
        <bar-style>light-heavy</bar-style>
      </barline>
    </measure>
  </part>
  <!--=========================================================-->
  <part id="P6">
    <measure number="1" width="264">
      <print>
        <measure-numbering>system</measure-numbering>
      </print>
      <attributes>
        <divisions>8</divisions>
        <key>
          <fifths>3</fifths>
          <mode>major</mode>
        </key>
        <time symbol="common">
          <beats>4</beats>
          <beat-type>4</beat-type>
        </time>
        <clef>
          <sign>C</sign>
          <line>3</line>
        </clef>
      </attributes>
      <note>
        <rest measure="yes"/>
        <duration>32</duration>
        <voice>1</voice>
      </note>
    </measure>
    <!--=======================================================-->
    <measure number="2" width="124">
      <note>
        <rest measure="yes"/>
        <duration>32</duration>
        <voice>1</voice>
      </note>
    </measure>
    <!--=======================================================-->
    <measure number="3" width="87">
      <note default-x="35">
        <rest/>
        <duration>32</duration>
        <voice>1</voice>
        <type>whole</type>
        <notations>
          <fermata default-x="-4" default-y="5" type="upright"/>
        </notations>
      </note>
    </measure>
    <!--=======================================================-->
    <measure number="4" width="146">
      <note>
        <rest measure="yes"/>
        <duration>32</duration>
        <voice>1</voice>
      </note>
    </measure>
    <!--=======================================================-->
    <measure number="5" width="118">
      <note default-x="51">
        <rest/>
        <duration>32</duration>
        <voice>1</voice>
        <type>whole</type>
        <notations>
          <fermata default-x="-4" default-y="5" type="upright"/>
        </notations>
      </note>
    </measure>
    <!--=======================================================-->
    <measure number="6" width="124">
      <note>
        <rest measure="yes"/>
        <duration>32</duration>
        <voice>1</voice>
      </note>
    </measure>
    <!--=======================================================-->
    <measure number="7" width="115">
      <note>
        <rest measure="yes"/>
        <duration>32</duration>
        <voice>1</voice>
      </note>
    </measure>
    <!--=======================================================-->
    <measure number="8" width="127">
      <note default-x="36">
        <pitch>
          <step>E</step>
          <alter>-1</alter>
          <octave>3</octave>
        </pitch>
        <duration>32</duration>
        <voice>1</voice>
        <type>whole</type>
        <accidental>flat</accidental>
      </note>
      <note default-x="36">
        <chord/>
        <pitch>
          <step>G</step>
          <octave>3</octave>
        </pitch>
        <duration>32</duration>
        <voice>1</voice>
        <type>whole</type>
        <accidental>natural</accidental>
      </note>
      <direction placement="below">
        <direction-type>
          <dynamics default-x="0" default-y="-73" halign="center">
            <ff/>
          </dynamics>
        </direction-type>
        <offset>-24</offset>
        <sound dynamics="112"/>
      </direction>
      <barline location="right">
        <bar-style>light-heavy</bar-style>
      </barline>
    </measure>
  </part>
  <!--=========================================================-->
  <part id="P7">
    <measure number="1" width="264">
      <print>
        <measure-numbering>none</measure-numbering>
      </print>
      <attributes>
        <divisions>8</divisions>
        <key>
          <fifths>3</fifths>
          <mode>major</mode>
        </key>
        <time symbol="common">
          <beats>4</beats>
          <beat-type>4</beat-type>
        </time>
        <clef>
          <sign>F</sign>
          <line>4</line>
        </clef>
      </attributes>
      <note>
        <rest measure="yes"/>
        <duration>32</duration>
        <voice>1</voice>
      </note>
    </measure>
    <!--=======================================================-->
    <measure number="2" width="124">
      <note>
        <rest measure="yes"/>
        <duration>32</duration>
        <voice>1</voice>
      </note>
    </measure>
    <!--=======================================================-->
    <measure number="3" width="87">
      <note default-x="35">
        <rest/>
        <duration>32</duration>
        <voice>1</voice>
        <type>whole</type>
        <notations>
          <fermata default-x="-4" default-y="5" type="upright"/>
        </notations>
      </note>
    </measure>
    <!--=======================================================-->
    <measure number="4" width="146">
      <note>
        <rest measure="yes"/>
        <duration>32</duration>
        <voice>1</voice>
      </note>
    </measure>
    <!--=======================================================-->
    <measure number="5" width="118">
      <note default-x="51">
        <rest/>
        <duration>32</duration>
        <voice>1</voice>
        <type>whole</type>
        <notations>
          <fermata default-x="-4" default-y="5" type="upright"/>
        </notations>
      </note>
    </measure>
    <!--=======================================================-->
    <measure number="6" width="124">
      <note>
        <rest measure="yes"/>
        <duration>32</duration>
        <voice>1</voice>
      </note>
    </measure>
    <!--=======================================================-->
    <measure number="7" width="115">
      <note>
        <rest measure="yes"/>
        <duration>32</duration>
        <voice>1</voice>
      </note>
    </measure>
    <!--=======================================================-->
    <measure number="8" width="127">
      <note default-x="36">
        <pitch>
          <step>C</step>
          <octave>3</octave>
        </pitch>
        <duration>32</duration>
        <voice>1</voice>
        <type>whole</type>
        <accidental>natural</accidental>
      </note>
      <direction placement="below">
        <direction-type>
          <dynamics default-x="0" default-y="-73" halign="center">
            <ff/>
          </dynamics>
        </direction-type>
        <offset>-24</offset>
        <sound dynamics="112"/>
      </direction>
      <barline location="right">
        <bar-style>light-heavy</bar-style>
      </barline>
    </measure>
  </part>
  <!--=========================================================-->
  <part id="P8">
    <measure number="1" width="264">
      <print>
        <measure-numbering>system</measure-numbering>
      </print>
      <attributes>
        <divisions>2</divisions>
        <key>
          <fifths>3</fifths>
          <mode>major</mode>
        </key>
        <time symbol="common">
          <beats>4</beats>
          <beat-type>4</beat-type>
        </time>
        <clef>
          <sign>G</sign>
          <line>2</line>
        </clef>
      </attributes>
      <direction placement="below">
        <direction-type>
          <dynamics default-x="155" default-y="-85" halign="center">
            <pp/>
          </dynamics>
        </direction-type>
        <sound dynamics="40"/>
      </direction>
      <note default-x="155">
        <pitch>
          <step>C</step>
          <octave>4</octave>
        </pitch>
        <duration>8</duration>
        <tie type="start"/>
        <voice>1</voice>
        <type>whole</type>
        <accidental>natural</accidental>
        <notations>
          <tied type="start"/>
        </notations>
      </note>
    </measure>
    <!--=======================================================-->
    <measure number="2" width="124">
      <note default-x="16">
        <pitch>
          <step>C</step>
          <octave>4</octave>
        </pitch>
        <duration>6</duration>
        <tie type="stop"/>
        <voice>1</voice>
        <type>half</type>
        <dot/>
        <stem default-y="-15">up</stem>
        <notations>
          <tied type="stop"/>
        </notations>
      </note>
      <note default-x="96">
        <rest/>
        <duration>2</duration>
        <voice>1</voice>
        <type>quarter</type>
      </note>
    </measure>
    <!--=======================================================-->
    <measure number="3" width="87">
      <note default-x="35">
        <rest/>
        <duration>8</duration>
        <voice>1</voice>
        <type>whole</type>
        <notations>
          <fermata default-x="-4" default-y="5" type="upright"/>
        </notations>
      </note>
    </measure>
    <!--=======================================================-->
    <measure number="4" width="146">
      <direction placement="below">
        <direction-type>
          <dynamics default-x="36" default-y="-85" halign="center">
            <pp/>
          </dynamics>
        </direction-type>
        <sound dynamics="40"/>
      </direction>
      <note default-x="36">
        <pitch>
          <step>C</step>
          <octave>4</octave>
        </pitch>
        <duration>8</duration>
        <tie type="start"/>
        <voice>1</voice>
        <type>whole</type>
        <accidental>natural</accidental>
        <notations>
          <tied type="start"/>
        </notations>
      </note>
    </measure>
    <!--=======================================================-->
    <measure number="5" width="118">
      <note default-x="16">
        <pitch>
          <step>C</step>
          <octave>4</octave>
        </pitch>
        <duration>4</duration>
        <tie type="stop"/>
        <voice>1</voice>
        <type>half</type>
        <stem default-y="-15">up</stem>
        <notations>
          <tied type="stop"/>
        </notations>
      </note>
      <note default-x="71">
        <rest/>
        <duration>4</duration>
        <voice>1</voice>
        <type>half</type>
        <notations>
          <fermata default-x="-4" default-y="5" type="upright"/>
        </notations>
      </note>
    </measure>
    <!--=======================================================-->
    <measure number="6" width="124">
      <note default-x="37">
        <pitch>
          <step>C</step>
          <octave>4</octave>
        </pitch>
        <duration>4</duration>
        <voice>1</voice>
        <type>half</type>
        <accidental>natural</accidental>
        <stem default-y="-15">up</stem>
        <notations>
          <ornaments>
            <tremolo default-x="6" default-y="-42" type="single">3</tremolo>
          </ornaments>
        </notations>
      </note>
      <note default-x="80">
        <pitch>
          <step>C</step>
          <octave>4</octave>
        </pitch>
        <duration>4</duration>
        <voice>1</voice>
        <type>half</type>
        <stem default-y="-15">up</stem>
        <notations>
          <ornaments>
            <tremolo default-x="7" default-y="-42" type="single">3</tremolo>
          </ornaments>
        </notations>
      </note>
    </measure>
    <!--=======================================================-->
    <measure number="7" width="115">
      <direction placement="below">
        <direction-type>
          <wedge default-y="-72" spread="0" type="crescendo"/>
        </direction-type>
      </direction>
      <note default-x="25">
        <pitch>
          <step>D</step>
          <octave>4</octave>
        </pitch>
        <duration>4</duration>
        <voice>1</voice>
        <type>half</type>
        <stem default-y="-9.5">up</stem>
        <notations>
          <ornaments>
            <tremolo default-x="6" default-y="-36" type="single">3</tremolo>
          </ornaments>
        </notations>
      </note>
      <note default-x="70">
        <pitch>
          <step>D</step>
          <octave>4</octave>
        </pitch>
        <duration>4</duration>
        <voice>1</voice>
        <type>half</type>
        <stem default-y="-9.5">up</stem>
        <notations>
          <ornaments>
            <tremolo default-x="6" default-y="-36" type="single">3</tremolo>
          </ornaments>
        </notations>
      </note>
      <direction>
        <direction-type>
          <wedge spread="15" type="stop"/>
        </direction-type>
      </direction>
    </measure>
    <!--=======================================================-->
    <measure number="8" width="127">
      <direction placement="below">
        <direction-type>
          <dynamics default-x="36" default-y="-100" halign="center">
            <ff/>
          </dynamics>
        </direction-type>
        <sound dynamics="112"/>
      </direction>
      <note default-x="36">
        <pitch>
          <step>G</step>
          <octave>3</octave>
        </pitch>
        <duration>4</duration>
        <voice>1</voice>
        <type>half</type>
        <accidental>natural</accidental>
        <stem default-y="-5">up</stem>
        <notations>
          <ornaments>
            <tremolo default-x="6" default-y="-32" type="single">3</tremolo>
          </ornaments>
        </notations>
      </note>
      <note default-x="36">
        <chord/>
        <pitch>
          <step>E</step>
          <alter>-1</alter>
          <octave>4</octave>
        </pitch>
        <duration>4</duration>
        <voice>1</voice>
        <type>half</type>
        <accidental>flat</accidental>
        <stem>up</stem>
      </note>
      <note default-x="76">
        <pitch>
          <step>G</step>
          <octave>3</octave>
        </pitch>
        <duration>4</duration>
        <voice>1</voice>
        <type>half</type>
        <stem default-y="-5">up</stem>
        <notations>
          <ornaments>
            <tremolo default-x="7" default-y="-32" type="single">3</tremolo>
          </ornaments>
        </notations>
      </note>
      <note default-x="76">
        <chord/>
        <pitch>
          <step>E</step>
          <alter>-1</alter>
          <octave>4</octave>
        </pitch>
        <duration>4</duration>
        <voice>1</voice>
        <type>half</type>
        <stem>up</stem>
      </note>
      <barline location="right">
        <bar-style>light-heavy</bar-style>
      </barline>
    </measure>
  </part>
  <!--=========================================================-->
  <part id="P9">
    <measure number="1" width="264">
      <print>
        <measure-numbering>none</measure-numbering>
      </print>
      <attributes>
        <divisions>2</divisions>
        <key>
          <fifths>3</fifths>
          <mode>major</mode>
        </key>
        <time symbol="common">
          <beats>4</beats>
          <beat-type>4</beat-type>
        </time>
        <clef>
          <sign>G</sign>
          <line>2</line>
        </clef>
      </attributes>
      <note>
        <rest measure="yes"/>
        <duration>8</duration>
        <voice>1</voice>
      </note>
    </measure>
    <!--=======================================================-->
    <measure number="2" width="124">
      <note>
        <rest measure="yes"/>
        <duration>8</duration>
        <voice>1</voice>
      </note>
    </measure>
    <!--=======================================================-->
    <measure number="3" width="87">
      <note default-x="35">
        <rest/>
        <duration>8</duration>
        <voice>1</voice>
        <type>whole</type>
        <notations>
          <fermata default-x="-4" default-y="5" type="upright"/>
        </notations>
      </note>
    </measure>
    <!--=======================================================-->
    <measure number="4" width="146">
      <direction placement="below">
        <direction-type>
          <dynamics default-x="36" default-y="-85" halign="center">
            <pp/>
          </dynamics>
        </direction-type>
        <sound dynamics="40"/>
      </direction>
      <note default-x="36">
        <pitch>
          <step>C</step>
          <octave>4</octave>
        </pitch>
        <duration>8</duration>
        <tie type="start"/>
        <voice>1</voice>
        <type>whole</type>
        <accidental>natural</accidental>
        <notations>
          <tied type="start"/>
        </notations>
      </note>
    </measure>
    <!--=======================================================-->
    <measure number="5" width="118">
      <note default-x="16">
        <pitch>
          <step>C</step>
          <octave>4</octave>
        </pitch>
        <duration>4</duration>
        <tie type="stop"/>
        <voice>1</voice>
        <type>half</type>
        <stem default-y="-15">up</stem>
        <notations>
          <tied type="stop"/>
        </notations>
      </note>
      <note default-x="71">
        <rest/>
        <duration>4</duration>
        <voice>1</voice>
        <type>half</type>
        <notations>
          <fermata default-x="-4" default-y="5" type="upright"/>
        </notations>
      </note>
    </measure>
    <!--=======================================================-->
    <measure number="6" width="124">
      <note default-x="37">
        <pitch>
          <step>C</step>
          <octave>4</octave>
        </pitch>
        <duration>4</duration>
        <voice>1</voice>
        <type>half</type>
        <accidental>natural</accidental>
        <stem default-y="-15">up</stem>
        <notations>
          <ornaments>
            <tremolo default-x="6" default-y="-42" type="single">3</tremolo>
          </ornaments>
        </notations>
      </note>
      <note default-x="80">
        <pitch>
          <step>C</step>
          <octave>4</octave>
        </pitch>
        <duration>4</duration>
        <voice>1</voice>
        <type>half</type>
        <stem default-y="-15">up</stem>
        <notations>
          <ornaments>
            <tremolo default-x="7" default-y="-42" type="single">3</tremolo>
          </ornaments>
        </notations>
      </note>
    </measure>
    <!--=======================================================-->
    <measure number="7" width="115">
      <direction placement="below">
        <direction-type>
          <wedge default-y="-72" spread="0" type="crescendo"/>
        </direction-type>
      </direction>
      <note default-x="25">
        <pitch>
          <step>C</step>
          <octave>4</octave>
        </pitch>
        <duration>4</duration>
        <voice>1</voice>
        <type>half</type>
        <accidental>natural</accidental>
        <stem default-y="-15">up</stem>
        <notations>
          <ornaments>
            <tremolo default-x="6" default-y="-42" type="single">3</tremolo>
          </ornaments>
        </notations>
      </note>
      <note default-x="70">
        <pitch>
          <step>B</step>
          <octave>3</octave>
        </pitch>
        <duration>4</duration>
        <voice>1</voice>
        <type>half</type>
        <stem default-y="-19">up</stem>
        <notations>
          <ornaments>
            <tremolo default-x="6" default-y="-46" type="single">3</tremolo>
          </ornaments>
        </notations>
      </note>
      <direction>
        <direction-type>
          <wedge spread="15" type="stop"/>
        </direction-type>
      </direction>
    </measure>
    <!--=======================================================-->
    <measure number="8" width="127">
      <direction placement="below">
        <direction-type>
          <dynamics default-x="36" default-y="-85" halign="center">
            <ff/>
          </dynamics>
        </direction-type>
        <sound dynamics="112"/>
      </direction>
      <note default-x="36">
        <pitch>
          <step>C</step>
          <octave>4</octave>
        </pitch>
        <duration>4</duration>
        <voice>1</voice>
        <type>half</type>
        <accidental>natural</accidental>
        <stem default-y="-15">up</stem>
        <notations>
          <ornaments>
            <tremolo default-x="6" default-y="-42" type="single">3</tremolo>
          </ornaments>
        </notations>
      </note>
      <note default-x="76">
        <pitch>
          <step>C</step>
          <octave>4</octave>
        </pitch>
        <duration>4</duration>
        <voice>1</voice>
        <type>half</type>
        <stem default-y="-15">up</stem>
        <notations>
          <ornaments>
            <tremolo default-x="7" default-y="-42" type="single">3</tremolo>
          </ornaments>
        </notations>
      </note>
      <barline location="right">
        <bar-style>light-heavy</bar-style>
      </barline>
    </measure>
  </part>
  <!--=========================================================-->
  <part id="P10">
    <measure number="1" width="264">
      <print>
        <measure-numbering>none</measure-numbering>
      </print>
      <attributes>
        <divisions>2</divisions>
        <key>
          <fifths>3</fifths>
          <mode>major</mode>
        </key>
        <time symbol="common">
          <beats>4</beats>
          <beat-type>4</beat-type>
        </time>
        <clef>
          <sign>C</sign>
          <line>3</line>
        </clef>
      </attributes>
      <direction placement="below">
        <direction-type>
          <dynamics default-x="155" default-y="-80" halign="center">
            <pp/>
          </dynamics>
        </direction-type>
        <sound dynamics="40"/>
      </direction>
      <note default-x="155">
        <pitch>
          <step>E</step>
          <alter>-1</alter>
          <octave>3</octave>
        </pitch>
        <duration>8</duration>
        <tie type="start"/>
        <voice>1</voice>
        <type>whole</type>
        <accidental>flat</accidental>
        <notations>
          <tied type="start"/>
        </notations>
      </note>
      <note default-x="155">
        <chord/>
        <pitch>
          <step>G</step>
          <alter>-1</alter>
          <octave>3</octave>
        </pitch>
        <duration>8</duration>
        <tie type="start"/>
        <voice>1</voice>
        <type>whole</type>
        <accidental>flat</accidental>
        <notations>
          <tied type="start"/>
        </notations>
      </note>
    </measure>
    <!--=======================================================-->
    <measure number="2" width="124">
      <note default-x="16">
        <pitch>
          <step>E</step>
          <alter>-1</alter>
          <octave>3</octave>
        </pitch>
        <duration>6</duration>
        <tie type="stop"/>
        <voice>1</voice>
        <type>half</type>
        <dot/>
        <stem default-y="1">up</stem>
        <notations>
          <tied type="stop"/>
        </notations>
      </note>
      <note default-x="16">
        <chord/>
        <pitch>
          <step>G</step>
          <alter>-1</alter>
          <octave>3</octave>
        </pitch>
        <duration>6</duration>
        <tie type="stop"/>
        <voice>1</voice>
        <type>half</type>
        <dot/>
        <stem>up</stem>
        <notations>
          <tied type="stop"/>
        </notations>
      </note>
      <note default-x="96">
        <rest/>
        <duration>2</duration>
        <voice>1</voice>
        <type>quarter</type>
      </note>
    </measure>
    <!--=======================================================-->
    <measure number="3" width="87">
      <note default-x="35">
        <rest/>
        <duration>8</duration>
        <voice>1</voice>
        <type>whole</type>
        <notations>
          <fermata default-x="-4" default-y="5" type="upright"/>
        </notations>
      </note>
    </measure>
    <!--=======================================================-->
    <measure number="4" width="146">
      <direction placement="below">
        <direction-type>
          <dynamics default-x="36" default-y="-80" halign="center">
            <pp/>
          </dynamics>
        </direction-type>
        <sound dynamics="40"/>
      </direction>
      <note default-x="36">
        <pitch>
          <step>E</step>
          <alter>-1</alter>
          <octave>3</octave>
        </pitch>
        <duration>8</duration>
        <tie type="start"/>
        <voice>1</voice>
        <type>whole</type>
        <accidental>flat</accidental>
        <notations>
          <tied type="start"/>
        </notations>
      </note>
      <note default-x="36">
        <chord/>
        <pitch>
          <step>G</step>
          <alter>-1</alter>
          <octave>3</octave>
        </pitch>
        <duration>8</duration>
        <tie type="start"/>
        <voice>1</voice>
        <type>whole</type>
        <accidental>flat</accidental>
        <notations>
          <tied type="start"/>
        </notations>
      </note>
    </measure>
    <!--=======================================================-->
    <measure number="5" width="118">
      <note default-x="16">
        <pitch>
          <step>E</step>
          <alter>-1</alter>
          <octave>3</octave>
        </pitch>
        <duration>4</duration>
        <tie type="stop"/>
        <voice>1</voice>
        <type>half</type>
        <stem default-y="1">up</stem>
        <notations>
          <tied type="stop"/>
        </notations>
      </note>
      <note default-x="16">
        <chord/>
        <pitch>
          <step>G</step>
          <alter>-1</alter>
          <octave>3</octave>
        </pitch>
        <duration>4</duration>
        <tie type="stop"/>
        <voice>1</voice>
        <type>half</type>
        <stem>up</stem>
        <notations>
          <tied type="stop"/>
        </notations>
      </note>
      <note default-x="71">
        <rest/>
        <duration>4</duration>
        <voice>1</voice>
        <type>half</type>
        <notations>
          <fermata default-x="-4" default-y="5" type="upright"/>
        </notations>
      </note>
    </measure>
    <!--=======================================================-->
    <measure number="6" width="124">
      <note default-x="37">
        <pitch>
          <step>E</step>
          <alter>-1</alter>
          <octave>3</octave>
        </pitch>
        <duration>4</duration>
        <voice>1</voice>
        <type>half</type>
        <accidental>flat</accidental>
        <stem default-y="1">up</stem>
        <notations>
          <ornaments>
            <tremolo default-x="6" default-y="-26" type="single">3</tremolo>
          </ornaments>
        </notations>
      </note>
      <note default-x="37">
        <chord/>
        <pitch>
          <step>G</step>
          <alter>-1</alter>
          <octave>3</octave>
        </pitch>
        <duration>4</duration>
        <voice>1</voice>
        <type>half</type>
        <accidental>flat</accidental>
        <stem>up</stem>
      </note>
      <note default-x="80">
        <pitch>
          <step>E</step>
          <alter>-1</alter>
          <octave>3</octave>
        </pitch>
        <duration>4</duration>
        <voice>1</voice>
        <type>half</type>
        <stem default-y="1">up</stem>
        <notations>
          <ornaments>
            <tremolo default-x="7" default-y="-26" type="single">3</tremolo>
          </ornaments>
        </notations>
      </note>
      <note default-x="80">
        <chord/>
        <pitch>
          <step>G</step>
          <alter>-1</alter>
          <octave>3</octave>
        </pitch>
        <duration>4</duration>
        <voice>1</voice>
        <type>half</type>
        <stem>up</stem>
      </note>
    </measure>
    <!--=======================================================-->
    <measure number="7" width="115">
      <direction placement="below">
        <direction-type>
          <wedge default-y="-72" spread="0" type="crescendo"/>
        </direction-type>
      </direction>
      <note default-x="25">
        <pitch>
          <step>D</step>
          <octave>3</octave>
        </pitch>
        <duration>4</duration>
        <voice>1</voice>
        <type>half</type>
        <stem default-y="-5">up</stem>
        <notations>
          <ornaments>
            <tremolo default-x="6" default-y="-31" type="single">3</tremolo>
          </ornaments>
        </notations>
      </note>
      <note default-x="25">
        <chord/>
        <pitch>
          <step>F</step>
          <octave>3</octave>
        </pitch>
        <duration>4</duration>
        <voice>1</voice>
        <type>half</type>
        <accidental>natural</accidental>
        <stem>up</stem>
      </note>
      <note default-x="70">
        <pitch>
          <step>D</step>
          <octave>3</octave>
        </pitch>
        <duration>4</duration>
        <voice>1</voice>
        <type>half</type>
        <stem default-y="-5">up</stem>
        <notations>
          <ornaments>
            <tremolo default-x="6" default-y="-31" type="single">3</tremolo>
          </ornaments>
        </notations>
      </note>
      <note default-x="70">
        <chord/>
        <pitch>
          <step>F</step>
          <octave>3</octave>
        </pitch>
        <duration>4</duration>
        <voice>1</voice>
        <type>half</type>
        <stem>up</stem>
      </note>
      <direction>
        <direction-type>
          <wedge spread="15" type="stop"/>
        </direction-type>
      </direction>
    </measure>
    <!--=======================================================-->
    <measure number="8" width="127">
      <direction placement="below">
        <direction-type>
          <dynamics default-x="36" default-y="-80" halign="center">
            <ff/>
          </dynamics>
        </direction-type>
        <sound dynamics="112"/>
      </direction>
      <note default-x="36">
        <pitch>
          <step>E</step>
          <alter>-1</alter>
          <octave>3</octave>
        </pitch>
        <duration>4</duration>
        <voice>1</voice>
        <type>half</type>
        <accidental>flat</accidental>
        <stem default-y="-9">up</stem>
        <notations>
          <ornaments>
            <tremolo default-x="6" default-y="-36" type="single">3</tremolo>
          </ornaments>
        </notations>
      </note>
      <note default-x="76">
        <pitch>
          <step>E</step>
          <alter>-1</alter>
          <octave>3</octave>
        </pitch>
        <duration>4</duration>
        <voice>1</voice>
        <type>half</type>
        <stem default-y="-9">up</stem>
        <notations>
          <ornaments>
            <tremolo default-x="7" default-y="-36" type="single">3</tremolo>
          </ornaments>
        </notations>
      </note>
      <barline location="right">
        <bar-style>light-heavy</bar-style>
      </barline>
    </measure>
  </part>
  <!--=========================================================-->
  <part id="P11">
    <measure number="1" width="264">
      <print>
        <measure-numbering>none</measure-numbering>
      </print>
      <attributes>
        <divisions>2</divisions>
        <key>
          <fifths>3</fifths>
          <mode>major</mode>
        </key>
        <time symbol="common">
          <beats>4</beats>
          <beat-type>4</beat-type>
        </time>
        <clef>
          <sign>F</sign>
          <line>4</line>
        </clef>
      </attributes>
      <note default-x="155">
        <rest/>
        <duration>2</duration>
        <voice>1</voice>
        <type>quarter</type>
      </note>
      <direction placement="below">
        <direction-type>
          <dynamics default-x="182" default-y="-73" halign="center">
            <pp/>
          </dynamics>
        </direction-type>
        <sound dynamics="40"/>
      </direction>
      <direction placement="above">
        <direction-type>
          <words default-y="6">pizz.</words>
        </direction-type>
      </direction>
      <note default-x="182">
        <pitch>
          <step>A</step>
          <octave>2</octave>
        </pitch>
        <duration>2</duration>
        <voice>1</voice>
        <type>quarter</type>
        <stem default-y="1">up</stem>
      </note>
      <note default-x="209">
        <rest/>
        <duration>2</duration>
        <voice>1</voice>
        <type>quarter</type>
      </note>
      <note default-x="236">
        <pitch>
          <step>A</step>
          <octave>2</octave>
        </pitch>
        <duration>2</duration>
        <voice>1</voice>
        <type>quarter</type>
        <stem default-y="1">up</stem>
      </note>
    </measure>
    <!--=======================================================-->
    <measure number="2" width="124">
      <note default-x="16">
        <rest/>
        <duration>2</duration>
        <voice>1</voice>
        <type>quarter</type>
      </note>
      <note default-x="44">
        <pitch>
          <step>A</step>
          <octave>2</octave>
        </pitch>
        <duration>2</duration>
        <voice>1</voice>
        <type>quarter</type>
        <stem default-y="1">up</stem>
      </note>
      <note default-x="70">
        <rest/>
        <duration>4</duration>
        <voice>1</voice>
        <type>half</type>
      </note>
    </measure>
    <!--=======================================================-->
    <measure number="3" width="87">
      <note default-x="35">
        <rest/>
        <duration>8</duration>
        <voice>1</voice>
        <type>whole</type>
        <notations>
          <fermata default-x="-4" default-y="5" type="upright"/>
        </notations>
      </note>
    </measure>
    <!--=======================================================-->
    <measure number="4" width="146">
      <note default-x="37">
        <rest/>
        <duration>2</duration>
        <voice>1</voice>
        <type>quarter</type>
      </note>
      <note default-x="64">
        <pitch>
          <step>A</step>
          <octave>2</octave>
        </pitch>
        <duration>2</duration>
        <voice>1</voice>
        <type>quarter</type>
        <stem default-y="1">up</stem>
      </note>
      <note default-x="91">
        <rest/>
        <duration>2</duration>
        <voice>1</voice>
        <type>quarter</type>
      </note>
      <note default-x="118">
        <pitch>
          <step>A</step>
          <octave>2</octave>
        </pitch>
        <duration>2</duration>
        <voice>1</voice>
        <type>quarter</type>
        <stem default-y="1">up</stem>
      </note>
    </measure>
    <!--=======================================================-->
    <measure number="5" width="118">
      <note default-x="17">
        <rest/>
        <duration>2</duration>
        <voice>1</voice>
        <type>quarter</type>
      </note>
      <note default-x="44">
        <pitch>
          <step>A</step>
          <octave>2</octave>
        </pitch>
        <duration>2</duration>
        <voice>1</voice>
        <type>quarter</type>
        <stem default-y="1">up</stem>
      </note>
      <note default-x="71">
        <rest/>
        <duration>4</duration>
        <voice>1</voice>
        <type>half</type>
        <notations>
          <fermata default-x="-4" default-y="5" type="upright"/>
        </notations>
      </note>
    </measure>
    <!--=======================================================-->
    <measure number="6" width="124">
      <direction placement="above">
        <direction-type>
          <words default-y="7" relative-x="-11">arco</words>
        </direction-type>
      </direction>
      <note default-x="37">
        <pitch>
          <step>A</step>
          <octave>2</octave>
        </pitch>
        <duration>8</duration>
        <voice>1</voice>
        <type>whole</type>
        <notations>
          <slur number="1" placement="below" type="start"/>
        </notations>
      </note>
    </measure>
    <!--=======================================================-->
    <measure number="7" width="115">
      <direction placement="below">
        <direction-type>
          <wedge default-y="-64" spread="0" type="crescendo"/>
        </direction-type>
      </direction>
      <note default-x="25">
        <pitch>
          <step>A</step>
          <alter>-1</alter>
          <octave>2</octave>
        </pitch>
        <duration>4</duration>
        <voice>1</voice>
        <type>half</type>
        <accidental>flat</accidental>
        <stem default-y="1">up</stem>
      </note>
      <note default-x="70">
        <pitch>
          <step>G</step>
          <octave>2</octave>
        </pitch>
        <duration>4</duration>
        <voice>1</voice>
        <type>half</type>
        <accidental>natural</accidental>
        <stem default-y="-4.5">up</stem>
        <notations>
          <slur number="1" type="stop"/>
        </notations>
      </note>
      <direction>
        <direction-type>
          <wedge spread="15" type="stop"/>
        </direction-type>
      </direction>
    </measure>
    <!--=======================================================-->
    <measure number="8" width="127">
      <direction placement="below">
        <direction-type>
          <dynamics default-x="36" default-y="-73" halign="center">
            <ff/>
          </dynamics>
        </direction-type>
        <sound dynamics="112"/>
      </direction>
      <note default-x="36">
        <pitch>
          <step>C</step>
          <octave>3</octave>
        </pitch>
        <duration>4</duration>
        <voice>1</voice>
        <type>half</type>
        <accidental>natural</accidental>
        <stem default-y="11">up</stem>
        <notations>
          <ornaments>
            <tremolo default-x="6" default-y="-16" type="single">3</tremolo>
          </ornaments>
        </notations>
      </note>
      <note default-x="76">
        <pitch>
          <step>C</step>
          <octave>3</octave>
        </pitch>
        <duration>4</duration>
        <voice>1</voice>
        <type>half</type>
        <stem default-y="11">up</stem>
        <notations>
          <ornaments>
            <tremolo default-x="7" default-y="-16" type="single">3</tremolo>
          </ornaments>
        </notations>
      </note>
      <barline location="right">
        <bar-style>light-heavy</bar-style>
      </barline>
    </measure>
  </part>
  <!--=========================================================-->
  <part id="P12">
    <measure number="1" width="264">
      <print>
        <measure-numbering>none</measure-numbering>
      </print>
      <attributes>
        <divisions>2</divisions>
        <key>
          <fifths>3</fifths>
          <mode>major</mode>
        </key>
        <time symbol="common">
          <beats>4</beats>
          <beat-type>4</beat-type>
        </time>
        <clef>
          <sign>F</sign>
          <line>4</line>
        </clef>
        <transpose>
          <diatonic>0</diatonic>
          <chromatic>0</chromatic>
          <octave-change>-1</octave-change>
        </transpose>
      </attributes>
      <note default-x="155">
        <rest/>
        <duration>2</duration>
        <voice>1</voice>
        <type>quarter</type>
      </note>
      <direction placement="below">
        <direction-type>
          <dynamics default-x="182" default-y="-73" halign="center">
            <pp/>
          </dynamics>
        </direction-type>
        <sound dynamics="40"/>
      </direction>
      <direction placement="above">
        <direction-type>
          <words default-y="6">pizz.</words>
        </direction-type>
      </direction>
      <note default-x="182">
        <pitch>
          <step>A</step>
          <octave>2</octave>
        </pitch>
        <duration>2</duration>
        <voice>1</voice>
        <type>quarter</type>
        <stem default-y="0">up</stem>
      </note>
      <note default-x="209">
        <rest/>
        <duration>2</duration>
        <voice>1</voice>
        <type>quarter</type>
      </note>
      <note default-x="236">
        <pitch>
          <step>A</step>
          <octave>2</octave>
        </pitch>
        <duration>2</duration>
        <voice>1</voice>
        <type>quarter</type>
        <stem default-y="0">up</stem>
      </note>
    </measure>
    <!--=======================================================-->
    <measure number="2" width="124">
      <note default-x="16">
        <rest/>
        <duration>2</duration>
        <voice>1</voice>
        <type>quarter</type>
      </note>
      <note default-x="44">
        <pitch>
          <step>A</step>
          <octave>2</octave>
        </pitch>
        <duration>2</duration>
        <voice>1</voice>
        <type>quarter</type>
        <stem default-y="0">up</stem>
      </note>
      <note default-x="70">
        <rest/>
        <duration>4</duration>
        <voice>1</voice>
        <type>half</type>
      </note>
    </measure>
    <!--=======================================================-->
    <measure number="3" width="87">
      <note default-x="35">
        <rest/>
        <duration>8</duration>
        <voice>1</voice>
        <type>whole</type>
        <notations>
          <fermata default-x="-4" default-y="5" type="upright"/>
        </notations>
      </note>
    </measure>
    <!--=======================================================-->
    <measure number="4" width="146">
      <note default-x="37">
        <rest/>
        <duration>2</duration>
        <voice>1</voice>
        <type>quarter</type>
      </note>
      <note default-x="64">
        <pitch>
          <step>A</step>
          <octave>2</octave>
        </pitch>
        <duration>2</duration>
        <voice>1</voice>
        <type>quarter</type>
        <stem default-y="0">up</stem>
      </note>
      <note default-x="91">
        <rest/>
        <duration>2</duration>
        <voice>1</voice>
        <type>quarter</type>
      </note>
      <note default-x="118">
        <pitch>
          <step>A</step>
          <octave>2</octave>
        </pitch>
        <duration>2</duration>
        <voice>1</voice>
        <type>quarter</type>
        <stem default-y="0">up</stem>
      </note>
    </measure>
    <!--=======================================================-->
    <measure number="5" width="118">
      <note default-x="17">
        <rest/>
        <duration>2</duration>
        <voice>1</voice>
        <type>quarter</type>
      </note>
      <note default-x="44">
        <pitch>
          <step>A</step>
          <octave>2</octave>
        </pitch>
        <duration>2</duration>
        <voice>1</voice>
        <type>quarter</type>
        <stem default-y="0">up</stem>
      </note>
      <note default-x="71">
        <rest/>
        <duration>4</duration>
        <voice>1</voice>
        <type>half</type>
        <notations>
          <fermata default-x="-4" default-y="5" type="upright"/>
        </notations>
      </note>
    </measure>
    <!--=======================================================-->
    <measure number="6" width="124">
      <direction placement="above">
        <direction-type>
          <words default-y="7" relative-x="-11">arco</words>
        </direction-type>
      </direction>
      <note default-x="37">
        <pitch>
          <step>A</step>
          <octave>2</octave>
        </pitch>
        <duration>8</duration>
        <voice>1</voice>
        <type>whole</type>
        <notations>
          <slur number="1" placement="below" type="start"/>
        </notations>
      </note>
    </measure>
    <!--=======================================================-->
    <measure number="7" width="115">
      <direction placement="below">
        <direction-type>
          <wedge default-y="-64" spread="0" type="crescendo"/>
        </direction-type>
      </direction>
      <note default-x="25">
        <pitch>
          <step>A</step>
          <alter>-1</alter>
          <octave>2</octave>
        </pitch>
        <duration>4</duration>
        <voice>1</voice>
        <type>half</type>
        <accidental>flat</accidental>
        <stem default-y="0">up</stem>
      </note>
      <note default-x="70">
        <pitch>
          <step>G</step>
          <octave>2</octave>
        </pitch>
        <duration>4</duration>
        <voice>1</voice>
        <type>half</type>
        <accidental>natural</accidental>
        <stem default-y="-4.5">up</stem>
        <notations>
          <slur number="1" type="stop"/>
        </notations>
      </note>
      <direction>
        <direction-type>
          <wedge spread="15" type="stop"/>
        </direction-type>
      </direction>
    </measure>
    <!--=======================================================-->
    <measure number="8" width="127">
      <direction placement="below">
        <direction-type>
          <dynamics default-x="36" default-y="-95" halign="center">
            <ff/>
          </dynamics>
        </direction-type>
        <sound dynamics="112"/>
      </direction>
      <note default-x="36">
        <pitch>
          <step>C</step>
          <octave>2</octave>
        </pitch>
        <duration>4</duration>
        <voice>1</voice>
        <type>half</type>
        <accidental>natural</accidental>
        <stem default-y="-20">up</stem>
        <notations>
          <ornaments>
            <tremolo default-x="6" default-y="-47" type="single">3</tremolo>
          </ornaments>
        </notations>
      </note>
      <note default-x="76">
        <pitch>
          <step>C</step>
          <octave>2</octave>
        </pitch>
        <duration>4</duration>
        <voice>1</voice>
        <type>half</type>
        <stem default-y="-20">up</stem>
        <notations>
          <ornaments>
            <tremolo default-x="7" default-y="-47" type="single">3</tremolo>
          </ornaments>
        </notations>
      </note>
      <barline location="right">
        <bar-style>light-heavy</bar-style>
      </barline>
    </measure>
  </part>
  <!--=========================================================-->
</score-partwise>
