<?xml version="1.0" encoding="UTF-8" standalone="no"?>
<!DOCTYPE score-partwise PUBLIC "-//Recordare//DTD MusicXML 3.0 Partwise//EN" "http://www.musicxml.org/dtds/partwise.dtd">
<score-partwise version="3.0">
  <movement-title>App. No. 78</movement-title>
  <identification>
    <rights>©</rights>
    <encoding>
      <software>Finale 2014 for Windows</software>
      <software>Dolet Light for Finale 2014</software>
      <encoding-date>2015-06-07</encoding-date>
      <supports attribute="new-system" element="print" type="yes" value="yes"/>
      <supports attribute="new-page" element="print" type="yes" value="yes"/>
      <supports element="accidental" type="yes"/>
      <supports element="beam" type="yes"/>
      <supports element="stem" type="yes"/>
    </encoding>
  </identification>
  <defaults>
    <scaling>
      <millimeters>6.1666</millimeters>
      <tenths>40</tenths>
    </scaling>
    <page-layout>
      <page-height>1812</page-height>
      <page-width>1400</page-width>
      <page-margins type="both">
        <left-margin>165</left-margin>
        <right-margin>82</right-margin>
        <top-margin>82</top-margin>
        <bottom-margin>82</bottom-margin>
      </page-margins>
    </page-layout>
    <system-layout>
      <system-margins>
        <left-margin>0</left-margin>
        <right-margin>0</right-margin>
      </system-margins>
      <system-distance>98</system-distance>
      <top-system-distance>39</top-system-distance>
    </system-layout>
    <staff-layout>
      <staff-distance>80</staff-distance>
    </staff-layout>
    <appearance>
      <line-width type="stem">0.7487</line-width>
      <line-width type="beam">5</line-width>
      <line-width type="staff">0.7487</line-width>
      <line-width type="light barline">0.7487</line-width>
      <line-width type="heavy barline">5</line-width>
      <line-width type="leger">0.7487</line-width>
      <line-width type="ending">0.7487</line-width>
      <line-width type="wedge">0.7487</line-width>
      <line-width type="enclosure">0.7487</line-width>
      <line-width type="tuplet bracket">0.7487</line-width>
      <note-size type="grace">60</note-size>
      <note-size type="cue">60</note-size>
      <distance type="hyphen">120</distance>
      <distance type="beam">8</distance>
    </appearance>
    <music-font font-family="Maestro,engraved" font-size="17.5"/>
    <word-font font-family="Times New Roman" font-size="8.7"/>
  </defaults>
  <credit page="1">
    <credit-type>title</credit-type>
    <credit-words default-x="741" default-y="1730" font-size="24" justify="center" valign="top">App. No. 78</credit-words>
  </credit>
  <credit page="1">
    <credit-words default-x="165" default-y="1733" font-size="12" valign="top">Score</credit-words>
  </credit>
  <credit page="1">
    <credit-type>subtitle</credit-type>
    <credit-words default-x="741" default-y="1654" font-size="18" justify="center" valign="top">Coerne</credit-words>
  </credit>
  <part-list>
    <part-group number="1" type="start">
      <group-symbol default-x="-5">bracket</group-symbol>
      <group-barline>yes</group-barline>
    </part-group>
    <score-part id="P1">
      <part-name>Flute</part-name>
      <part-abbreviation>Fl.</part-abbreviation>
      <score-instrument id="P1-I1">
        <instrument-name>ARIA Player</instrument-name>
        <instrument-sound>wind.flutes.flute</instrument-sound>
        <virtual-instrument>
          <virtual-library>Garritan Instruments for Finale</virtual-library>
          <virtual-name>001. Woodwinds/1. Flutes/Flute Plr1</virtual-name>
        </virtual-instrument>
      </score-instrument>
      <midi-device>ARIA Player</midi-device>
      <midi-instrument id="P1-I1">
        <midi-channel>1</midi-channel>
        <midi-program>1</midi-program>
        <volume>80</volume>
        <pan>-63</pan>
      </midi-instrument>
    </score-part>
    <score-part id="P2">
      <part-name>Oboe</part-name>
      <part-abbreviation>Ob.</part-abbreviation>
      <score-instrument id="P2-I2">
        <instrument-name>ARIA Player</instrument-name>
        <instrument-sound>wind.reed.oboe</instrument-sound>
        <virtual-instrument>
          <virtual-library>Garritan Instruments for Finale</virtual-library>
          <virtual-name>001. Woodwinds/2. Oboes and Eng. Horn/Oboe Plr1</virtual-name>
        </virtual-instrument>
      </score-instrument>
      <midi-device>ARIA Player</midi-device>
      <midi-instrument id="P2-I2">
        <midi-channel>2</midi-channel>
        <midi-program>1</midi-program>
        <volume>80</volume>
        <pan>-32</pan>
      </midi-instrument>
    </score-part>
    <part-group number="2" type="start">
      <group-symbol default-x="-10">square</group-symbol>
      <group-barline>yes</group-barline>
    </part-group>
    <score-part id="P3">
      <part-name>Clarinet in A 1</part-name>
      <part-abbreviation>A Cl. 1</part-abbreviation>
      <score-instrument id="P3-I3">
        <instrument-name>ARIA Player</instrument-name>
        <instrument-sound>wind.reed.clarinet.a</instrument-sound>
        <virtual-instrument>
          <virtual-library>Garritan Instruments for Finale</virtual-library>
          <virtual-name>001. Woodwinds/3. Clarinets/Bb Clarinet Solo</virtual-name>
        </virtual-instrument>
      </score-instrument>
      <midi-device>ARIA Player</midi-device>
      <midi-instrument id="P3-I3">
        <midi-channel>3</midi-channel>
        <midi-program>1</midi-program>
        <volume>80</volume>
        <pan>-1</pan>
      </midi-instrument>
    </score-part>
    <score-part id="P4">
      <part-name>Clarinet in A 2</part-name>
      <part-abbreviation>A Cl. 2</part-abbreviation>
      <score-instrument id="P4-I12">
        <instrument-name>ARIA Player</instrument-name>
        <instrument-sound>wind.reed.clarinet.a</instrument-sound>
        <virtual-instrument>
          <virtual-library>Garritan Instruments for Finale</virtual-library>
          <virtual-name>001. Woodwinds/3. Clarinets/Bb Clarinet Solo</virtual-name>
        </virtual-instrument>
      </score-instrument>
      <midi-device>ARIA Player</midi-device>
      <midi-instrument id="P4-I12">
        <midi-channel>12</midi-channel>
        <midi-program>1</midi-program>
        <volume>80</volume>
        <pan>0</pan>
      </midi-instrument>
    </score-part>
    <part-group number="2" type="stop"/>
    <score-part id="P5">
      <part-name>Bassoon</part-name>
      <part-abbreviation>Bsn.</part-abbreviation>
      <score-instrument id="P5-I4">
        <instrument-name>ARIA Player</instrument-name>
        <instrument-sound>wind.reed.bassoon</instrument-sound>
        <virtual-instrument>
          <virtual-library>Garritan Instruments for Finale</virtual-library>
          <virtual-name>001. Woodwinds/4. Bassoons/Bassoon Plr1</virtual-name>
        </virtual-instrument>
      </score-instrument>
      <midi-device>ARIA Player</midi-device>
      <midi-instrument id="P5-I4">
        <midi-channel>4</midi-channel>
        <midi-program>1</midi-program>
        <volume>80</volume>
        <pan>30</pan>
      </midi-instrument>
    </score-part>
    <part-group number="1" type="stop"/>
    <score-part id="P6">
      <part-name>Triangle</part-name>
      <part-abbreviation>Trgl.</part-abbreviation>
      <score-instrument id="P6-I5">
        <instrument-name>ARIA Player</instrument-name>
        <instrument-sound>metal.triangle</instrument-sound>
        <virtual-instrument>
          <virtual-library>Garritan Instruments for Finale</virtual-library>
          <virtual-name>003. Percussion/Percussion Toys KS</virtual-name>
        </virtual-instrument>
      </score-instrument>
      <score-instrument id="P6-X9">
        <instrument-name>Triangle%g Open</instrument-name>
      </score-instrument>
      <midi-device>ARIA Player</midi-device>
      <midi-instrument id="P6-I5">
        <midi-channel>10</midi-channel>
        <midi-program>1</midi-program>
        <volume>100</volume>
        <pan>0</pan>
      </midi-instrument>
      <midi-instrument id="P6-X9">
        <midi-channel>10</midi-channel>
        <midi-program>1</midi-program>
        <midi-unpitched>83</midi-unpitched>
        <volume>100</volume>
        <pan>0</pan>
      </midi-instrument>
    </score-part>
    <part-group number="1" type="start">
      <group-name>Harp</group-name>
      <group-abbreviation>Hp.</group-abbreviation>
      <group-symbol default-x="-5">brace</group-symbol>
      <group-barline>yes</group-barline>
    </part-group>
    <score-part id="P7">
      <part-name print-object="no">MusicXML Part</part-name>
      <score-instrument id="P7-I6">
        <instrument-name>ARIA Player</instrument-name>
        <instrument-sound>pluck.harp</instrument-sound>
        <virtual-instrument>
          <virtual-library>Garritan Instruments for Finale</virtual-library>
          <virtual-name>004. Harp/Harp KS</virtual-name>
        </virtual-instrument>
      </score-instrument>
      <midi-device>ARIA Player</midi-device>
      <midi-instrument id="P7-I6">
        <midi-channel>5</midi-channel>
        <midi-program>1</midi-program>
        <volume>80</volume>
        <pan>-48</pan>
      </midi-instrument>
    </score-part>
    <score-part id="P8">
      <part-name print-object="no">MusicXML Part</part-name>
      <score-instrument id="P8-I6">
        <instrument-name>ARIA Player</instrument-name>
        <instrument-sound>pluck.harp</instrument-sound>
        <virtual-instrument>
          <virtual-library>Garritan Instruments for Finale</virtual-library>
          <virtual-name>004. Harp/Harp KS</virtual-name>
        </virtual-instrument>
      </score-instrument>
      <midi-device>ARIA Player</midi-device>
      <midi-instrument id="P8-I6">
        <midi-channel>5</midi-channel>
        <midi-program>1</midi-program>
        <volume>80</volume>
        <pan>-48</pan>
      </midi-instrument>
    </score-part>
    <part-group number="1" type="stop"/>
    <part-group number="1" type="start">
      <group-symbol default-x="-10">square</group-symbol>
      <group-barline>yes</group-barline>
    </part-group>
    <part-group number="2" type="start">
      <group-symbol default-x="-5">bracket</group-symbol>
      <group-barline>yes</group-barline>
    </part-group>
    <score-part id="P9">
      <part-name>Violin I</part-name>
      <part-abbreviation>Vln. I</part-abbreviation>
      <score-instrument id="P9-I7">
        <instrument-name>ARIA Player</instrument-name>
        <instrument-sound>strings.violin</instrument-sound>
        <ensemble/>
        <virtual-instrument>
          <virtual-library>Garritan Instruments for Finale</virtual-library>
          <virtual-name>008. Section Strings/1. Violins/Violins KS</virtual-name>
        </virtual-instrument>
      </score-instrument>
      <midi-device>ARIA Player</midi-device>
      <midi-instrument id="P9-I7">
        <midi-channel>6</midi-channel>
        <midi-program>1</midi-program>
        <volume>80</volume>
        <pan>-70</pan>
      </midi-instrument>
    </score-part>
    <score-part id="P10">
      <part-name>Violin II</part-name>
      <part-abbreviation>Vln. II</part-abbreviation>
      <score-instrument id="P10-I8">
        <instrument-name>ARIA Player</instrument-name>
        <instrument-sound>strings.violin</instrument-sound>
        <ensemble/>
        <virtual-instrument>
          <virtual-library>Garritan Instruments for Finale</virtual-library>
          <virtual-name>008. Section Strings/1. Violins/Violins KS</virtual-name>
        </virtual-instrument>
      </score-instrument>
      <midi-device>ARIA Player</midi-device>
      <midi-instrument id="P10-I8">
        <midi-channel>7</midi-channel>
        <midi-program>1</midi-program>
        <volume>80</volume>
        <pan>-34</pan>
      </midi-instrument>
    </score-part>
    <part-group number="1" type="stop"/>
    <score-part id="P11">
      <part-name>Viola</part-name>
      <part-abbreviation>Vla.</part-abbreviation>
      <score-instrument id="P11-I9">
        <instrument-name>ARIA Player</instrument-name>
        <instrument-sound>strings.viola</instrument-sound>
        <ensemble/>
        <virtual-instrument>
          <virtual-library>Garritan Instruments for Finale</virtual-library>
          <virtual-name>008. Section Strings/2. Violas/Violas KS</virtual-name>
        </virtual-instrument>
      </score-instrument>
      <midi-device>ARIA Player</midi-device>
      <midi-instrument id="P11-I9">
        <midi-channel>8</midi-channel>
        <midi-program>1</midi-program>
        <volume>80</volume>
        <pan>4</pan>
      </midi-instrument>
    </score-part>
    <score-part id="P12">
      <part-name>Cello</part-name>
      <part-abbreviation>Vc.</part-abbreviation>
      <score-instrument id="P12-I10">
        <instrument-name>ARIA Player</instrument-name>
        <instrument-sound>strings.cello</instrument-sound>
        <ensemble/>
        <virtual-instrument>
          <virtual-library>Garritan Instruments for Finale</virtual-library>
          <virtual-name>008. Section Strings/3. Cellos/Cellos KS</virtual-name>
        </virtual-instrument>
      </score-instrument>
      <midi-device>ARIA Player</midi-device>
      <midi-instrument id="P12-I10">
        <midi-channel>9</midi-channel>
        <midi-program>1</midi-program>
        <volume>80</volume>
        <pan>41</pan>
      </midi-instrument>
    </score-part>
    <score-part id="P13">
      <part-name>Double Bass</part-name>
      <part-abbreviation>D.B.</part-abbreviation>
      <score-instrument id="P13-I11">
        <instrument-name>ARIA Player</instrument-name>
        <virtual-instrument>
          <virtual-library>Garritan Instruments for Finale</virtual-library>
          <virtual-name>008. Section Strings/4. Basses/Basses KS</virtual-name>
        </virtual-instrument>
      </score-instrument>
      <midi-device>ARIA Player</midi-device>
      <midi-instrument id="P13-I11">
        <midi-channel>11</midi-channel>
        <midi-program>1</midi-program>
        <volume>80</volume>
        <pan>80</pan>
      </midi-instrument>
    </score-part>
    <part-group number="2" type="stop"/>
  </part-list>
  <!--=========================================================-->
  <part id="P1">
    <measure number="1" width="203">
      <print>
        <system-layout>
          <system-margins>
            <left-margin>82</left-margin>
            <right-margin>0</right-margin>
          </system-margins>
          <top-system-distance>247</top-system-distance>
        </system-layout>
        <measure-numbering>system</measure-numbering>
      </print>
      <attributes>
        <divisions>2</divisions>
        <key>
          <fifths>0</fifths>
          <mode>major</mode>
        </key>
        <time>
          <beats>6</beats>
          <beat-type>8</beat-type>
        </time>
        <clef>
          <sign>G</sign>
          <line>2</line>
        </clef>
      </attributes>
      <direction directive="yes" placement="above">
        <direction-type>
          <words default-y="40" font-size="10.2" font-style="italic" font-weight="bold">Allegro.</words>
        </direction-type>
        <sound tempo="180"/>
      </direction>
      <note>
        <rest measure="yes"/>
        <duration>6</duration>
        <voice>1</voice>
      </note>
    </measure>
    <!--=======================================================-->
    <measure number="2" width="86">
      <note>
        <rest measure="yes"/>
        <duration>6</duration>
        <voice>1</voice>
      </note>
    </measure>
    <!--=======================================================-->
    <measure number="3" width="91">
      <note default-x="15">
        <rest/>
        <duration>2</duration>
        <voice>1</voice>
        <type>quarter</type>
      </note>
      <direction placement="below">
        <direction-type>
          <dynamics default-x="43" default-y="-81" halign="center">
            <p/>
          </dynamics>
        </direction-type>
        <sound dynamics="54"/>
      </direction>
      <note default-x="39">
        <rest/>
        <duration>1</duration>
        <voice>1</voice>
        <type>eighth</type>
      </note>
      <note default-x="51">
        <pitch>
          <step>G</step>
          <octave>4</octave>
        </pitch>
        <duration>1</duration>
        <voice>1</voice>
        <type>eighth</type>
        <stem default-y="-65">down</stem>
        <beam number="1">begin</beam>
        <notations>
          <slur number="1" placement="above" type="start"/>
          <articulations>
            <staccato default-x="4" default-y="15" placement="above"/>
          </articulations>
        </notations>
      </note>
      <note default-x="51">
        <chord/>
        <pitch>
          <step>G</step>
          <octave>5</octave>
        </pitch>
        <duration>1</duration>
        <voice>1</voice>
        <type>eighth</type>
        <stem>down</stem>
      </note>
      <direction placement="below">
        <direction-type>
          <words default-y="-83" font-style="italic" relative-x="-9">tranquillo</words>
        </direction-type>
      </direction>
      <note default-x="62">
        <rest/>
        <duration>1</duration>
        <voice>1</voice>
        <type>eighth</type>
      </note>
      <note default-x="78">
        <pitch>
          <step>B</step>
          <alter>-1</alter>
          <octave>4</octave>
        </pitch>
        <duration>1</duration>
        <voice>1</voice>
        <type>eighth</type>
        <accidental>flat</accidental>
        <stem default-y="-59.5">down</stem>
        <beam number="1">end</beam>
        <notations>
          <articulations>
            <staccato default-x="3" default-y="25" placement="above"/>
          </articulations>
        </notations>
      </note>
      <note default-x="78">
        <chord/>
        <pitch>
          <step>B</step>
          <alter>-1</alter>
          <octave>5</octave>
        </pitch>
        <duration>1</duration>
        <voice>1</voice>
        <type>eighth</type>
        <accidental>flat</accidental>
        <stem>down</stem>
      </note>
    </measure>
    <!--=======================================================-->
    <measure number="4" width="95">
      <note default-x="21">
        <pitch>
          <step>C</step>
          <alter>1</alter>
          <octave>5</octave>
        </pitch>
        <duration>1</duration>
        <voice>1</voice>
        <type>eighth</type>
        <accidental>sharp</accidental>
        <stem default-y="-50">down</stem>
        <beam number="1">begin</beam>
        <notations>
          <articulations>
            <staccato default-x="3" default-y="30" placement="above"/>
          </articulations>
        </notations>
      </note>
      <note default-x="21">
        <chord/>
        <pitch>
          <step>C</step>
          <alter>1</alter>
          <octave>6</octave>
        </pitch>
        <duration>1</duration>
        <voice>1</voice>
        <type>eighth</type>
        <accidental>sharp</accidental>
        <stem>down</stem>
      </note>
      <note default-x="33">
        <rest/>
        <duration>1</duration>
        <voice>1</voice>
        <type>eighth</type>
      </note>
      <note default-x="45">
        <pitch>
          <step>D</step>
          <octave>5</octave>
        </pitch>
        <duration>1</duration>
        <voice>1</voice>
        <type>eighth</type>
        <stem default-y="-44.5">down</stem>
        <beam number="1">end</beam>
        <notations>
          <articulations>
            <staccato default-x="3" default-y="35" placement="above"/>
          </articulations>
        </notations>
      </note>
      <note default-x="45">
        <chord/>
        <pitch>
          <step>D</step>
          <octave>6</octave>
        </pitch>
        <duration>1</duration>
        <voice>1</voice>
        <type>eighth</type>
        <stem>down</stem>
      </note>
      <note default-x="59">
        <pitch>
          <step>E</step>
          <octave>5</octave>
        </pitch>
        <duration>1</duration>
        <voice>1</voice>
        <type>eighth</type>
        <stem default-y="-35">down</stem>
        <beam number="1">begin</beam>
        <notations>
          <articulations>
            <staccato default-x="3" default-y="40" placement="above"/>
          </articulations>
        </notations>
      </note>
      <note default-x="59">
        <chord/>
        <pitch>
          <step>E</step>
          <octave>6</octave>
        </pitch>
        <duration>1</duration>
        <voice>1</voice>
        <type>eighth</type>
        <stem>down</stem>
      </note>
      <note default-x="71">
        <rest/>
        <duration>1</duration>
        <voice>1</voice>
        <type>eighth</type>
      </note>
      <note default-x="82">
        <pitch>
          <step>A</step>
          <octave>5</octave>
        </pitch>
        <duration>1</duration>
        <voice>1</voice>
        <type>eighth</type>
        <stem default-y="-32">down</stem>
        <beam number="1">end</beam>
        <notations>
          <articulations>
            <staccato default-x="3" default-y="55" placement="above"/>
          </articulations>
        </notations>
      </note>
      <note default-x="82">
        <chord/>
        <pitch>
          <step>A</step>
          <octave>6</octave>
        </pitch>
        <duration>1</duration>
        <voice>1</voice>
        <type>eighth</type>
        <stem>down</stem>
      </note>
    </measure>
    <!--=======================================================-->
    <measure number="5" width="96">
      <note default-x="21">
        <pitch>
          <step>A</step>
          <octave>5</octave>
        </pitch>
        <duration>1</duration>
        <voice>1</voice>
        <type>eighth</type>
        <stem default-y="-20">down</stem>
        <beam number="1">begin</beam>
        <notations>
          <articulations>
            <staccato default-x="3" default-y="55" placement="above"/>
          </articulations>
        </notations>
      </note>
      <note default-x="21">
        <chord/>
        <pitch>
          <step>A</step>
          <octave>6</octave>
        </pitch>
        <duration>1</duration>
        <voice>1</voice>
        <type>eighth</type>
        <stem>down</stem>
      </note>
      <note default-x="38">
        <rest/>
        <duration>1</duration>
        <voice>1</voice>
        <type>eighth</type>
      </note>
      <note default-x="50">
        <pitch>
          <step>G</step>
          <octave>5</octave>
        </pitch>
        <duration>1</duration>
        <voice>1</voice>
        <type>eighth</type>
        <stem default-y="-22">down</stem>
        <beam number="1">end</beam>
        <notations>
          <slur number="1" type="stop"/>
          <articulations>
            <staccato default-x="3" default-y="50" placement="above"/>
          </articulations>
        </notations>
      </note>
      <note default-x="50">
        <chord/>
        <pitch>
          <step>G</step>
          <octave>6</octave>
        </pitch>
        <duration>1</duration>
        <voice>1</voice>
        <type>eighth</type>
        <stem>down</stem>
      </note>
      <note default-x="63">
        <rest/>
        <duration>2</duration>
        <voice>1</voice>
        <type>quarter</type>
      </note>
      <note default-x="85">
        <rest/>
        <duration>1</duration>
        <voice>1</voice>
        <type>eighth</type>
      </note>
    </measure>
    <!--=======================================================-->
    <measure number="6" width="93">
      <note>
        <rest measure="yes"/>
        <duration>6</duration>
        <voice>1</voice>
      </note>
    </measure>
    <!--=======================================================-->
    <measure number="7" width="93">
      <note>
        <rest measure="yes"/>
        <duration>6</duration>
        <voice>1</voice>
      </note>
    </measure>
    <!--=======================================================-->
    <measure number="8" width="93">
      <note>
        <rest measure="yes"/>
        <duration>6</duration>
        <voice>1</voice>
      </note>
    </measure>
    <!--=======================================================-->
    <measure number="9" width="126">
      <note default-x="63">
        <pitch>
          <step>A</step>
          <alter>1</alter>
          <octave>4</octave>
        </pitch>
        <duration>6</duration>
        <voice>1</voice>
        <type>half</type>
        <dot/>
        <accidental>sharp</accidental>
        <stem default-y="-53">down</stem>
        <notations>
          <slur number="1" placement="above" type="start"/>
        </notations>
      </note>
      <note default-x="63">
        <chord/>
        <pitch>
          <step>C</step>
          <alter>1</alter>
          <octave>5</octave>
        </pitch>
        <duration>6</duration>
        <voice>1</voice>
        <type>half</type>
        <dot/>
        <accidental>sharp</accidental>
        <stem>down</stem>
      </note>
    </measure>
    <!--=======================================================-->
    <measure number="10" width="93">
      <note default-x="20">
        <pitch>
          <step>B</step>
          <octave>4</octave>
        </pitch>
        <duration>6</duration>
        <voice>1</voice>
        <type>half</type>
        <dot/>
        <stem default-y="-55">down</stem>
        <notations>
          <slur number="1" type="stop"/>
        </notations>
      </note>
      <note default-x="20">
        <chord/>
        <pitch>
          <step>D</step>
          <octave>5</octave>
        </pitch>
        <duration>6</duration>
        <voice>1</voice>
        <type>half</type>
        <dot/>
        <stem>down</stem>
      </note>
      <barline location="right">
        <bar-style>light-heavy</bar-style>
      </barline>
    </measure>
  </part>
  <!--=========================================================-->
  <part id="P2">
    <measure number="1" width="203">
      <print>
        <measure-numbering>none</measure-numbering>
      </print>
      <attributes>
        <divisions>2</divisions>
        <key>
          <fifths>0</fifths>
          <mode>major</mode>
        </key>
        <time>
          <beats>6</beats>
          <beat-type>8</beat-type>
        </time>
        <clef>
          <sign>G</sign>
          <line>2</line>
        </clef>
      </attributes>
      <note>
        <rest measure="yes"/>
        <duration>6</duration>
        <voice>1</voice>
      </note>
    </measure>
    <!--=======================================================-->
    <measure number="2" width="86">
      <note>
        <rest measure="yes"/>
        <duration>6</duration>
        <voice>1</voice>
      </note>
    </measure>
    <!--=======================================================-->
    <measure number="3" width="91">
      <note>
        <rest measure="yes"/>
        <duration>6</duration>
        <voice>1</voice>
      </note>
    </measure>
    <!--=======================================================-->
    <measure number="4" width="95">
      <note>
        <rest measure="yes"/>
        <duration>6</duration>
        <voice>1</voice>
      </note>
    </measure>
    <!--=======================================================-->
    <measure number="5" width="96">
      <note default-x="21">
        <rest/>
        <duration>2</duration>
        <voice>1</voice>
        <type>quarter</type>
      </note>
      <note default-x="50">
        <rest/>
        <duration>1</duration>
        <voice>1</voice>
        <type>eighth</type>
      </note>
      <direction placement="below">
        <direction-type>
          <dynamics default-x="62" default-y="-95" halign="center">
            <p/>
          </dynamics>
        </direction-type>
        <sound dynamics="54"/>
      </direction>
      <note default-x="63">
        <pitch>
          <step>G</step>
          <octave>4</octave>
        </pitch>
        <duration>1</duration>
        <voice>1</voice>
        <type>eighth</type>
        <stem default-y="-64.5">down</stem>
        <beam number="1">begin</beam>
        <notations>
          <slur number="1" placement="above" type="start"/>
          <articulations>
            <staccato default-x="3" default-y="-17" placement="above"/>
          </articulations>
        </notations>
      </note>
      <note default-x="74">
        <rest/>
        <duration>1</duration>
        <voice>1</voice>
        <type>eighth</type>
      </note>
      <note default-x="85">
        <pitch>
          <step>D</step>
          <octave>5</octave>
        </pitch>
        <duration>1</duration>
        <voice>1</voice>
        <type>eighth</type>
        <stem default-y="-59.5">down</stem>
        <beam number="1">end</beam>
        <notations>
          <articulations>
            <staccato default-x="3" default-y="3" placement="above"/>
          </articulations>
        </notations>
      </note>
    </measure>
    <!--=======================================================-->
    <measure number="6" width="93">
      <note default-x="21">
        <pitch>
          <step>F</step>
          <octave>5</octave>
        </pitch>
        <duration>1</duration>
        <voice>1</voice>
        <type>eighth</type>
        <stem default-y="-35">down</stem>
        <beam number="1">begin</beam>
        <notations>
          <articulations>
            <staccato default-x="3" default-y="10" placement="above"/>
          </articulations>
        </notations>
      </note>
      <note default-x="32">
        <rest/>
        <duration>1</duration>
        <voice>1</voice>
        <type>eighth</type>
      </note>
      <note default-x="42">
        <pitch>
          <step>G</step>
          <octave>5</octave>
        </pitch>
        <duration>1</duration>
        <voice>1</voice>
        <type>eighth</type>
        <stem default-y="-32">down</stem>
        <beam number="1">end</beam>
        <notations>
          <articulations>
            <staccato default-x="3" default-y="15" placement="above"/>
          </articulations>
        </notations>
      </note>
      <note default-x="55">
        <pitch>
          <step>A</step>
          <octave>5</octave>
        </pitch>
        <duration>1</duration>
        <voice>1</voice>
        <type>eighth</type>
        <stem default-y="-24.5">down</stem>
        <beam number="1">begin</beam>
        <notations>
          <articulations>
            <staccato default-x="3" default-y="20" placement="above"/>
          </articulations>
        </notations>
      </note>
      <note default-x="68">
        <rest/>
        <duration>1</duration>
        <voice>1</voice>
        <type>eighth</type>
      </note>
      <note default-x="79">
        <pitch>
          <step>C</step>
          <octave>6</octave>
        </pitch>
        <duration>1</duration>
        <voice>1</voice>
        <type>eighth</type>
        <stem default-y="-22">down</stem>
        <beam number="1">end</beam>
        <notations>
          <articulations>
            <staccato default-x="3" default-y="30" placement="above"/>
          </articulations>
        </notations>
      </note>
    </measure>
    <!--=======================================================-->
    <measure number="7" width="93">
      <note default-x="20">
        <pitch>
          <step>C</step>
          <octave>6</octave>
        </pitch>
        <duration>1</duration>
        <voice>1</voice>
        <type>eighth</type>
        <stem default-y="-20">down</stem>
        <beam number="1">begin</beam>
        <notations>
          <articulations>
            <staccato default-x="4" default-y="30" placement="above"/>
          </articulations>
        </notations>
      </note>
      <note default-x="33">
        <rest/>
        <duration>1</duration>
        <voice>1</voice>
        <type>eighth</type>
      </note>
      <note default-x="45">
        <pitch>
          <step>B</step>
          <octave>5</octave>
        </pitch>
        <duration>1</duration>
        <voice>1</voice>
        <type>eighth</type>
        <stem default-y="-22">down</stem>
        <beam number="1">end</beam>
        <notations>
          <articulations>
            <staccato default-x="3" default-y="25" placement="above"/>
          </articulations>
        </notations>
      </note>
      <note default-x="57">
        <pitch>
          <step>F</step>
          <octave>5</octave>
        </pitch>
        <duration>1</duration>
        <voice>1</voice>
        <type>eighth</type>
        <stem default-y="-35">down</stem>
        <beam number="1">begin</beam>
        <notations>
          <articulations>
            <staccato default-x="3" default-y="10" placement="above"/>
          </articulations>
        </notations>
      </note>
      <note default-x="69">
        <rest/>
        <duration>1</duration>
        <voice>1</voice>
        <type>eighth</type>
      </note>
      <note default-x="80">
        <pitch>
          <step>A</step>
          <octave>5</octave>
        </pitch>
        <duration>1</duration>
        <voice>1</voice>
        <type>eighth</type>
        <stem default-y="-32">down</stem>
        <beam number="1">end</beam>
        <notations>
          <articulations>
            <staccato default-x="3" default-y="20" placement="above"/>
          </articulations>
        </notations>
      </note>
    </measure>
    <!--=======================================================-->
    <measure number="8" width="93">
      <note default-x="21">
        <pitch>
          <step>A</step>
          <octave>5</octave>
        </pitch>
        <duration>1</duration>
        <voice>1</voice>
        <type>eighth</type>
        <stem default-y="-20">down</stem>
        <beam number="1">begin</beam>
        <notations>
          <articulations>
            <staccato default-x="3" default-y="20" placement="above"/>
          </articulations>
        </notations>
      </note>
      <note default-x="35">
        <rest/>
        <duration>1</duration>
        <voice>1</voice>
        <type>eighth</type>
      </note>
      <note default-x="46">
        <pitch>
          <step>G</step>
          <octave>5</octave>
        </pitch>
        <duration>1</duration>
        <voice>1</voice>
        <type>eighth</type>
        <stem default-y="-22">down</stem>
        <beam number="1">end</beam>
        <notations>
          <articulations>
            <staccato default-x="3" default-y="15" placement="above"/>
          </articulations>
        </notations>
      </note>
      <note default-x="58">
        <pitch>
          <step>B</step>
          <octave>4</octave>
        </pitch>
        <duration>1</duration>
        <voice>1</voice>
        <type>eighth</type>
        <stem default-y="-55">down</stem>
        <beam number="1">begin</beam>
        <notations>
          <articulations>
            <staccato default-x="3" default-y="-7" placement="above"/>
          </articulations>
        </notations>
      </note>
      <note default-x="70">
        <rest/>
        <duration>1</duration>
        <voice>1</voice>
        <type>eighth</type>
      </note>
      <note default-x="81">
        <pitch>
          <step>D</step>
          <octave>5</octave>
        </pitch>
        <duration>1</duration>
        <voice>1</voice>
        <type>eighth</type>
        <stem default-y="-50">down</stem>
        <beam number="1">end</beam>
        <notations>
          <slur number="1" type="stop"/>
          <articulations>
            <staccato default-x="3" default-y="3" placement="above"/>
          </articulations>
        </notations>
      </note>
    </measure>
    <!--=======================================================-->
    <measure number="9" width="126">
      <note default-x="63">
        <pitch>
          <step>G</step>
          <octave>5</octave>
        </pitch>
        <duration>6</duration>
        <tie type="start"/>
        <voice>1</voice>
        <type>half</type>
        <dot/>
        <stem default-y="-30">down</stem>
        <notations>
          <tied type="start"/>
        </notations>
      </note>
    </measure>
    <!--=======================================================-->
    <measure number="10" width="93">
      <note default-x="20">
        <pitch>
          <step>G</step>
          <octave>5</octave>
        </pitch>
        <duration>2</duration>
        <tie type="stop"/>
        <voice>1</voice>
        <type>quarter</type>
        <stem default-y="-30">down</stem>
        <notations>
          <tied type="stop"/>
        </notations>
      </note>
      <note default-x="39">
        <pitch>
          <step>C</step>
          <alter>1</alter>
          <octave>5</octave>
        </pitch>
        <duration>1</duration>
        <voice>1</voice>
        <type>eighth</type>
        <accidental>sharp</accidental>
        <stem default-y="-50">down</stem>
      </note>
      <note default-x="50">
        <pitch>
          <step>D</step>
          <octave>5</octave>
        </pitch>
        <duration>1</duration>
        <voice>1</voice>
        <type>eighth</type>
        <stem default-y="-44.5">down</stem>
        <beam number="1">begin</beam>
        <notations>
          <articulations>
            <staccato default-x="3" default-y="3" placement="above"/>
          </articulations>
        </notations>
      </note>
      <note default-x="61">
        <pitch>
          <step>E</step>
          <octave>5</octave>
        </pitch>
        <duration>1</duration>
        <voice>1</voice>
        <type>eighth</type>
        <stem default-y="-42">down</stem>
        <beam number="1">continue</beam>
        <notations>
          <articulations>
            <staccato default-x="3" default-y="5" placement="above"/>
          </articulations>
        </notations>
      </note>
      <note default-x="73">
        <pitch>
          <step>F</step>
          <octave>5</octave>
        </pitch>
        <duration>1</duration>
        <voice>1</voice>
        <type>eighth</type>
        <stem default-y="-39.5">down</stem>
        <beam number="1">end</beam>
        <notations>
          <articulations>
            <staccato default-x="3" default-y="10" placement="above"/>
          </articulations>
        </notations>
      </note>
      <barline location="right">
        <bar-style>light-heavy</bar-style>
      </barline>
    </measure>
  </part>
  <!--=========================================================-->
  <part id="P3">
    <measure number="1" width="203">
      <print>
        <measure-numbering>none</measure-numbering>
      </print>
      <attributes>
        <divisions>2</divisions>
        <key>
          <fifths>-3</fifths>
          <mode>major</mode>
        </key>
        <time>
          <beats>6</beats>
          <beat-type>8</beat-type>
        </time>
        <clef>
          <sign>G</sign>
          <line>2</line>
        </clef>
        <transpose>
          <diatonic>-2</diatonic>
          <chromatic>-3</chromatic>
        </transpose>
      </attributes>
      <note>
        <rest measure="yes"/>
        <duration>6</duration>
        <voice>1</voice>
      </note>
    </measure>
    <!--=======================================================-->
    <measure number="2" width="86">
      <note>
        <rest measure="yes"/>
        <duration>6</duration>
        <voice>1</voice>
      </note>
    </measure>
    <!--=======================================================-->
    <measure number="3" width="91">
      <note>
        <rest measure="yes"/>
        <duration>6</duration>
        <voice>1</voice>
      </note>
    </measure>
    <!--=======================================================-->
    <measure number="4" width="95">
      <note>
        <rest measure="yes"/>
        <duration>6</duration>
        <voice>1</voice>
      </note>
    </measure>
    <!--=======================================================-->
    <measure number="5" width="96">
      <direction placement="below">
        <direction-type>
          <dynamics default-x="21" default-y="-73" halign="center">
            <pp/>
          </dynamics>
        </direction-type>
        <sound dynamics="40"/>
      </direction>
      <note default-x="21">
        <pitch>
          <step>B</step>
          <alter>-1</alter>
          <octave>4</octave>
        </pitch>
        <duration>6</duration>
        <voice>1</voice>
        <type>half</type>
        <dot relative-x="12"/>
        <stem default-y="15.5">up</stem>
      </note>
    </measure>
    <!--=======================================================-->
    <measure number="6" width="93">
      <note default-x="21">
        <pitch>
          <step>B</step>
          <alter>-1</alter>
          <octave>4</octave>
        </pitch>
        <duration>6</duration>
        <voice>1</voice>
        <type>half</type>
        <dot relative-x="12"/>
        <stem default-y="15.5">up</stem>
      </note>
    </measure>
    <!--=======================================================-->
    <measure number="7" width="93">
      <note default-x="21">
        <pitch>
          <step>B</step>
          <alter>-1</alter>
          <octave>4</octave>
        </pitch>
        <duration>6</duration>
        <voice>1</voice>
        <type>half</type>
        <dot relative-x="12"/>
        <stem default-y="15.5">up</stem>
      </note>
    </measure>
    <!--=======================================================-->
    <measure number="8" width="93">
      <note default-x="21">
        <pitch>
          <step>B</step>
          <alter>-1</alter>
          <octave>4</octave>
        </pitch>
        <duration>6</duration>
        <voice>1</voice>
        <type>half</type>
        <dot relative-x="12"/>
        <stem default-y="15.5">up</stem>
      </note>
    </measure>
    <!--=======================================================-->
    <measure number="9" width="126">
      <note default-x="63">
        <pitch>
          <step>B</step>
          <alter>-1</alter>
          <octave>4</octave>
        </pitch>
        <duration>6</duration>
        <tie type="start"/>
        <voice>1</voice>
        <type>half</type>
        <dot/>
        <stem default-y="-55">down</stem>
        <notations>
          <tied type="start"/>
        </notations>
      </note>
    </measure>
    <!--=======================================================-->
    <measure number="10" width="93">
      <note default-x="20">
        <pitch>
          <step>B</step>
          <alter>-1</alter>
          <octave>4</octave>
        </pitch>
        <duration>6</duration>
        <tie type="stop"/>
        <voice>1</voice>
        <type>half</type>
        <dot relative-x="12"/>
        <stem default-y="15.5">up</stem>
        <notations>
          <tied type="stop"/>
        </notations>
      </note>
      <barline location="right">
        <bar-style>light-heavy</bar-style>
      </barline>
    </measure>
  </part>
  <!--=========================================================-->
  <part id="P4">
    <measure number="1" width="203">
      <print>
        <measure-numbering>none</measure-numbering>
      </print>
      <attributes>
        <divisions>2</divisions>
        <key print-object="no">
          <fifths>-3</fifths>
          <mode>major</mode>
        </key>
        <time>
          <beats>6</beats>
          <beat-type>8</beat-type>
        </time>
        <clef>
          <sign>G</sign>
          <line>2</line>
        </clef>
        <transpose>
          <diatonic>-2</diatonic>
          <chromatic>-3</chromatic>
        </transpose>
      </attributes>
      <note>
        <rest measure="yes"/>
        <duration>6</duration>
        <voice>1</voice>
      </note>
    </measure>
    <!--=======================================================-->
    <measure number="2" width="86">
      <note>
        <rest measure="yes"/>
        <duration>6</duration>
        <voice>1</voice>
      </note>
    </measure>
    <!--=======================================================-->
    <measure number="3" width="91">
      <note>
        <rest measure="yes"/>
        <duration>6</duration>
        <voice>1</voice>
      </note>
    </measure>
    <!--=======================================================-->
    <measure number="4" width="95">
      <note>
        <rest measure="yes"/>
        <duration>6</duration>
        <voice>1</voice>
      </note>
    </measure>
    <!--=======================================================-->
    <measure number="5" width="96">
      <direction placement="below">
        <direction-type>
          <dynamics default-x="33" default-y="-83" halign="center">
            <pp/>
          </dynamics>
        </direction-type>
        <sound dynamics="40"/>
      </direction>
      <note default-x="33">
        <pitch>
          <step>A</step>
          <alter>-1</alter>
          <octave>4</octave>
        </pitch>
        <duration>6</duration>
        <voice>1</voice>
        <type>half</type>
        <dot/>
        <accidental>flat</accidental>
        <stem default-y="-53">down</stem>
      </note>
    </measure>
    <!--=======================================================-->
    <measure number="6" width="93">
      <note default-x="33">
        <pitch>
          <step>A</step>
          <alter>-1</alter>
          <octave>4</octave>
        </pitch>
        <duration>6</duration>
        <voice>1</voice>
        <type>half</type>
        <dot/>
        <accidental>flat</accidental>
        <stem default-y="-53">down</stem>
      </note>
    </measure>
    <!--=======================================================-->
    <measure number="7" width="93">
      <note default-x="33">
        <pitch>
          <step>A</step>
          <alter>-1</alter>
          <octave>4</octave>
        </pitch>
        <duration>6</duration>
        <voice>1</voice>
        <type>half</type>
        <dot/>
        <accidental>flat</accidental>
        <stem default-y="-53">down</stem>
      </note>
    </measure>
    <!--=======================================================-->
    <measure number="8" width="93">
      <note default-x="33">
        <pitch>
          <step>A</step>
          <alter>-1</alter>
          <octave>4</octave>
        </pitch>
        <duration>6</duration>
        <voice>1</voice>
        <type>half</type>
        <dot/>
        <accidental>flat</accidental>
        <stem default-y="-53">down</stem>
      </note>
    </measure>
    <!--=======================================================-->
    <measure number="9" width="126">
      <note default-x="63">
        <pitch>
          <step>G</step>
          <octave>4</octave>
        </pitch>
        <duration>6</duration>
        <voice>1</voice>
        <type>half</type>
        <dot/>
        <stem default-y="5">up</stem>
        <notations>
          <slur number="1" placement="below" type="start"/>
        </notations>
      </note>
    </measure>
    <!--=======================================================-->
    <measure number="10" width="93">
      <note default-x="32">
        <pitch>
          <step>A</step>
          <alter>-1</alter>
          <octave>4</octave>
        </pitch>
        <duration>6</duration>
        <voice>1</voice>
        <type>half</type>
        <dot/>
        <accidental>flat</accidental>
        <stem default-y="-53">down</stem>
        <notations>
          <slur number="1" type="stop"/>
        </notations>
      </note>
      <barline location="right">
        <bar-style>light-heavy</bar-style>
      </barline>
    </measure>
  </part>
  <!--=========================================================-->
  <part id="P5">
    <measure number="1" width="203">
      <print>
        <measure-numbering>none</measure-numbering>
      </print>
      <attributes>
        <divisions>2</divisions>
        <key>
          <fifths>0</fifths>
          <mode>major</mode>
        </key>
        <time>
          <beats>6</beats>
          <beat-type>8</beat-type>
        </time>
        <clef>
          <sign>C</sign>
          <line>4</line>
        </clef>
      </attributes>
      <note default-x="130">
        <rest/>
        <duration>2</duration>
        <voice>1</voice>
        <type>quarter</type>
      </note>
      <note default-x="154">
        <rest/>
        <duration>1</duration>
        <voice>1</voice>
        <type>eighth</type>
      </note>
      <direction placement="below">
        <direction-type>
          <dynamics default-x="163" default-y="-74" halign="center">
            <p/>
          </dynamics>
        </direction-type>
        <sound dynamics="54"/>
      </direction>
      <note default-x="166">
        <pitch>
          <step>G</step>
          <octave>3</octave>
        </pitch>
        <duration>1</duration>
        <voice>1</voice>
        <type>eighth</type>
        <stem default-y="-59">down</stem>
        <beam number="1">begin</beam>
        <notations>
          <slur number="1" placement="above" type="start"/>
          <articulations>
            <staccato default-x="3" default-y="-17" placement="above"/>
          </articulations>
        </notations>
      </note>
      <direction placement="below">
        <direction-type>
          <words default-y="-73" font-style="italic" relative-x="-6">tranquillo</words>
        </direction-type>
      </direction>
      <note default-x="179">
        <rest/>
        <duration>1</duration>
        <voice>1</voice>
        <type>eighth</type>
      </note>
      <note default-x="189">
        <pitch>
          <step>B</step>
          <octave>3</octave>
        </pitch>
        <duration>1</duration>
        <voice>1</voice>
        <type>eighth</type>
        <stem default-y="-55">down</stem>
        <beam number="1">end</beam>
        <notations>
          <articulations>
            <staccato default-x="3" default-y="-7" placement="above"/>
          </articulations>
        </notations>
      </note>
    </measure>
    <!--=======================================================-->
    <measure number="2" width="86">
      <note default-x="13">
        <pitch>
          <step>C</step>
          <octave>4</octave>
        </pitch>
        <duration>1</duration>
        <voice>1</voice>
        <type>eighth</type>
        <stem default-y="-44.5">down</stem>
        <beam number="1">begin</beam>
        <notations>
          <articulations>
            <staccato default-x="4" default-y="3" placement="above"/>
          </articulations>
        </notations>
      </note>
      <note default-x="26">
        <rest>
          <display-step>D</display-step>
          <display-octave>4</display-octave>
        </rest>
        <duration>1</duration>
        <voice>1</voice>
        <type>eighth</type>
      </note>
      <note default-x="36">
        <pitch>
          <step>D</step>
          <octave>4</octave>
        </pitch>
        <duration>1</duration>
        <voice>1</voice>
        <type>eighth</type>
        <stem default-y="-40">down</stem>
        <beam number="1">end</beam>
        <notations>
          <articulations>
            <staccato default-x="3" default-y="5" placement="above"/>
          </articulations>
        </notations>
      </note>
      <note default-x="47">
        <pitch>
          <step>E</step>
          <octave>4</octave>
        </pitch>
        <duration>1</duration>
        <voice>1</voice>
        <type>eighth</type>
        <stem default-y="-35">down</stem>
        <beam number="1">begin</beam>
        <notations>
          <articulations>
            <staccato default-x="3" default-y="10" placement="above"/>
          </articulations>
        </notations>
      </note>
      <note default-x="59">
        <rest/>
        <duration>1</duration>
        <voice>1</voice>
        <type>eighth</type>
      </note>
      <note default-x="72">
        <pitch>
          <step>A</step>
          <octave>4</octave>
        </pitch>
        <duration>1</duration>
        <voice>1</voice>
        <type>eighth</type>
        <stem default-y="-32.5">down</stem>
        <beam number="1">end</beam>
        <notations>
          <articulations>
            <staccato default-x="3" default-y="25" placement="above"/>
          </articulations>
        </notations>
      </note>
    </measure>
    <!--=======================================================-->
    <measure number="3" width="91">
      <note default-x="15">
        <pitch>
          <step>A</step>
          <octave>4</octave>
        </pitch>
        <duration>1</duration>
        <voice>1</voice>
        <type>eighth</type>
        <stem default-y="-20">down</stem>
        <beam number="1">begin</beam>
        <notations>
          <articulations>
            <staccato default-x="3" default-y="25" placement="above"/>
          </articulations>
        </notations>
      </note>
      <note default-x="27">
        <rest/>
        <duration>1</duration>
        <voice>1</voice>
        <type>eighth</type>
      </note>
      <note default-x="39">
        <pitch>
          <step>G</step>
          <octave>4</octave>
        </pitch>
        <duration>1</duration>
        <voice>1</voice>
        <type>eighth</type>
        <stem default-y="-22">down</stem>
        <beam number="1">end</beam>
        <notations>
          <slur number="1" type="stop"/>
          <articulations>
            <staccato default-x="3" default-y="20" placement="above"/>
          </articulations>
        </notations>
      </note>
      <note default-x="51">
        <rest/>
        <duration>2</duration>
        <voice>1</voice>
        <type>quarter</type>
      </note>
      <note default-x="78">
        <rest/>
        <duration>1</duration>
        <voice>1</voice>
        <type>eighth</type>
      </note>
    </measure>
    <!--=======================================================-->
    <measure number="4" width="95">
      <note>
        <rest measure="yes"/>
        <duration>6</duration>
        <voice>1</voice>
      </note>
    </measure>
    <!--=======================================================-->
    <measure number="5" width="96">
      <note>
        <rest measure="yes"/>
        <duration>6</duration>
        <voice>1</voice>
      </note>
    </measure>
    <!--=======================================================-->
    <measure number="6" width="93">
      <note>
        <rest measure="yes"/>
        <duration>6</duration>
        <voice>1</voice>
      </note>
    </measure>
    <!--=======================================================-->
    <measure number="7" width="93">
      <note>
        <rest measure="yes"/>
        <duration>6</duration>
        <voice>1</voice>
      </note>
    </measure>
    <!--=======================================================-->
    <measure number="8" width="93">
      <note>
        <rest measure="yes"/>
        <duration>6</duration>
        <voice>1</voice>
      </note>
    </measure>
    <!--=======================================================-->
    <measure number="9" width="126">
      <note>
        <rest measure="yes"/>
        <duration>6</duration>
        <voice>1</voice>
      </note>
    </measure>
    <!--=======================================================-->
    <measure number="10" width="93">
      <note>
        <rest measure="yes"/>
        <duration>6</duration>
        <voice>1</voice>
      </note>
      <barline location="right">
        <bar-style>light-heavy</bar-style>
      </barline>
    </measure>
  </part>
  <!--=========================================================-->
  <part id="P6">
    <measure number="1" width="203">
      <print>
        <measure-numbering>system</measure-numbering>
      </print>
      <attributes>
        <divisions>2</divisions>
        <key>
          <fifths>0</fifths>
          <mode>major</mode>
        </key>
        <time>
          <beats>2</beats>
          <beat-type>4</beat-type>
        </time>
        <clef>
          <sign>percussion</sign>
        </clef>
      </attributes>
      <note>
        <rest measure="yes"/>
        <duration>4</duration>
        <voice>1</voice>
      </note>
    </measure>
    <!--=======================================================-->
    <measure number="2" width="86">
      <note>
        <rest measure="yes"/>
        <duration>4</duration>
        <voice>1</voice>
      </note>
    </measure>
    <!--=======================================================-->
    <measure number="3" width="91">
      <note>
        <rest measure="yes"/>
        <duration>4</duration>
        <voice>1</voice>
      </note>
    </measure>
    <!--=======================================================-->
    <measure number="4" width="95">
      <note>
        <rest measure="yes"/>
        <duration>4</duration>
        <voice>1</voice>
      </note>
    </measure>
    <!--=======================================================-->
    <measure number="5" width="96">
      <direction placement="below">
        <direction-type>
          <dynamics default-x="21" default-y="-73" halign="center">
            <pp/>
          </dynamics>
        </direction-type>
        <sound dynamics="40"/>
      </direction>
      <note default-x="21">
        <unpitched>
          <display-step>G</display-step>
          <display-octave>5</display-octave>
        </unpitched>
        <duration>2</duration>
        <instrument id="P6-X9"/>
        <voice>1</voice>
        <type>quarter</type>
        <stem default-y="-30">down</stem>
      </note>
      <note default-x="63">
        <rest/>
        <duration>2</duration>
        <voice>1</voice>
        <type>quarter</type>
      </note>
    </measure>
    <!--=======================================================-->
    <measure number="6" width="93">
      <note>
        <rest measure="yes"/>
        <duration>4</duration>
        <voice>1</voice>
      </note>
    </measure>
    <!--=======================================================-->
    <measure number="7" width="93">
      <note>
        <rest measure="yes"/>
        <duration>4</duration>
        <voice>1</voice>
      </note>
    </measure>
    <!--=======================================================-->
    <measure number="8" width="93">
      <note>
        <rest measure="yes"/>
        <duration>4</duration>
        <voice>1</voice>
      </note>
    </measure>
    <!--=======================================================-->
    <measure number="9" width="126">
      <note>
        <rest measure="yes"/>
        <duration>4</duration>
        <voice>1</voice>
      </note>
    </measure>
    <!--=======================================================-->
    <measure number="10" width="93">
      <note>
        <rest measure="yes"/>
        <duration>4</duration>
        <voice>1</voice>
      </note>
      <barline location="right">
        <bar-style>light-heavy</bar-style>
      </barline>
    </measure>
  </part>
  <!--=========================================================-->
  <part id="P7">
    <measure number="1" width="203">
      <print>
        <measure-numbering>system</measure-numbering>
      </print>
      <attributes>
        <divisions>2</divisions>
        <key>
          <fifths>0</fifths>
          <mode>major</mode>
        </key>
        <time>
          <beats>2</beats>
          <beat-type>4</beat-type>
        </time>
        <clef>
          <sign>G</sign>
          <line>2</line>
        </clef>
      </attributes>
      <note>
        <rest measure="yes"/>
        <duration>4</duration>
        <voice>1</voice>
      </note>
    </measure>
    <!--=======================================================-->
    <measure number="2" width="86">
      <note>
        <rest measure="yes"/>
        <duration>4</duration>
        <voice>1</voice>
      </note>
    </measure>
    <!--=======================================================-->
    <measure number="3" width="91">
      <note>
        <rest measure="yes"/>
        <duration>4</duration>
        <voice>1</voice>
      </note>
    </measure>
    <!--=======================================================-->
    <measure number="4" width="95">
      <note>
        <rest measure="yes"/>
        <duration>4</duration>
        <voice>1</voice>
      </note>
    </measure>
    <!--=======================================================-->
    <measure number="5" width="96">
      <attributes>
        <clef>
          <sign>F</sign>
          <line>4</line>
        </clef>
      </attributes>
      <direction placement="below">
        <direction-type>
          <dynamics default-x="17" default-y="-70" halign="center">
            <pp/>
          </dynamics>
        </direction-type>
        <sound dynamics="40"/>
      </direction>
      <note default-x="21">
        <pitch>
          <step>G</step>
          <octave>3</octave>
        </pitch>
        <duration>2</duration>
        <voice>1</voice>
        <type>quarter</type>
        <stem default-y="-40">down</stem>
      </note>
      <note default-x="21">
        <chord/>
        <pitch>
          <step>B</step>
          <octave>3</octave>
        </pitch>
        <duration>2</duration>
        <voice>1</voice>
        <type>quarter</type>
        <stem>down</stem>
        <notations/>
      </note>
      <note default-x="21">
        <chord/>
        <pitch>
          <step>D</step>
          <octave>4</octave>
        </pitch>
        <duration>2</duration>
        <voice>1</voice>
        <type>quarter</type>
        <stem>down</stem>
      </note>
      <note default-x="63">
        <rest/>
        <duration>2</duration>
        <voice>1</voice>
        <type>quarter</type>
      </note>
    </measure>
    <!--=======================================================-->
    <measure number="6" width="93">
      <note>
        <rest measure="yes"/>
        <duration>4</duration>
        <voice>1</voice>
      </note>
    </measure>
    <!--=======================================================-->
    <measure number="7" width="93">
      <note>
        <rest measure="yes"/>
        <duration>4</duration>
        <voice>1</voice>
      </note>
    </measure>
    <!--=======================================================-->
    <measure number="8" width="93">
      <note>
        <rest measure="yes"/>
        <duration>4</duration>
        <voice>1</voice>
      </note>
    </measure>
    <!--=======================================================-->
    <measure number="9" width="126">
      <note>
        <rest measure="yes"/>
        <duration>4</duration>
        <voice>1</voice>
      </note>
    </measure>
    <!--=======================================================-->
    <measure number="10" width="93">
      <attributes>
        <clef>
          <sign>G</sign>
          <line>2</line>
        </clef>
      </attributes>
      <direction placement="below">
        <direction-type>
          <dynamics default-x="20" default-y="-73" halign="center">
            <p/>
          </dynamics>
        </direction-type>
        <sound dynamics="54"/>
      </direction>
      <note default-x="20">
        <pitch>
          <step>G</step>
          <octave>4</octave>
        </pitch>
        <duration>2</duration>
        <voice>1</voice>
        <type>quarter</type>
        <stem default-y="5">up</stem>
      </note>
      <note default-x="51">
        <rest/>
        <duration>2</duration>
        <voice>1</voice>
        <type>quarter</type>
      </note>
      <barline location="right">
        <bar-style>light-heavy</bar-style>
      </barline>
    </measure>
  </part>
  <!--=========================================================-->
  <part id="P8">
    <measure number="1" width="203">
      <print>
        <measure-numbering>none</measure-numbering>
      </print>
      <attributes>
        <divisions>2</divisions>
        <key>
          <fifths>0</fifths>
          <mode>major</mode>
        </key>
        <time>
          <beats>2</beats>
          <beat-type>4</beat-type>
        </time>
        <clef>
          <sign>F</sign>
          <line>4</line>
        </clef>
      </attributes>
      <note>
        <rest measure="yes"/>
        <duration>4</duration>
        <voice>1</voice>
      </note>
    </measure>
    <!--=======================================================-->
    <measure number="2" width="86">
      <note>
        <rest measure="yes"/>
        <duration>4</duration>
        <voice>1</voice>
      </note>
    </measure>
    <!--=======================================================-->
    <measure number="3" width="91">
      <note>
        <rest measure="yes"/>
        <duration>4</duration>
        <voice>1</voice>
      </note>
    </measure>
    <!--=======================================================-->
    <measure number="4" width="95">
      <note>
        <rest measure="yes"/>
        <duration>4</duration>
        <voice>1</voice>
      </note>
    </measure>
    <!--=======================================================-->
    <measure number="5" width="96">
      <note default-x="21">
        <pitch>
          <step>G</step>
          <octave>2</octave>
        </pitch>
        <duration>2</duration>
        <voice>1</voice>
        <type>quarter</type>
        <stem default-y="18.5">up</stem>
        <notations/>
      </note>
      <note default-x="21">
        <chord/>
        <pitch>
          <step>D</step>
          <octave>3</octave>
        </pitch>
        <duration>2</duration>
        <voice>1</voice>
        <type>quarter</type>
        <stem>up</stem>
      </note>
      <note default-x="21">
        <chord/>
        <pitch>
          <step>F</step>
          <octave>3</octave>
        </pitch>
        <duration>2</duration>
        <voice>1</voice>
        <type>quarter</type>
        <stem>up</stem>
      </note>
      <note default-x="63">
        <rest/>
        <duration>2</duration>
        <voice>1</voice>
        <type>quarter</type>
      </note>
    </measure>
    <!--=======================================================-->
    <measure number="6" width="93">
      <note>
        <rest measure="yes"/>
        <duration>4</duration>
        <voice>1</voice>
      </note>
    </measure>
    <!--=======================================================-->
    <measure number="7" width="93">
      <note>
        <rest measure="yes"/>
        <duration>4</duration>
        <voice>1</voice>
      </note>
    </measure>
    <!--=======================================================-->
    <measure number="8" width="93">
      <note>
        <rest measure="yes"/>
        <duration>4</duration>
        <voice>1</voice>
      </note>
    </measure>
    <!--=======================================================-->
    <measure number="9" width="126">
      <note>
        <rest measure="yes"/>
        <duration>4</duration>
        <voice>1</voice>
      </note>
    </measure>
    <!--=======================================================-->
    <measure number="10" width="93">
      <note>
        <rest measure="yes"/>
        <duration>4</duration>
        <voice>1</voice>
      </note>
      <barline location="right">
        <bar-style>light-heavy</bar-style>
      </barline>
    </measure>
  </part>
  <!--=========================================================-->
  <part id="P9">
    <measure number="1" width="203">
      <print>
        <measure-numbering>system</measure-numbering>
      </print>
      <attributes>
        <divisions>8</divisions>
        <key>
          <fifths>0</fifths>
          <mode>major</mode>
        </key>
        <time>
          <beats>6</beats>
          <beat-type>8</beat-type>
        </time>
        <clef>
          <sign>G</sign>
          <line>2</line>
        </clef>
      </attributes>
      <direction placement="below">
        <direction-type>
          <dynamics default-x="125" default-y="-70" halign="center">
            <pp/>
          </dynamics>
        </direction-type>
        <sound dynamics="40"/>
      </direction>
      <note default-x="129">
        <pitch>
          <step>G</step>
          <octave>4</octave>
        </pitch>
        <duration>4</duration>
        <voice>1</voice>
        <type>eighth</type>
        <stem default-y="5">up</stem>
        <beam number="1">begin</beam>
      </note>
      <note default-x="142">
        <pitch>
          <step>G</step>
          <octave>4</octave>
        </pitch>
        <duration>4</duration>
        <voice>1</voice>
        <type>eighth</type>
        <stem default-y="5">up</stem>
        <beam number="1">continue</beam>
      </note>
      <note default-x="154">
        <pitch>
          <step>G</step>
          <octave>4</octave>
        </pitch>
        <duration>4</duration>
        <voice>1</voice>
        <type>eighth</type>
        <stem default-y="5">up</stem>
        <beam number="1">end</beam>
      </note>
      <note default-x="166">
        <pitch>
          <step>G</step>
          <octave>4</octave>
        </pitch>
        <duration>12</duration>
        <voice>1</voice>
        <type>quarter</type>
        <dot/>
        <stem default-y="5.5">up</stem>
      </note>
    </measure>
    <!--=======================================================-->
    <measure number="2" width="86">
      <note default-x="13">
        <pitch>
          <step>G</step>
          <octave>4</octave>
        </pitch>
        <duration>24</duration>
        <voice>1</voice>
        <type>half</type>
        <dot/>
        <stem default-y="5.5">up</stem>
        <notations>
          <ornaments>
            <tremolo default-x="7" default-y="-16" type="single">1</tremolo>
          </ornaments>
        </notations>
      </note>
    </measure>
    <!--=======================================================-->
    <measure number="3" width="91">
      <note default-x="15">
        <pitch>
          <step>G</step>
          <octave>4</octave>
        </pitch>
        <duration>24</duration>
        <voice>1</voice>
        <type>half</type>
        <dot/>
        <stem default-y="5.5">up</stem>
        <notations>
          <ornaments>
            <tremolo default-x="6" default-y="-16" type="single">1</tremolo>
          </ornaments>
        </notations>
      </note>
    </measure>
    <!--=======================================================-->
    <measure number="4" width="95">
      <note default-x="21">
        <pitch>
          <step>G</step>
          <octave>4</octave>
        </pitch>
        <duration>24</duration>
        <voice>1</voice>
        <type>half</type>
        <dot/>
        <stem default-y="5.5">up</stem>
        <notations>
          <ornaments>
            <tremolo default-x="6" default-y="-16" type="single">1</tremolo>
          </ornaments>
        </notations>
      </note>
    </measure>
    <!--=======================================================-->
    <measure number="5" width="96">
      <note default-x="21">
        <pitch>
          <step>G</step>
          <octave>4</octave>
        </pitch>
        <duration>4</duration>
        <voice>1</voice>
        <type>eighth</type>
        <stem default-y="5.5">up</stem>
      </note>
      <note default-x="38">
        <rest/>
        <duration>4</duration>
        <voice>1</voice>
        <type>eighth</type>
      </note>
      <note default-x="50">
        <rest/>
        <duration>4</duration>
        <voice>1</voice>
        <type>eighth</type>
      </note>
      <note default-x="63">
        <rest/>
        <duration>8</duration>
        <voice>1</voice>
        <type>quarter</type>
      </note>
      <note default-x="85">
        <rest/>
        <duration>4</duration>
        <voice>1</voice>
        <type>eighth</type>
      </note>
    </measure>
    <!--=======================================================-->
    <measure number="6" width="93">
      <note>
        <rest measure="yes"/>
        <duration>24</duration>
        <voice>1</voice>
      </note>
    </measure>
    <!--=======================================================-->
    <measure number="7" width="93">
      <note>
        <rest measure="yes"/>
        <duration>24</duration>
        <voice>1</voice>
      </note>
    </measure>
    <!--=======================================================-->
    <measure number="8" width="93">
      <note>
        <rest measure="yes"/>
        <duration>24</duration>
        <voice>1</voice>
      </note>
    </measure>
    <!--=======================================================-->
    <measure number="9" width="126">
      <attributes>
        <time>
          <beats>2</beats>
          <beat-type>4</beat-type>
        </time>
      </attributes>
      <note default-x="63">
        <rest/>
        <duration>8</duration>
        <voice>1</voice>
        <type>quarter</type>
      </note>
      <note default-x="74">
        <pitch>
          <step>G</step>
          <octave>4</octave>
        </pitch>
        <duration>2</duration>
        <voice>1</voice>
        <type>16th</type>
        <stem default-y="5">up</stem>
        <beam number="1">begin</beam>
        <beam number="2">begin</beam>
        <notations>
          <articulations>
            <staccato default-x="3" default-y="-47" placement="below"/>
          </articulations>
        </notations>
      </note>
      <note default-x="87">
        <pitch>
          <step>G</step>
          <octave>4</octave>
        </pitch>
        <duration>2</duration>
        <voice>1</voice>
        <type>16th</type>
        <stem default-y="5">up</stem>
        <beam number="1">continue</beam>
        <beam number="2">continue</beam>
        <notations>
          <articulations>
            <staccato default-x="3" default-y="-47" placement="below"/>
          </articulations>
        </notations>
      </note>
      <direction placement="below">
        <direction-type>
          <dynamics default-x="71" default-y="-64" halign="center">
            <p/>
          </dynamics>
        </direction-type>
        <offset>-4</offset>
        <sound dynamics="54"/>
      </direction>
      <note default-x="100">
        <pitch>
          <step>G</step>
          <octave>4</octave>
        </pitch>
        <duration>2</duration>
        <voice>1</voice>
        <type>16th</type>
        <stem default-y="5">up</stem>
        <beam number="1">continue</beam>
        <beam number="2">continue</beam>
        <notations>
          <articulations>
            <staccato default-x="3" default-y="-47" placement="below"/>
          </articulations>
        </notations>
      </note>
      <note default-x="113">
        <pitch>
          <step>G</step>
          <octave>4</octave>
        </pitch>
        <duration>2</duration>
        <voice>1</voice>
        <type>16th</type>
        <stem default-y="5">up</stem>
        <beam number="1">end</beam>
        <beam number="2">end</beam>
        <notations>
          <articulations>
            <staccato default-x="3" default-y="-47" placement="below"/>
          </articulations>
        </notations>
      </note>
    </measure>
    <!--=======================================================-->
    <measure number="10" width="93">
      <note default-x="20">
        <pitch>
          <step>G</step>
          <octave>4</octave>
        </pitch>
        <duration>4</duration>
        <voice>1</voice>
        <type>eighth</type>
        <stem default-y="5.5">up</stem>
      </note>
      <note default-x="38">
        <rest/>
        <duration>8</duration>
        <voice>1</voice>
        <type>quarter</type>
      </note>
      <barline location="right">
        <bar-style>light-heavy</bar-style>
      </barline>
    </measure>
  </part>
  <!--=========================================================-->
  <part id="P10">
    <measure number="1" width="203">
      <print>
        <measure-numbering>none</measure-numbering>
      </print>
      <attributes>
        <divisions>2</divisions>
        <key>
          <fifths>0</fifths>
          <mode>major</mode>
        </key>
        <time>
          <beats>6</beats>
          <beat-type>8</beat-type>
        </time>
        <clef>
          <sign>G</sign>
          <line>2</line>
        </clef>
      </attributes>
      <direction placement="below">
        <direction-type>
          <dynamics default-x="125" default-y="-72" halign="center">
            <pp/>
          </dynamics>
        </direction-type>
        <sound dynamics="40"/>
      </direction>
      <note default-x="129">
        <pitch>
          <step>E</step>
          <octave>4</octave>
        </pitch>
        <duration>1</duration>
        <voice>1</voice>
        <type>eighth</type>
        <stem default-y="-5">up</stem>
        <beam number="1">begin</beam>
      </note>
      <note default-x="142">
        <pitch>
          <step>E</step>
          <octave>4</octave>
        </pitch>
        <duration>1</duration>
        <voice>1</voice>
        <type>eighth</type>
        <stem default-y="-5">up</stem>
        <beam number="1">continue</beam>
      </note>
      <note default-x="154">
        <pitch>
          <step>E</step>
          <octave>4</octave>
        </pitch>
        <duration>1</duration>
        <voice>1</voice>
        <type>eighth</type>
        <stem default-y="-5">up</stem>
        <beam number="1">end</beam>
      </note>
      <note default-x="166">
        <pitch>
          <step>E</step>
          <octave>4</octave>
        </pitch>
        <duration>3</duration>
        <voice>1</voice>
        <type>quarter</type>
        <dot/>
        <stem default-y="-4">up</stem>
      </note>
    </measure>
    <!--=======================================================-->
    <measure number="2" width="86">
      <note default-x="13">
        <pitch>
          <step>E</step>
          <octave>4</octave>
        </pitch>
        <duration>6</duration>
        <voice>1</voice>
        <type>half</type>
        <dot/>
        <stem default-y="-4">up</stem>
        <notations>
          <ornaments>
            <tremolo default-x="7" default-y="-26" type="single">1</tremolo>
          </ornaments>
        </notations>
      </note>
    </measure>
    <!--=======================================================-->
    <measure number="3" width="91">
      <note default-x="15">
        <pitch>
          <step>E</step>
          <octave>4</octave>
        </pitch>
        <duration>6</duration>
        <voice>1</voice>
        <type>half</type>
        <dot/>
        <stem default-y="-4">up</stem>
        <notations>
          <ornaments>
            <tremolo default-x="6" default-y="-26" type="single">1</tremolo>
          </ornaments>
        </notations>
      </note>
    </measure>
    <!--=======================================================-->
    <measure number="4" width="95">
      <note default-x="21">
        <pitch>
          <step>E</step>
          <octave>4</octave>
        </pitch>
        <duration>6</duration>
        <voice>1</voice>
        <type>half</type>
        <dot/>
        <stem default-y="-4">up</stem>
        <notations>
          <ornaments>
            <tremolo default-x="6" default-y="-26" type="single">1</tremolo>
          </ornaments>
        </notations>
      </note>
    </measure>
    <!--=======================================================-->
    <measure number="5" width="96">
      <note default-x="21">
        <pitch>
          <step>F</step>
          <octave>4</octave>
        </pitch>
        <duration>1</duration>
        <voice>1</voice>
        <type>eighth</type>
        <stem default-y="0">up</stem>
      </note>
      <note default-x="38">
        <rest/>
        <duration>1</duration>
        <voice>1</voice>
        <type>eighth</type>
      </note>
      <note default-x="50">
        <rest/>
        <duration>1</duration>
        <voice>1</voice>
        <type>eighth</type>
      </note>
      <note default-x="63">
        <rest/>
        <duration>2</duration>
        <voice>1</voice>
        <type>quarter</type>
      </note>
      <note default-x="85">
        <rest/>
        <duration>1</duration>
        <voice>1</voice>
        <type>eighth</type>
      </note>
    </measure>
    <!--=======================================================-->
    <measure number="6" width="93">
      <note>
        <rest measure="yes"/>
        <duration>6</duration>
        <voice>1</voice>
      </note>
    </measure>
    <!--=======================================================-->
    <measure number="7" width="93">
      <note>
        <rest measure="yes"/>
        <duration>6</duration>
        <voice>1</voice>
      </note>
    </measure>
    <!--=======================================================-->
    <measure number="8" width="93">
      <note>
        <rest measure="yes"/>
        <duration>6</duration>
        <voice>1</voice>
      </note>
    </measure>
    <!--=======================================================-->
    <measure number="9" width="126">
      <note>
        <rest measure="yes"/>
        <duration>6</duration>
        <voice>1</voice>
      </note>
    </measure>
    <!--=======================================================-->
    <measure number="10" width="93">
      <note>
        <rest measure="yes"/>
        <duration>6</duration>
        <voice>1</voice>
      </note>
      <barline location="right">
        <bar-style>light-heavy</bar-style>
      </barline>
    </measure>
  </part>
  <!--=========================================================-->
  <part id="P11">
    <measure number="1" width="203">
      <print>
        <measure-numbering>none</measure-numbering>
      </print>
      <attributes>
        <divisions>2</divisions>
        <key>
          <fifths>0</fifths>
          <mode>major</mode>
        </key>
        <time>
          <beats>6</beats>
          <beat-type>8</beat-type>
        </time>
        <clef>
          <sign>C</sign>
          <line>3</line>
        </clef>
      </attributes>
      <note>
        <rest measure="yes"/>
        <duration>6</duration>
        <voice>1</voice>
      </note>
    </measure>
    <!--=======================================================-->
    <measure number="2" width="86">
      <note>
        <rest measure="yes"/>
        <duration>6</duration>
        <voice>1</voice>
      </note>
    </measure>
    <!--=======================================================-->
    <measure number="3" width="91">
      <note>
        <rest measure="yes"/>
        <duration>6</duration>
        <voice>1</voice>
      </note>
    </measure>
    <!--=======================================================-->
    <measure number="4" width="95">
      <note>
        <rest measure="yes"/>
        <duration>6</duration>
        <voice>1</voice>
      </note>
    </measure>
    <!--=======================================================-->
    <measure number="5" width="96">
      <direction placement="above">
        <direction-type>
          <words default-y="9" relative-x="-4">pizz.</words>
        </direction-type>
      </direction>
      <direction placement="below">
        <direction-type>
          <dynamics default-x="21" default-y="-73" halign="center">
            <pp/>
          </dynamics>
        </direction-type>
        <sound dynamics="40"/>
      </direction>
      <note default-x="21">
        <pitch>
          <step>G</step>
          <octave>3</octave>
        </pitch>
        <duration>2</duration>
        <voice>1</voice>
        <type>quarter</type>
        <stem default-y="0">up</stem>
      </note>
      <note default-x="50">
        <rest/>
        <duration>1</duration>
        <voice>1</voice>
        <type>eighth</type>
      </note>
      <note default-x="63">
        <rest/>
        <duration>3</duration>
        <voice>1</voice>
        <type>quarter</type>
        <dot/>
      </note>
    </measure>
    <!--=======================================================-->
    <measure number="6" width="93">
      <note>
        <rest measure="yes"/>
        <duration>6</duration>
        <voice>1</voice>
      </note>
    </measure>
    <!--=======================================================-->
    <measure number="7" width="93">
      <note>
        <rest measure="yes"/>
        <duration>6</duration>
        <voice>1</voice>
      </note>
    </measure>
    <!--=======================================================-->
    <measure number="8" width="93">
      <note>
        <rest measure="yes"/>
        <duration>6</duration>
        <voice>1</voice>
      </note>
    </measure>
    <!--=======================================================-->
    <measure number="9" width="126">
      <note>
        <rest measure="yes"/>
        <duration>6</duration>
        <voice>1</voice>
      </note>
    </measure>
    <!--=======================================================-->
    <measure number="10" width="93">
      <note>
        <rest measure="yes"/>
        <duration>6</duration>
        <voice>1</voice>
      </note>
      <barline location="right">
        <bar-style>light-heavy</bar-style>
      </barline>
    </measure>
  </part>
  <!--=========================================================-->
  <part id="P12">
    <measure number="1" width="203">
      <print>
        <measure-numbering>none</measure-numbering>
      </print>
      <attributes>
        <divisions>2</divisions>
        <key>
          <fifths>0</fifths>
          <mode>major</mode>
        </key>
        <time>
          <beats>6</beats>
          <beat-type>8</beat-type>
        </time>
        <clef>
          <sign>F</sign>
          <line>4</line>
        </clef>
      </attributes>
      <note>
        <rest measure="yes"/>
        <duration>6</duration>
        <voice>1</voice>
      </note>
    </measure>
    <!--=======================================================-->
    <measure number="2" width="86">
      <note>
        <rest measure="yes"/>
        <duration>6</duration>
        <voice>1</voice>
      </note>
    </measure>
    <!--=======================================================-->
    <measure number="3" width="91">
      <note>
        <rest measure="yes"/>
        <duration>6</duration>
        <voice>1</voice>
      </note>
    </measure>
    <!--=======================================================-->
    <measure number="4" width="95">
      <note>
        <rest measure="yes"/>
        <duration>6</duration>
        <voice>1</voice>
      </note>
    </measure>
    <!--=======================================================-->
    <measure number="5" width="96">
      <direction placement="above">
        <direction-type>
          <words default-y="9" relative-x="-4">pizz.</words>
        </direction-type>
      </direction>
      <direction placement="below">
        <direction-type>
          <dynamics default-x="21" default-y="-75" halign="center">
            <pp/>
          </dynamics>
        </direction-type>
        <sound dynamics="40"/>
      </direction>
      <note default-x="21">
        <pitch>
          <step>G</step>
          <octave>2</octave>
        </pitch>
        <duration>2</duration>
        <voice>1</voice>
        <type>quarter</type>
        <stem default-y="-4">up</stem>
      </note>
      <note default-x="50">
        <rest/>
        <duration>1</duration>
        <voice>1</voice>
        <type>eighth</type>
      </note>
      <note default-x="63">
        <rest/>
        <duration>3</duration>
        <voice>1</voice>
        <type>quarter</type>
        <dot/>
      </note>
    </measure>
    <!--=======================================================-->
    <measure number="6" width="93">
      <note>
        <rest measure="yes"/>
        <duration>6</duration>
        <voice>1</voice>
      </note>
    </measure>
    <!--=======================================================-->
    <measure number="7" width="93">
      <note>
        <rest measure="yes"/>
        <duration>6</duration>
        <voice>1</voice>
      </note>
    </measure>
    <!--=======================================================-->
    <measure number="8" width="93">
      <note>
        <rest measure="yes"/>
        <duration>6</duration>
        <voice>1</voice>
      </note>
    </measure>
    <!--=======================================================-->
    <measure number="9" width="126">
      <note>
        <rest measure="yes"/>
        <duration>6</duration>
        <voice>1</voice>
      </note>
    </measure>
    <!--=======================================================-->
    <measure number="10" width="93">
      <note>
        <rest measure="yes"/>
        <duration>6</duration>
        <voice>1</voice>
      </note>
      <barline location="right">
        <bar-style>light-heavy</bar-style>
      </barline>
    </measure>
  </part>
  <!--=========================================================-->
  <part id="P13">
    <measure number="1" width="203">
      <print>
        <measure-numbering>none</measure-numbering>
      </print>
      <attributes>
        <divisions>2</divisions>
        <key>
          <fifths>0</fifths>
          <mode>major</mode>
        </key>
        <time>
          <beats>6</beats>
          <beat-type>8</beat-type>
        </time>
        <clef>
          <sign>F</sign>
          <line>4</line>
        </clef>
        <transpose>
          <diatonic>0</diatonic>
          <chromatic>0</chromatic>
          <octave-change>-1</octave-change>
        </transpose>
      </attributes>
      <note>
        <rest measure="yes"/>
        <duration>6</duration>
        <voice>1</voice>
      </note>
    </measure>
    <!--=======================================================-->
    <measure number="2" width="86">
      <note>
        <rest measure="yes"/>
        <duration>6</duration>
        <voice>1</voice>
      </note>
    </measure>
    <!--=======================================================-->
    <measure number="3" width="91">
      <note>
        <rest measure="yes"/>
        <duration>6</duration>
        <voice>1</voice>
      </note>
    </measure>
    <!--=======================================================-->
    <measure number="4" width="95">
      <note>
        <rest measure="yes"/>
        <duration>6</duration>
        <voice>1</voice>
      </note>
    </measure>
    <!--=======================================================-->
    <measure number="5" width="96">
      <direction placement="above">
        <direction-type>
          <words default-y="9" relative-x="-4">pizz.</words>
        </direction-type>
      </direction>
      <direction placement="below">
        <direction-type>
          <dynamics default-x="21" default-y="-75" halign="center">
            <pp/>
          </dynamics>
        </direction-type>
        <sound dynamics="40"/>
      </direction>
      <note default-x="21">
        <pitch>
          <step>G</step>
          <octave>2</octave>
        </pitch>
        <duration>2</duration>
        <voice>1</voice>
        <type>quarter</type>
        <stem default-y="-5">up</stem>
      </note>
      <note default-x="50">
        <rest/>
        <duration>1</duration>
        <voice>1</voice>
        <type>eighth</type>
      </note>
      <note default-x="63">
        <rest/>
        <duration>3</duration>
        <voice>1</voice>
        <type>quarter</type>
        <dot/>
      </note>
    </measure>
    <!--=======================================================-->
    <measure number="6" width="93">
      <note>
        <rest measure="yes"/>
        <duration>6</duration>
        <voice>1</voice>
      </note>
    </measure>
    <!--=======================================================-->
    <measure number="7" width="93">
      <note>
        <rest measure="yes"/>
        <duration>6</duration>
        <voice>1</voice>
      </note>
    </measure>
    <!--=======================================================-->
    <measure number="8" width="93">
      <note>
        <rest measure="yes"/>
        <duration>6</duration>
        <voice>1</voice>
      </note>
    </measure>
    <!--=======================================================-->
    <measure number="9" width="126">
      <note>
        <rest measure="yes"/>
        <duration>6</duration>
        <voice>1</voice>
      </note>
    </measure>
    <!--=======================================================-->
    <measure number="10" width="93">
      <note>
        <rest measure="yes"/>
        <duration>6</duration>
        <voice>1</voice>
      </note>
      <barline location="right">
        <bar-style>light-heavy</bar-style>
      </barline>
    </measure>
  </part>
  <!--=========================================================-->
</score-partwise>
