<?xml version="1.0" encoding="UTF-8" standalone="no"?>
<!DOCTYPE score-partwise PUBLIC "-//Recordare//DTD MusicXML 3.0 Partwise//EN" "http://www.musicxml.org/dtds/partwise.dtd">
<score-partwise version="3.0">
  <movement-title>App. No. 49</movement-title>
  <identification>
    <rights>©</rights>
    <encoding>
      <software>Finale 2014 for Windows</software>
      <software>Dolet Light for Finale 2014</software>
      <encoding-date>2015-05-22</encoding-date>
      <supports attribute="new-system" element="print" type="yes" value="yes"/>
      <supports attribute="new-page" element="print" type="yes" value="yes"/>
      <supports element="accidental" type="yes"/>
      <supports element="beam" type="yes"/>
      <supports element="stem" type="yes"/>
    </encoding>
  </identification>
  <defaults>
    <scaling>
      <millimeters>7.2319</millimeters>
      <tenths>40</tenths>
    </scaling>
    <page-layout>
      <page-height>1545</page-height>
      <page-width>1194</page-width>
      <page-margins type="both">
        <left-margin>140</left-margin>
        <right-margin>70</right-margin>
        <top-margin>70</top-margin>
        <bottom-margin>70</bottom-margin>
      </page-margins>
    </page-layout>
    <system-layout>
      <system-margins>
        <left-margin>0</left-margin>
        <right-margin>0</right-margin>
      </system-margins>
      <system-distance>121</system-distance>
      <top-system-distance>70</top-system-distance>
    </system-layout>
    <staff-layout>
      <staff-distance>80</staff-distance>
    </staff-layout>
    <appearance>
      <line-width type="stem">0.7487</line-width>
      <line-width type="beam">5</line-width>
      <line-width type="staff">0.7487</line-width>
      <line-width type="light barline">0.7487</line-width>
      <line-width type="heavy barline">5</line-width>
      <line-width type="leger">0.7487</line-width>
      <line-width type="ending">0.7487</line-width>
      <line-width type="wedge">0.7487</line-width>
      <line-width type="enclosure">0.7487</line-width>
      <line-width type="tuplet bracket">0.7487</line-width>
      <note-size type="grace">60</note-size>
      <note-size type="cue">60</note-size>
      <distance type="hyphen">120</distance>
      <distance type="beam">8</distance>
    </appearance>
    <music-font font-family="Maestro,engraved" font-size="20.5"/>
    <word-font font-family="Times New Roman" font-size="10.25"/>
  </defaults>
  <credit page="1">
    <credit-type>title</credit-type>
    <credit-words default-x="632" default-y="1475" font-size="24" justify="center" valign="top">App. No. 49</credit-words>
  </credit>
  <credit page="1">
    <credit-type>rights</credit-type>
    <credit-words default-x="632" default-y="53" font-size="10" justify="center" valign="bottom">©</credit-words>
  </credit>
  <credit page="1">
    <credit-words default-x="140" default-y="1478" font-size="12" valign="top">Score</credit-words>
  </credit>
  <credit page="1">
    <credit-type>subtitle</credit-type>
    <credit-words default-x="632" default-y="1411" font-size="18" justify="center" valign="top">Coerne</credit-words>
  </credit>
  <credit page="1">
    <credit-words default-x="147" default-y="309" font-size="12" valign="top">Transcriber's Note: Due to playback issues in Finale 2014, the sf markings in the English horn part and the "rinf" markings in the viola parts have been changed to fortes.</credit-words>
  </credit>
  <part-list>
    <part-group number="1" type="start">
      <group-symbol default-x="-5">bracket</group-symbol>
      <group-barline>yes</group-barline>
    </part-group>
    <score-part id="P1">
      <part-name>Oboe</part-name>
      <part-abbreviation>Ob.</part-abbreviation>
      <score-instrument id="P1-I1">
        <instrument-name>ARIA Player</instrument-name>
        <instrument-sound>wind.reed.oboe</instrument-sound>
        <virtual-instrument>
          <virtual-library>Garritan Instruments for Finale</virtual-library>
          <virtual-name>001. Woodwinds/2. Oboes and Eng. Horn/Oboe Plr1</virtual-name>
        </virtual-instrument>
      </score-instrument>
      <midi-device>ARIA Player</midi-device>
      <midi-instrument id="P1-I1">
        <midi-channel>1</midi-channel>
        <midi-program>1</midi-program>
        <volume>80</volume>
        <pan>-70</pan>
      </midi-instrument>
    </score-part>
    <score-part id="P2">
      <part-name>English Horn</part-name>
      <part-abbreviation>E. Hn.</part-abbreviation>
      <score-instrument id="P2-I2">
        <instrument-name>ARIA Player</instrument-name>
        <instrument-sound>wind.reed.english-horn</instrument-sound>
        <virtual-instrument>
          <virtual-library>Garritan Instruments for Finale</virtual-library>
          <virtual-name>001. Woodwinds/2. Oboes and Eng. Horn/English Horn Solo</virtual-name>
        </virtual-instrument>
      </score-instrument>
      <midi-device>ARIA Player</midi-device>
      <midi-instrument id="P2-I2">
        <midi-channel>2</midi-channel>
        <midi-program>1</midi-program>
        <volume>80</volume>
        <pan>4</pan>
      </midi-instrument>
    </score-part>
    <part-group number="1" type="stop"/>
    <part-group number="1" type="start">
      <group-symbol default-x="-5">bracket</group-symbol>
      <group-barline>yes</group-barline>
    </part-group>
    <score-part id="P3">
      <part-name>Viola I</part-name>
      <part-abbreviation>Vla. I</part-abbreviation>
      <score-instrument id="P3-I3">
        <instrument-name>ARIA Player</instrument-name>
        <instrument-sound>strings.viola</instrument-sound>
        <ensemble/>
        <virtual-instrument>
          <virtual-library>Garritan Instruments for Finale</virtual-library>
          <virtual-name>008. Section Strings/2. Violas/Violas KS</virtual-name>
        </virtual-instrument>
      </score-instrument>
      <midi-device>ARIA Player</midi-device>
      <midi-instrument id="P3-I3">
        <midi-channel>3</midi-channel>
        <midi-program>1</midi-program>
        <volume>80</volume>
        <pan>80</pan>
      </midi-instrument>
    </score-part>
    <score-part id="P4">
      <part-name>Viola II</part-name>
      <part-abbreviation>Vla. II</part-abbreviation>
      <score-instrument id="P4-I4">
        <instrument-name>ARIA Player</instrument-name>
        <instrument-sound>strings.viola</instrument-sound>
        <ensemble/>
        <virtual-instrument>
          <virtual-library>Garritan Instruments for Finale</virtual-library>
          <virtual-name>008. Section Strings/2. Violas/Violas KS</virtual-name>
        </virtual-instrument>
      </score-instrument>
      <midi-device>ARIA Player</midi-device>
      <midi-instrument id="P4-I4">
        <midi-channel>4</midi-channel>
        <midi-program>1</midi-program>
        <volume>80</volume>
        <pan>0</pan>
      </midi-instrument>
    </score-part>
    <part-group number="1" type="stop"/>
  </part-list>
  <!--=========================================================-->
  <part id="P1">
    <measure number="1" width="180">
      <print>
        <system-layout>
          <system-margins>
            <left-margin>70</left-margin>
            <right-margin>0</right-margin>
          </system-margins>
          <top-system-distance>177</top-system-distance>
        </system-layout>
        <measure-numbering>system</measure-numbering>
      </print>
      <attributes>
        <divisions>8</divisions>
        <key>
          <fifths>-1</fifths>
          <mode>major</mode>
        </key>
        <time>
          <beats>6</beats>
          <beat-type>8</beat-type>
        </time>
        <clef>
          <sign>G</sign>
          <line>2</line>
        </clef>
      </attributes>
      <direction directive="yes" placement="above">
        <direction-type>
          <words default-y="40" font-size="12" font-style="italic" font-weight="bold">Adagio.</words>
        </direction-type>
        <sound tempo="42"/>
      </direction>
      <note>
        <rest measure="yes"/>
        <duration>24</duration>
        <voice>1</voice>
      </note>
    </measure>
    <!--=======================================================-->
    <measure number="2" width="80">
      <note default-x="32">
        <rest/>
        <duration>24</duration>
        <voice>1</voice>
        <type>whole</type>
        <notations>
          <fermata default-x="-4" default-y="5" type="upright"/>
        </notations>
      </note>
      <direction placement="above">
        <direction-type>
          <words default-y="23" font-style="italic" relative-x="13">(lontano.)</words>
        </direction-type>
        <offset>-12</offset>
      </direction>
    </measure>
    <!--=======================================================-->
    <measure number="3" width="88">
      <note default-x="15">
        <rest/>
        <duration>4</duration>
        <voice>1</voice>
        <type>eighth</type>
      </note>
      <direction placement="below">
        <direction-type>
          <dynamics default-x="27" default-y="-59" halign="center">
            <p/>
          </dynamics>
        </direction-type>
        <sound dynamics="54"/>
      </direction>
      <note default-x="27">
        <pitch>
          <step>F</step>
          <octave>5</octave>
        </pitch>
        <duration>8</duration>
        <voice>1</voice>
        <type>quarter</type>
        <stem default-y="-35">down</stem>
      </note>
      <note default-x="41">
        <pitch>
          <step>G</step>
          <octave>5</octave>
        </pitch>
        <duration>2</duration>
        <voice>1</voice>
        <type>16th</type>
        <stem default-y="-30.5">down</stem>
      </note>
      <note default-x="55">
        <rest/>
        <duration>2</duration>
        <voice>1</voice>
        <type>16th</type>
      </note>
      <note default-x="71">
        <pitch>
          <step>C</step>
          <octave>6</octave>
        </pitch>
        <duration>8</duration>
        <voice>1</voice>
        <type>quarter</type>
        <stem default-y="-20">down</stem>
        <notations>
          <articulations>
            <accent default-x="-1" default-y="29" placement="above"/>
          </articulations>
        </notations>
      </note>
    </measure>
    <!--=======================================================-->
    <measure number="4" width="83">
      <note default-x="16">
        <pitch>
          <step>A</step>
          <octave>5</octave>
        </pitch>
        <duration>2</duration>
        <voice>1</voice>
        <type>16th</type>
        <stem default-y="-25">down</stem>
      </note>
      <note default-x="32">
        <rest/>
        <duration>2</duration>
        <voice>1</voice>
        <type>16th</type>
      </note>
      <note default-x="47">
        <pitch>
          <step>C</step>
          <octave>5</octave>
        </pitch>
        <duration>8</duration>
        <voice>1</voice>
        <type>quarter</type>
        <stem default-y="-50.5">down</stem>
        <notations>
          <articulations>
            <accent default-x="-2" default-y="3" placement="above"/>
          </articulations>
        </notations>
      </note>
      <note default-x="62">
        <pitch>
          <step>D</step>
          <octave>5</octave>
        </pitch>
        <duration>12</duration>
        <voice>1</voice>
        <type>quarter</type>
        <dot/>
        <stem default-y="-45">down</stem>
        <notations>
          <articulations>
            <accent default-x="-1" default-y="3" placement="above"/>
          </articulations>
          <fermata default-x="-4" default-y="19" type="upright"/>
        </notations>
      </note>
    </measure>
    <!--=======================================================-->
    <measure number="5" width="86">
      <note>
        <rest measure="yes"/>
        <duration>24</duration>
        <voice>1</voice>
      </note>
    </measure>
    <!--=======================================================-->
    <measure number="6" width="87">
      <note>
        <rest measure="yes"/>
        <duration>24</duration>
        <voice>1</voice>
      </note>
    </measure>
    <!--=======================================================-->
    <measure number="7" width="101">
      <note default-x="14">
        <rest/>
        <duration>4</duration>
        <voice>1</voice>
        <type>eighth</type>
      </note>
      <note default-x="24">
        <pitch>
          <step>F</step>
          <octave>5</octave>
        </pitch>
        <duration>8</duration>
        <voice>1</voice>
        <type>quarter</type>
        <stem default-y="-35">down</stem>
      </note>
      <note default-x="40">
        <pitch>
          <step>G</step>
          <octave>5</octave>
        </pitch>
        <duration>2</duration>
        <voice>1</voice>
        <type>16th</type>
        <stem default-y="-30.5">down</stem>
      </note>
      <note default-x="52">
        <rest/>
        <duration>2</duration>
        <voice>1</voice>
        <type>16th</type>
      </note>
      <note default-x="66">
        <pitch>
          <step>C</step>
          <octave>6</octave>
        </pitch>
        <duration>8</duration>
        <voice>1</voice>
        <type>quarter</type>
        <stem default-y="-20">down</stem>
        <notations>
          <articulations>
            <accent default-x="-1" default-y="29" placement="above"/>
          </articulations>
        </notations>
      </note>
    </measure>
    <!--=======================================================-->
    <measure number="8" width="121">
      <note default-x="21">
        <pitch>
          <step>A</step>
          <alter>-1</alter>
          <octave>5</octave>
        </pitch>
        <duration>2</duration>
        <voice>1</voice>
        <type>16th</type>
        <accidental>flat</accidental>
        <stem default-y="-25">down</stem>
      </note>
      <note default-x="34">
        <rest/>
        <duration>2</duration>
        <voice>1</voice>
        <type>16th</type>
      </note>
      <note default-x="46">
        <pitch>
          <step>C</step>
          <octave>5</octave>
        </pitch>
        <duration>8</duration>
        <voice>1</voice>
        <type>quarter</type>
        <stem default-y="-50.5">down</stem>
        <notations>
          <articulations>
            <accent default-x="-1" default-y="3" placement="above"/>
          </articulations>
        </notations>
      </note>
      <note default-x="89">
        <pitch>
          <step>G</step>
          <octave>5</octave>
        </pitch>
        <duration>12</duration>
        <voice>1</voice>
        <type>quarter</type>
        <dot/>
        <stem default-y="-30.5">down</stem>
        <notations>
          <articulations>
            <accent default-x="-1" default-y="15" placement="above"/>
          </articulations>
        </notations>
      </note>
    </measure>
    <!--=======================================================-->
    <measure number="9" width="86">
      <note default-x="35">
        <rest/>
        <duration>24</duration>
        <voice>1</voice>
        <type>whole</type>
        <notations>
          <fermata default-x="-4" default-y="5" type="upright"/>
        </notations>
      </note>
    </measure>
    <!--=======================================================-->
    <measure number="10" width="162">
      <print new-system="yes">
        <system-layout>
          <system-distance>114</system-distance>
        </system-layout>
      </print>
      <note>
        <rest measure="yes"/>
        <duration>24</duration>
        <voice>1</voice>
      </note>
    </measure>
    <!--=======================================================-->
    <measure number="11" width="150">
      <note>
        <rest measure="yes"/>
        <duration>24</duration>
        <voice>1</voice>
      </note>
    </measure>
    <!--=======================================================-->
    <measure number="12" width="114">
      <note default-x="15">
        <rest/>
        <duration>4</duration>
        <voice>1</voice>
        <type>eighth</type>
      </note>
      <note default-x="30">
        <pitch>
          <step>B</step>
          <alter>-1</alter>
          <octave>5</octave>
        </pitch>
        <duration>8</duration>
        <voice>1</voice>
        <type>quarter</type>
        <stem default-y="-20.5">down</stem>
        <notations>
          <articulations>
            <accent default-x="-1" default-y="25" placement="above"/>
          </articulations>
        </notations>
      </note>
      <note default-x="61">
        <rest/>
        <duration>4</duration>
        <voice>1</voice>
        <type>eighth</type>
      </note>
      <note default-x="80">
        <pitch>
          <step>A</step>
          <octave>5</octave>
        </pitch>
        <duration>8</duration>
        <voice>1</voice>
        <type>quarter</type>
        <stem default-y="-25.5">down</stem>
        <notations>
          <slur number="1" placement="above" type="start"/>
          <articulations>
            <accent default-x="-1" default-y="20" placement="above"/>
          </articulations>
        </notations>
      </note>
    </measure>
    <!--=======================================================-->
    <measure number="13" width="158">
      <note default-x="15">
        <pitch>
          <step>G</step>
          <octave>5</octave>
        </pitch>
        <duration>4</duration>
        <voice>1</voice>
        <type>eighth</type>
        <stem default-y="-30">down</stem>
        <beam number="1">begin</beam>
        <notations>
          <slur number="1" type="stop"/>
        </notations>
      </note>
      <note default-x="33">
        <pitch>
          <step>G</step>
          <octave>5</octave>
        </pitch>
        <duration>4</duration>
        <voice>1</voice>
        <type>eighth</type>
        <stem default-y="-30">down</stem>
        <beam number="1">continue</beam>
      </note>
      <note default-x="55">
        <pitch>
          <step>G</step>
          <alter>1</alter>
          <octave>5</octave>
        </pitch>
        <duration>4</duration>
        <voice>1</voice>
        <type>eighth</type>
        <accidental>sharp</accidental>
        <stem default-y="-30">down</stem>
        <beam number="1">end</beam>
        <notations>
          <slur number="1" placement="above" type="start"/>
        </notations>
      </note>
      <note default-x="70">
        <pitch>
          <step>A</step>
          <octave>5</octave>
        </pitch>
        <duration>2</duration>
        <voice>1</voice>
        <type>16th</type>
        <stem default-y="-37.5">down</stem>
        <beam number="1">begin</beam>
        <beam number="2">begin</beam>
      </note>
      <note default-x="86">
        <pitch>
          <step>G</step>
          <alter>1</alter>
          <octave>5</octave>
        </pitch>
        <duration>1</duration>
        <voice>1</voice>
        <type>32nd</type>
        <stem default-y="-37.5">down</stem>
        <beam number="1">continue</beam>
        <beam number="2">continue</beam>
        <beam number="3">begin</beam>
      </note>
      <note default-x="101">
        <pitch>
          <step>A</step>
          <octave>5</octave>
        </pitch>
        <duration>1</duration>
        <voice>1</voice>
        <type>32nd</type>
        <stem default-y="-37.5">down</stem>
        <beam number="1">end</beam>
        <beam number="2">end</beam>
        <beam number="3">end</beam>
      </note>
      <note default-x="125">
        <pitch>
          <step>B</step>
          <octave>5</octave>
        </pitch>
        <duration>4</duration>
        <voice>1</voice>
        <type>eighth</type>
        <accidental>natural</accidental>
        <stem default-y="-25">down</stem>
        <beam number="1">begin</beam>
        <notations>
          <slur number="2" placement="above" type="start"/>
          <articulations>
            <accent default-x="-1" default-y="25" placement="above"/>
          </articulations>
        </notations>
      </note>
      <note default-x="142">
        <pitch>
          <step>C</step>
          <octave>6</octave>
        </pitch>
        <duration>4</duration>
        <voice>1</voice>
        <type>eighth</type>
        <stem default-y="-22.5">down</stem>
        <beam number="1">end</beam>
        <notations>
          <slur number="1" type="stop"/>
          <slur number="2" type="stop"/>
        </notations>
      </note>
    </measure>
    <!--=======================================================-->
    <measure number="14" width="112">
      <note>
        <rest measure="yes"/>
        <duration>24</duration>
        <voice>1</voice>
      </note>
    </measure>
    <!--=======================================================-->
    <measure number="15" width="176">
      <note>
        <rest measure="yes"/>
        <duration>24</duration>
        <voice>1</voice>
      </note>
    </measure>
    <!--=======================================================-->
    <measure number="16" width="112">
      <note default-x="23">
        <rest/>
        <duration>4</duration>
        <voice>1</voice>
        <type>eighth</type>
      </note>
      <direction placement="below">
        <direction-type>
          <dynamics default-x="45" default-y="-73" halign="center">
            <sf/>
          </dynamics>
        </direction-type>
      </direction>
      <direction placement="below">
        <direction-type>
          <wedge default-y="-67" relative-x="13" spread="15" type="diminuendo"/>
        </direction-type>
      </direction>
      <note default-x="45">
        <pitch>
          <step>D</step>
          <alter>-1</alter>
          <octave>6</octave>
        </pitch>
        <duration>8</duration>
        <voice>1</voice>
        <type>quarter</type>
        <accidental>flat</accidental>
        <stem default-y="-20.5">down</stem>
      </note>
      <direction>
        <direction-type>
          <wedge relative-x="13" spread="0" type="stop"/>
        </direction-type>
      </direction>
      <note default-x="63">
        <rest/>
        <duration>4</duration>
        <voice>1</voice>
        <type>eighth</type>
      </note>
      <direction placement="below">
        <direction-type>
          <dynamics default-x="84" default-y="-73" halign="center">
            <sf/>
          </dynamics>
        </direction-type>
      </direction>
      <direction placement="below">
        <direction-type>
          <wedge default-y="-70" relative-x="14" spread="15" type="diminuendo"/>
        </direction-type>
      </direction>
      <note default-x="85">
        <pitch>
          <step>A</step>
          <alter>-1</alter>
          <octave>5</octave>
        </pitch>
        <duration>8</duration>
        <voice>1</voice>
        <type>quarter</type>
        <accidental>flat</accidental>
        <stem default-y="-25.5">down</stem>
      </note>
      <direction>
        <direction-type>
          <wedge spread="0" type="stop"/>
        </direction-type>
      </direction>
      <barline location="right">
        <bar-style>light-heavy</bar-style>
      </barline>
    </measure>
  </part>
  <!--=========================================================-->
  <part id="P2">
    <measure number="1" width="180">
      <print>
        <measure-numbering>none</measure-numbering>
      </print>
      <attributes>
        <divisions>8</divisions>
        <key>
          <fifths>0</fifths>
          <mode>major</mode>
        </key>
        <time>
          <beats>6</beats>
          <beat-type>8</beat-type>
        </time>
        <clef>
          <sign>G</sign>
          <line>2</line>
        </clef>
        <transpose>
          <diatonic>-4</diatonic>
          <chromatic>-7</chromatic>
        </transpose>
      </attributes>
      <direction placement="above">
        <direction-type>
          <words default-y="7" relative-x="-15">Solo.</words>
        </direction-type>
      </direction>
      <note default-x="108">
        <rest/>
        <duration>4</duration>
        <voice>1</voice>
        <type>eighth</type>
      </note>
      <direction placement="below">
        <direction-type>
          <dynamics default-x="120" default-y="-66" halign="center">
            <p/>
          </dynamics>
        </direction-type>
        <sound dynamics="54"/>
      </direction>
      <note default-x="121">
        <pitch>
          <step>C</step>
          <octave>5</octave>
        </pitch>
        <duration>8</duration>
        <voice>1</voice>
        <type>quarter</type>
        <stem default-y="-50.5">down</stem>
      </note>
      <note default-x="136">
        <pitch>
          <step>D</step>
          <octave>5</octave>
        </pitch>
        <duration>2</duration>
        <voice>1</voice>
        <type>16th</type>
        <stem default-y="-45">down</stem>
      </note>
      <note default-x="150">
        <rest/>
        <duration>2</duration>
        <voice>1</voice>
        <type>16th</type>
      </note>
      <note default-x="165">
        <pitch>
          <step>G</step>
          <octave>5</octave>
        </pitch>
        <duration>8</duration>
        <voice>1</voice>
        <type>quarter</type>
        <stem default-y="-30.5">down</stem>
        <notations>
          <articulations>
            <accent default-x="-1" default-y="15" placement="above"/>
          </articulations>
        </notations>
      </note>
    </measure>
    <!--=======================================================-->
    <measure number="2" width="80">
      <note default-x="15">
        <pitch>
          <step>E</step>
          <octave>5</octave>
        </pitch>
        <duration>2</duration>
        <voice>1</voice>
        <type>16th</type>
        <stem default-y="-40">down</stem>
      </note>
      <note default-x="29">
        <rest/>
        <duration>2</duration>
        <voice>1</voice>
        <type>16th</type>
      </note>
      <note default-x="44">
        <pitch>
          <step>G</step>
          <octave>4</octave>
        </pitch>
        <duration>8</duration>
        <voice>1</voice>
        <type>quarter</type>
        <stem default-y="6">up</stem>
        <notations>
          <articulations>
            <accent default-x="-1" default-y="-55" placement="below"/>
          </articulations>
        </notations>
      </note>
      <note default-x="59">
        <pitch>
          <step>A</step>
          <octave>4</octave>
        </pitch>
        <duration>12</duration>
        <voice>1</voice>
        <type>quarter</type>
        <dot/>
        <stem default-y="10.5">up</stem>
        <notations>
          <articulations>
            <accent default-x="-1" default-y="-55" placement="below"/>
          </articulations>
          <fermata default-x="-2" default-y="17" type="upright"/>
        </notations>
      </note>
    </measure>
    <!--=======================================================-->
    <measure number="3" width="88">
      <note>
        <rest measure="yes"/>
        <duration>24</duration>
        <voice>1</voice>
      </note>
    </measure>
    <!--=======================================================-->
    <measure number="4" width="83">
      <note default-x="33">
        <rest/>
        <duration>24</duration>
        <voice>1</voice>
        <type>whole</type>
        <notations>
          <fermata default-x="-4" default-y="5" type="upright"/>
        </notations>
      </note>
    </measure>
    <!--=======================================================-->
    <measure number="5" width="86">
      <note default-x="13">
        <rest/>
        <duration>4</duration>
        <voice>1</voice>
        <type>eighth</type>
      </note>
      <note default-x="26">
        <pitch>
          <step>C</step>
          <octave>5</octave>
        </pitch>
        <duration>8</duration>
        <voice>1</voice>
        <type>quarter</type>
        <stem default-y="-50.5">down</stem>
      </note>
      <note default-x="41">
        <pitch>
          <step>D</step>
          <octave>5</octave>
        </pitch>
        <duration>2</duration>
        <voice>1</voice>
        <type>16th</type>
        <stem default-y="-45">down</stem>
      </note>
      <note default-x="55">
        <rest/>
        <duration>2</duration>
        <voice>1</voice>
        <type>16th</type>
      </note>
      <note default-x="70">
        <pitch>
          <step>G</step>
          <octave>5</octave>
        </pitch>
        <duration>8</duration>
        <voice>1</voice>
        <type>quarter</type>
        <stem default-y="-30.5">down</stem>
        <notations>
          <articulations>
            <accent default-x="-1" default-y="15" placement="above"/>
          </articulations>
        </notations>
      </note>
    </measure>
    <!--=======================================================-->
    <measure number="6" width="87">
      <note default-x="23">
        <pitch>
          <step>E</step>
          <alter>-1</alter>
          <octave>5</octave>
        </pitch>
        <duration>2</duration>
        <voice>1</voice>
        <type>16th</type>
        <accidental>flat</accidental>
        <stem default-y="-40">down</stem>
      </note>
      <note default-x="36">
        <rest/>
        <duration>2</duration>
        <voice>1</voice>
        <type>16th</type>
      </note>
      <note default-x="51">
        <pitch>
          <step>G</step>
          <octave>4</octave>
        </pitch>
        <duration>8</duration>
        <voice>1</voice>
        <type>quarter</type>
        <stem default-y="6">up</stem>
        <notations>
          <articulations>
            <accent default-x="-1" default-y="-55" placement="below"/>
          </articulations>
        </notations>
      </note>
      <note default-x="65">
        <pitch>
          <step>D</step>
          <octave>5</octave>
        </pitch>
        <duration>12</duration>
        <voice>1</voice>
        <type>quarter</type>
        <dot/>
        <stem default-y="-45">down</stem>
        <notations>
          <slur number="1" placement="above" type="start"/>
          <articulations>
            <accent default-x="-1" default-y="3" placement="above"/>
          </articulations>
          <fermata default-x="-4" default-y="19" type="upright"/>
        </notations>
      </note>
    </measure>
    <!--=======================================================-->
    <measure number="7" width="101">
      <note default-x="14">
        <pitch>
          <step>C</step>
          <octave>5</octave>
        </pitch>
        <duration>12</duration>
        <tie type="start"/>
        <voice>1</voice>
        <type>quarter</type>
        <dot/>
        <stem default-y="-50.5">down</stem>
        <notations>
          <tied type="start"/>
        </notations>
      </note>
      <note default-x="40">
        <pitch>
          <step>C</step>
          <octave>5</octave>
        </pitch>
        <duration>4</duration>
        <tie type="stop"/>
        <voice>1</voice>
        <type>eighth</type>
        <stem default-y="-60">down</stem>
        <beam number="1">begin</beam>
        <notations>
          <tied type="stop"/>
        </notations>
      </note>
      <note default-x="66">
        <pitch>
          <step>B</step>
          <octave>4</octave>
        </pitch>
        <duration>4</duration>
        <voice>1</voice>
        <type>eighth</type>
        <stem default-y="-60">down</stem>
        <beam number="1">continue</beam>
      </note>
      <note default-x="77">
        <pitch>
          <step>A</step>
          <octave>4</octave>
        </pitch>
        <duration>2</duration>
        <voice>1</voice>
        <type>16th</type>
        <stem default-y="-60">down</stem>
        <beam number="1">continue</beam>
        <beam number="2">begin</beam>
      </note>
      <note default-x="89">
        <pitch>
          <step>B</step>
          <octave>4</octave>
        </pitch>
        <duration>2</duration>
        <voice>1</voice>
        <type>16th</type>
        <stem default-y="-60">down</stem>
        <beam number="1">end</beam>
        <beam number="2">end</beam>
        <notations>
          <slur number="1" type="stop"/>
        </notations>
      </note>
    </measure>
    <!--=======================================================-->
    <measure number="8" width="121">
      <note default-x="21">
        <pitch>
          <step>C</step>
          <octave>5</octave>
        </pitch>
        <duration>4</duration>
        <voice>1</voice>
        <type>eighth</type>
        <stem default-y="-55">down</stem>
        <beam number="1">begin</beam>
      </note>
      <note default-x="46">
        <pitch>
          <step>B</step>
          <octave>4</octave>
        </pitch>
        <duration>2</duration>
        <voice>1</voice>
        <type>16th</type>
        <stem default-y="-55">down</stem>
        <beam number="1">continue</beam>
        <beam number="2">begin</beam>
      </note>
      <note default-x="57">
        <pitch>
          <step>D</step>
          <octave>5</octave>
        </pitch>
        <duration>2</duration>
        <voice>1</voice>
        <type>16th</type>
        <stem default-y="-55">down</stem>
        <beam number="1">continue</beam>
        <beam number="2">end</beam>
      </note>
      <note default-x="68">
        <pitch>
          <step>G</step>
          <octave>5</octave>
        </pitch>
        <duration>4</duration>
        <tie type="start"/>
        <voice>1</voice>
        <type>eighth</type>
        <stem default-y="-55">down</stem>
        <beam number="1">end</beam>
        <notations>
          <tied type="start"/>
        </notations>
      </note>
      <note default-x="89">
        <pitch>
          <step>G</step>
          <octave>5</octave>
        </pitch>
        <duration>4</duration>
        <tie type="stop"/>
        <voice>1</voice>
        <type>eighth</type>
        <stem default-y="-30.5">down</stem>
        <notations>
          <tied type="stop"/>
        </notations>
      </note>
      <note default-x="109">
        <pitch>
          <step>F</step>
          <alter>1</alter>
          <octave>5</octave>
        </pitch>
        <duration>8</duration>
        <voice>1</voice>
        <type>quarter</type>
        <accidental>sharp</accidental>
        <stem default-y="-35">down</stem>
      </note>
    </measure>
    <!--=======================================================-->
    <measure number="9" width="86">
      <note default-x="13">
        <grace slash="yes"/>
        <pitch>
          <step>A</step>
          <octave>5</octave>
        </pitch>
        <voice>1</voice>
        <type>eighth</type>
        <stem default-y="31.5">up</stem>
        <notations>
          <slur number="1" placement="below" type="start"/>
        </notations>
      </note>
      <note default-x="35">
        <pitch>
          <step>G</step>
          <octave>5</octave>
        </pitch>
        <duration>12</duration>
        <voice>1</voice>
        <type>quarter</type>
        <dot/>
        <stem default-y="-30.5">down</stem>
        <notations>
          <slur number="1" type="stop"/>
          <articulations>
            <accent default-x="-1" default-y="15" placement="above"/>
          </articulations>
          <fermata default-x="-7" default-y="29" type="upright"/>
        </notations>
      </note>
      <note default-x="59">
        <rest/>
        <duration>8</duration>
        <voice>1</voice>
        <type>quarter</type>
      </note>
      <note default-x="72">
        <rest/>
        <duration>4</duration>
        <voice>1</voice>
        <type>eighth</type>
      </note>
    </measure>
    <!--=======================================================-->
    <measure number="10" width="162">
      <print new-system="yes"/>
      <note default-x="77">
        <rest/>
        <duration>4</duration>
        <voice>1</voice>
        <type>eighth</type>
      </note>
      <note default-x="104">
        <pitch>
          <step>F</step>
          <octave>5</octave>
        </pitch>
        <duration>8</duration>
        <voice>1</voice>
        <type>quarter</type>
        <accidental>natural</accidental>
        <stem default-y="-35">down</stem>
        <notations>
          <articulations>
            <accent default-x="-1" default-y="10" placement="above"/>
          </articulations>
        </notations>
      </note>
      <note default-x="124">
        <rest/>
        <duration>4</duration>
        <voice>1</voice>
        <type>eighth</type>
      </note>
      <note default-x="141">
        <pitch>
          <step>E</step>
          <octave>5</octave>
        </pitch>
        <duration>8</duration>
        <voice>1</voice>
        <type>quarter</type>
        <stem default-y="-40.5">down</stem>
        <notations>
          <slur number="1" placement="above" type="start"/>
          <articulations>
            <accent default-x="-1" default-y="5" placement="above"/>
          </articulations>
        </notations>
      </note>
    </measure>
    <!--=======================================================-->
    <measure number="11" width="150">
      <note default-x="16">
        <pitch>
          <step>D</step>
          <octave>5</octave>
        </pitch>
        <duration>4</duration>
        <voice>1</voice>
        <type>eighth</type>
        <stem default-y="-45">down</stem>
        <beam number="1">begin</beam>
        <notations>
          <slur number="1" type="stop"/>
        </notations>
      </note>
      <note default-x="30">
        <pitch>
          <step>D</step>
          <octave>5</octave>
        </pitch>
        <duration>4</duration>
        <voice>1</voice>
        <type>eighth</type>
        <stem default-y="-45">down</stem>
        <beam number="1">continue</beam>
      </note>
      <note default-x="54">
        <pitch>
          <step>D</step>
          <alter>1</alter>
          <octave>5</octave>
        </pitch>
        <duration>4</duration>
        <voice>1</voice>
        <type>eighth</type>
        <accidental>sharp</accidental>
        <stem default-y="-45">down</stem>
        <beam number="1">end</beam>
        <notations>
          <slur number="1" placement="above" type="start"/>
        </notations>
      </note>
      <note default-x="68">
        <pitch>
          <step>E</step>
          <octave>5</octave>
        </pitch>
        <duration>2</duration>
        <voice>1</voice>
        <type>16th</type>
        <stem default-y="-52">down</stem>
        <beam number="1">begin</beam>
        <beam number="2">begin</beam>
      </note>
      <note default-x="82">
        <pitch>
          <step>D</step>
          <alter>1</alter>
          <octave>5</octave>
        </pitch>
        <duration>1</duration>
        <voice>1</voice>
        <type>32nd</type>
        <stem default-y="-52">down</stem>
        <beam number="1">continue</beam>
        <beam number="2">continue</beam>
        <beam number="3">begin</beam>
      </note>
      <note default-x="96">
        <pitch>
          <step>E</step>
          <octave>5</octave>
        </pitch>
        <duration>1</duration>
        <voice>1</voice>
        <type>32nd</type>
        <stem default-y="-52">down</stem>
        <beam number="1">end</beam>
        <beam number="2">end</beam>
        <beam number="3">end</beam>
      </note>
      <note default-x="121">
        <pitch>
          <step>F</step>
          <alter>1</alter>
          <octave>5</octave>
        </pitch>
        <duration>4</duration>
        <voice>1</voice>
        <type>eighth</type>
        <accidental>sharp</accidental>
        <stem default-y="-35">down</stem>
        <beam number="1">begin</beam>
        <notations>
          <slur number="2" placement="above" type="start"/>
          <articulations>
            <accent default-x="-1" default-y="10" placement="above"/>
          </articulations>
        </notations>
      </note>
      <note default-x="135">
        <pitch>
          <step>G</step>
          <octave>5</octave>
        </pitch>
        <duration>4</duration>
        <voice>1</voice>
        <type>eighth</type>
        <stem default-y="-32">down</stem>
        <beam number="1">end</beam>
        <notations>
          <slur number="1" type="stop"/>
          <slur number="2" type="stop"/>
        </notations>
      </note>
    </measure>
    <!--=======================================================-->
    <measure number="12" width="114">
      <note default-x="15">
        <rest/>
        <duration>4</duration>
        <voice>1</voice>
        <type>eighth</type>
      </note>
      <note default-x="30">
        <rest/>
        <duration>4</duration>
        <voice>1</voice>
        <type>eighth</type>
      </note>
      <note default-x="43">
        <pitch>
          <step>D</step>
          <octave>6</octave>
        </pitch>
        <duration>4</duration>
        <voice>1</voice>
        <type>eighth</type>
        <stem default-y="-20.5">down</stem>
      </note>
      <note default-x="61">
        <pitch>
          <step>D</step>
          <octave>6</octave>
        </pitch>
        <duration>4</duration>
        <voice>1</voice>
        <type>eighth</type>
        <stem default-y="-20">down</stem>
        <beam number="1">begin</beam>
        <notations>
          <slur number="1" placement="above" type="start"/>
        </notations>
      </note>
      <note default-x="80">
        <pitch>
          <step>C</step>
          <octave>6</octave>
        </pitch>
        <duration>4</duration>
        <voice>1</voice>
        <type>eighth</type>
        <stem default-y="-20">down</stem>
        <beam number="1">continue</beam>
        <notations>
          <slur number="1" type="stop"/>
        </notations>
      </note>
      <note default-x="98">
        <pitch>
          <step>C</step>
          <octave>6</octave>
        </pitch>
        <duration>4</duration>
        <voice>1</voice>
        <type>eighth</type>
        <stem default-y="-20">down</stem>
        <beam number="1">end</beam>
      </note>
    </measure>
    <!--=======================================================-->
    <measure number="13" width="158">
      <note default-x="15">
        <pitch>
          <step>C</step>
          <octave>6</octave>
        </pitch>
        <duration>4</duration>
        <voice>1</voice>
        <type>eighth</type>
        <stem default-y="-20.5">down</stem>
        <notations>
          <slur number="1" placement="above" type="start"/>
        </notations>
      </note>
      <note default-x="33">
        <pitch>
          <step>B</step>
          <octave>5</octave>
        </pitch>
        <duration>8</duration>
        <voice>1</voice>
        <type>quarter</type>
        <stem default-y="-20.5">down</stem>
        <notations>
          <slur number="1" type="stop"/>
        </notations>
      </note>
      <note default-x="71">
        <rest/>
        <duration>8</duration>
        <voice>1</voice>
        <type>quarter</type>
      </note>
      <note default-x="142">
        <rest/>
        <duration>4</duration>
        <voice>1</voice>
        <type>eighth</type>
      </note>
    </measure>
    <!--=======================================================-->
    <measure number="14" width="112">
      <note default-x="24">
        <rest/>
        <duration>4</duration>
        <voice>1</voice>
        <type>eighth</type>
      </note>
      <direction placement="below">
        <direction-type>
          <dynamics default-x="47" default-y="-61" halign="center">
            <f/>
          </dynamics>
        </direction-type>
        <sound dynamics="98"/>
      </direction>
      <direction placement="below">
        <direction-type>
          <wedge default-y="-56" spread="15" type="diminuendo"/>
        </direction-type>
      </direction>
      <note default-x="50">
        <pitch>
          <step>A</step>
          <alter>-1</alter>
          <octave>5</octave>
        </pitch>
        <duration>8</duration>
        <voice>1</voice>
        <type>quarter</type>
        <accidental>flat</accidental>
        <stem default-y="-25.5">down</stem>
      </note>
      <direction>
        <direction-type>
          <wedge relative-x="8" spread="0" type="stop"/>
        </direction-type>
      </direction>
      <note default-x="69">
        <rest/>
        <duration>4</duration>
        <voice>1</voice>
        <type>eighth</type>
      </note>
      <direction placement="below">
        <direction-type>
          <dynamics default-x="94" default-y="-73" halign="center">
            <f/>
          </dynamics>
        </direction-type>
        <sound dynamics="98"/>
      </direction>
      <direction placement="below">
        <direction-type>
          <wedge default-y="-54" spread="15" type="diminuendo"/>
        </direction-type>
      </direction>
      <note default-x="94">
        <pitch>
          <step>E</step>
          <alter>-1</alter>
          <octave>5</octave>
        </pitch>
        <duration>8</duration>
        <voice>1</voice>
        <type>quarter</type>
        <accidental>flat</accidental>
        <stem default-y="-40.5">down</stem>
        <notations>
          <slur number="1" placement="above" type="start"/>
        </notations>
      </note>
      <direction>
        <direction-type>
          <wedge spread="0" type="stop"/>
        </direction-type>
      </direction>
    </measure>
    <!--=======================================================-->
    <measure number="15" width="176">
      <direction placement="below">
        <direction-type>
          <dynamics default-x="27" default-y="-64" halign="center">
            <p/>
          </dynamics>
        </direction-type>
        <sound dynamics="54"/>
      </direction>
      <note default-x="22">
        <pitch>
          <step>D</step>
          <octave>5</octave>
        </pitch>
        <duration>4</duration>
        <voice>1</voice>
        <type>eighth</type>
        <stem default-y="-45">down</stem>
        <beam number="1">begin</beam>
        <notations>
          <slur number="1" type="stop"/>
        </notations>
      </note>
      <note default-x="36">
        <pitch>
          <step>D</step>
          <octave>5</octave>
        </pitch>
        <duration>4</duration>
        <voice>1</voice>
        <type>eighth</type>
        <stem default-y="-45">down</stem>
        <beam number="1">continue</beam>
        <notations>
          <slur number="1" placement="above" type="start"/>
        </notations>
      </note>
      <note default-x="58">
        <pitch>
          <step>E</step>
          <alter>-1</alter>
          <octave>5</octave>
        </pitch>
        <duration>4</duration>
        <tie type="start"/>
        <voice>1</voice>
        <type>eighth</type>
        <accidental>flat</accidental>
        <stem default-y="-45">down</stem>
        <beam number="1">end</beam>
        <notations>
          <tied type="start"/>
          <slur number="1" type="stop"/>
        </notations>
      </note>
      <note default-x="83">
        <pitch>
          <step>E</step>
          <alter>-1</alter>
          <octave>5</octave>
        </pitch>
        <duration>2</duration>
        <tie type="stop"/>
        <voice>1</voice>
        <type>16th</type>
        <stem default-y="-52">down</stem>
        <beam number="1">begin</beam>
        <beam number="2">begin</beam>
        <notations>
          <tied type="stop"/>
        </notations>
      </note>
      <note default-x="96">
        <pitch>
          <step>D</step>
          <octave>5</octave>
        </pitch>
        <duration>1</duration>
        <voice>1</voice>
        <type>32nd</type>
        <stem default-y="-55">down</stem>
        <beam number="1">continue</beam>
        <beam number="2">continue</beam>
        <beam number="3">begin</beam>
      </note>
      <note default-x="110">
        <pitch>
          <step>C</step>
          <octave>5</octave>
        </pitch>
        <duration>1</duration>
        <voice>1</voice>
        <type>32nd</type>
        <stem default-y="-57.5">down</stem>
        <beam number="1">end</beam>
        <beam number="2">end</beam>
        <beam number="3">end</beam>
      </note>
      <note default-x="123">
        <pitch>
          <step>B</step>
          <octave>4</octave>
        </pitch>
        <duration>2</duration>
        <voice>1</voice>
        <type>16th</type>
        <stem default-y="-55">down</stem>
        <beam number="1">begin</beam>
        <beam number="2">forward hook</beam>
      </note>
      <note default-x="136">
        <pitch>
          <step>D</step>
          <octave>5</octave>
        </pitch>
        <duration>4</duration>
        <voice>1</voice>
        <type>eighth</type>
        <stem default-y="-52">down</stem>
        <beam number="1">continue</beam>
      </note>
      <note default-x="150">
        <pitch>
          <step>C</step>
          <octave>5</octave>
        </pitch>
        <duration>2</duration>
        <tie type="start"/>
        <voice>1</voice>
        <type>16th</type>
        <stem default-y="-50">down</stem>
        <beam number="1">end</beam>
        <beam number="2">backward hook</beam>
        <notations>
          <tied type="start"/>
          <articulations>
            <accent default-x="-1" default-y="3" placement="above"/>
          </articulations>
        </notations>
      </note>
    </measure>
    <!--=======================================================-->
    <measure number="16" width="112">
      <direction placement="below">
        <direction-type>
          <dynamics default-x="25" default-y="-60" halign="center">
            <pp/>
          </dynamics>
        </direction-type>
        <sound dynamics="40"/>
      </direction>
      <note default-x="23">
        <pitch>
          <step>C</step>
          <octave>5</octave>
        </pitch>
        <duration>24</duration>
        <tie type="stop"/>
        <voice>1</voice>
        <type>half</type>
        <dot/>
        <stem default-y="-50">down</stem>
        <notations>
          <tied type="stop"/>
        </notations>
      </note>
      <barline location="right">
        <bar-style>light-heavy</bar-style>
      </barline>
    </measure>
  </part>
  <!--=========================================================-->
  <part id="P3">
    <measure number="1" width="180">
      <print>
        <measure-numbering>system</measure-numbering>
      </print>
      <attributes>
        <divisions>2</divisions>
        <key>
          <fifths>-1</fifths>
          <mode>major</mode>
        </key>
        <time>
          <beats>6</beats>
          <beat-type>8</beat-type>
        </time>
        <clef>
          <sign>C</sign>
          <line>3</line>
        </clef>
      </attributes>
      <note>
        <rest measure="yes"/>
        <duration>6</duration>
        <voice>1</voice>
      </note>
    </measure>
    <!--=======================================================-->
    <measure number="2" width="80">
      <note>
        <rest measure="yes"/>
        <duration>6</duration>
        <voice>1</voice>
      </note>
    </measure>
    <!--=======================================================-->
    <measure number="3" width="88">
      <note>
        <rest measure="yes"/>
        <duration>6</duration>
        <voice>1</voice>
      </note>
    </measure>
    <!--=======================================================-->
    <measure number="4" width="83">
      <note>
        <rest measure="yes"/>
        <duration>6</duration>
        <voice>1</voice>
      </note>
    </measure>
    <!--=======================================================-->
    <measure number="5" width="86">
      <note>
        <rest measure="yes"/>
        <duration>6</duration>
        <voice>1</voice>
      </note>
    </measure>
    <!--=======================================================-->
    <measure number="6" width="87">
      <note>
        <rest measure="yes"/>
        <duration>6</duration>
        <voice>1</voice>
      </note>
    </measure>
    <!--=======================================================-->
    <measure number="7" width="101">
      <note>
        <rest measure="yes"/>
        <duration>6</duration>
        <voice>1</voice>
      </note>
    </measure>
    <!--=======================================================-->
    <measure number="8" width="121">
      <note>
        <rest measure="yes"/>
        <duration>6</duration>
        <voice>1</voice>
      </note>
    </measure>
    <!--=======================================================-->
    <measure number="9" width="86">
      <note>
        <rest measure="yes"/>
        <duration>6</duration>
        <voice>1</voice>
      </note>
    </measure>
    <!--=======================================================-->
    <measure number="10" width="162">
      <print new-system="yes"/>
      <note>
        <rest measure="yes"/>
        <duration>6</duration>
        <voice>1</voice>
      </note>
    </measure>
    <!--=======================================================-->
    <measure number="11" width="150">
      <direction placement="below">
        <direction-type>
          <dynamics default-x="16" default-y="-85" halign="center">
            <ppp/>
          </dynamics>
        </direction-type>
        <sound dynamics="26"/>
      </direction>
      <direction placement="above">
        <direction-type>
          <words default-y="10" relative-x="-10">Con sord.</words>
        </direction-type>
      </direction>
      <note default-x="16">
        <pitch>
          <step>C</step>
          <octave>4</octave>
        </pitch>
        <duration>6</duration>
        <voice>1</voice>
        <type>half</type>
        <dot/>
        <stem default-y="-55">down</stem>
        <notations>
          <ornaments>
            <tremolo default-x="-4" default-y="-52" type="single">3</tremolo>
          </ornaments>
        </notations>
      </note>
    </measure>
    <!--=======================================================-->
    <measure number="12" width="114">
      <note default-x="15">
        <pitch>
          <step>C</step>
          <octave>4</octave>
        </pitch>
        <duration>4</duration>
        <voice>1</voice>
        <type>half</type>
        <stem default-y="-55">down</stem>
        <notations>
          <ornaments>
            <tremolo default-x="-4" default-y="-52" type="single">3</tremolo>
          </ornaments>
        </notations>
      </note>
    </measure>
    <!--=======================================================-->
    <measure number="13" width="158">
      <note default-x="15">
        <pitch>
          <step>C</step>
          <octave>4</octave>
        </pitch>
        <duration>6</duration>
        <voice>1</voice>
        <type>half</type>
        <dot/>
        <stem default-y="-55">down</stem>
        <notations>
          <ornaments>
            <tremolo default-x="-4" default-y="-52" type="single">3</tremolo>
          </ornaments>
        </notations>
      </note>
    </measure>
    <!--=======================================================-->
    <measure number="14" width="112">
      <direction placement="below">
        <direction-type>
          <dynamics default-x="24" default-y="-75" halign="center">
            <f/>
          </dynamics>
        </direction-type>
        <sound dynamics="98"/>
      </direction>
      <direction placement="below">
        <direction-type>
          <wedge default-y="-68" relative-x="28" spread="15" type="diminuendo"/>
        </direction-type>
      </direction>
      <note default-x="24">
        <pitch>
          <step>F</step>
          <octave>3</octave>
        </pitch>
        <duration>6</duration>
        <voice>1</voice>
        <type>half</type>
        <dot/>
        <stem default-y="5">up</stem>
        <notations>
          <ornaments>
            <tremolo default-x="6" default-y="-21" type="single">3</tremolo>
          </ornaments>
        </notations>
      </note>
      <note default-x="24">
        <chord/>
        <pitch>
          <step>A</step>
          <alter>-1</alter>
          <octave>3</octave>
        </pitch>
        <duration>6</duration>
        <voice>1</voice>
        <type>half</type>
        <dot/>
        <accidental>flat</accidental>
        <stem>up</stem>
      </note>
      <direction>
        <direction-type>
          <wedge spread="0" type="stop"/>
        </direction-type>
      </direction>
    </measure>
    <!--=======================================================-->
    <measure number="15" width="176">
      <direction placement="below">
        <direction-type>
          <dynamics default-x="22" default-y="-72" halign="center">
            <pp/>
          </dynamics>
        </direction-type>
        <sound dynamics="40"/>
      </direction>
      <note default-x="22">
        <pitch>
          <step>E</step>
          <octave>3</octave>
        </pitch>
        <duration>3</duration>
        <voice>1</voice>
        <type>quarter</type>
        <dot/>
        <stem default-y="11">up</stem>
        <notations>
          <ornaments>
            <tremolo default-x="6" default-y="-16" type="single">3</tremolo>
          </ornaments>
        </notations>
      </note>
      <note default-x="22">
        <chord/>
        <pitch>
          <step>B</step>
          <alter>-1</alter>
          <octave>3</octave>
        </pitch>
        <duration>3</duration>
        <voice>1</voice>
        <type>quarter</type>
        <dot/>
        <stem>up</stem>
      </note>
      <note default-x="83">
        <pitch>
          <step>E</step>
          <octave>3</octave>
        </pitch>
        <duration>2</duration>
        <voice>1</voice>
        <type>quarter</type>
        <stem default-y="11">up</stem>
        <notations>
          <ornaments>
            <tremolo default-x="6" default-y="-16" type="single">3</tremolo>
          </ornaments>
        </notations>
      </note>
      <note default-x="83">
        <chord/>
        <pitch>
          <step>B</step>
          <alter>-1</alter>
          <octave>3</octave>
        </pitch>
        <duration>2</duration>
        <voice>1</voice>
        <type>quarter</type>
        <stem>up</stem>
      </note>
      <note default-x="144">
        <pitch>
          <step>F</step>
          <octave>3</octave>
        </pitch>
        <duration>1</duration>
        <voice>1</voice>
        <type>eighth</type>
        <stem default-y="5">up</stem>
        <notations>
          <ornaments>
            <tremolo default-x="6" default-y="-20" type="single">3</tremolo>
          </ornaments>
        </notations>
      </note>
      <note default-x="144">
        <chord/>
        <pitch>
          <step>A</step>
          <alter>-1</alter>
          <octave>3</octave>
        </pitch>
        <duration>1</duration>
        <voice>1</voice>
        <type>eighth</type>
        <accidental>flat</accidental>
        <stem>up</stem>
      </note>
    </measure>
    <!--=======================================================-->
    <measure number="16" width="112">
      <direction placement="below">
        <direction-type>
          <dynamics default-x="23" default-y="-75" halign="center">
            <f/>
          </dynamics>
        </direction-type>
        <sound dynamics="98"/>
      </direction>
      <direction placement="below">
        <direction-type>
          <wedge default-y="-67" relative-x="20" spread="15" type="diminuendo"/>
        </direction-type>
      </direction>
      <note default-x="23">
        <pitch>
          <step>F</step>
          <octave>3</octave>
        </pitch>
        <duration>6</duration>
        <voice>1</voice>
        <type>half</type>
        <dot/>
        <stem default-y="5">up</stem>
        <notations>
          <ornaments>
            <tremolo default-x="6" default-y="-21" type="single">3</tremolo>
          </ornaments>
        </notations>
      </note>
      <note default-x="23">
        <chord/>
        <pitch>
          <step>A</step>
          <alter>-1</alter>
          <octave>3</octave>
        </pitch>
        <duration>6</duration>
        <voice>1</voice>
        <type>half</type>
        <dot/>
        <accidental>flat</accidental>
        <stem>up</stem>
      </note>
      <direction>
        <direction-type>
          <wedge spread="0" type="stop"/>
        </direction-type>
      </direction>
      <barline location="right">
        <bar-style>light-heavy</bar-style>
      </barline>
    </measure>
  </part>
  <!--=========================================================-->
  <part id="P4">
    <measure number="1" width="180">
      <print>
        <measure-numbering>none</measure-numbering>
      </print>
      <attributes>
        <divisions>8</divisions>
        <key>
          <fifths>-1</fifths>
          <mode>major</mode>
        </key>
        <time>
          <beats>6</beats>
          <beat-type>8</beat-type>
        </time>
        <clef>
          <sign>C</sign>
          <line>3</line>
        </clef>
      </attributes>
      <note>
        <rest measure="yes"/>
        <duration>24</duration>
        <voice>1</voice>
      </note>
    </measure>
    <!--=======================================================-->
    <measure number="2" width="80">
      <note>
        <rest measure="yes"/>
        <duration>24</duration>
        <voice>1</voice>
      </note>
    </measure>
    <!--=======================================================-->
    <measure number="3" width="88">
      <note>
        <rest measure="yes"/>
        <duration>24</duration>
        <voice>1</voice>
      </note>
    </measure>
    <!--=======================================================-->
    <measure number="4" width="83">
      <note>
        <rest measure="yes"/>
        <duration>24</duration>
        <voice>1</voice>
      </note>
    </measure>
    <!--=======================================================-->
    <measure number="5" width="86">
      <note>
        <rest measure="yes"/>
        <duration>24</duration>
        <voice>1</voice>
      </note>
    </measure>
    <!--=======================================================-->
    <measure number="6" width="87">
      <note>
        <rest measure="yes"/>
        <duration>24</duration>
        <voice>1</voice>
      </note>
    </measure>
    <!--=======================================================-->
    <measure number="7" width="101">
      <note>
        <rest measure="yes"/>
        <duration>24</duration>
        <voice>1</voice>
      </note>
    </measure>
    <!--=======================================================-->
    <measure number="8" width="121">
      <note>
        <rest measure="yes"/>
        <duration>24</duration>
        <voice>1</voice>
      </note>
    </measure>
    <!--=======================================================-->
    <measure number="9" width="86">
      <note>
        <rest measure="yes"/>
        <duration>24</duration>
        <voice>1</voice>
      </note>
    </measure>
    <!--=======================================================-->
    <measure number="10" width="162">
      <print new-system="yes"/>
      <note>
        <rest measure="yes"/>
        <duration>24</duration>
        <voice>1</voice>
      </note>
    </measure>
    <!--=======================================================-->
    <measure number="11" width="150">
      <direction placement="below">
        <direction-type>
          <dynamics default-x="16" default-y="-90" halign="center">
            <ppp/>
          </dynamics>
        </direction-type>
        <sound dynamics="26"/>
      </direction>
      <direction placement="above">
        <direction-type>
          <words default-y="2" relative-x="-10">Con sord.</words>
        </direction-type>
      </direction>
      <note default-x="16">
        <pitch>
          <step>C</step>
          <octave>3</octave>
        </pitch>
        <duration>24</duration>
        <voice>1</voice>
        <type>half</type>
        <dot/>
        <stem default-y="-19.5">up</stem>
        <notations>
          <ornaments>
            <tremolo default-x="6" default-y="-46" type="single">3</tremolo>
          </ornaments>
        </notations>
      </note>
    </measure>
    <!--=======================================================-->
    <measure number="12" width="114">
      <note default-x="15">
        <pitch>
          <step>C</step>
          <octave>3</octave>
        </pitch>
        <duration>24</duration>
        <voice>1</voice>
        <type>half</type>
        <dot/>
        <stem default-y="-19.5">up</stem>
        <notations>
          <ornaments>
            <tremolo default-x="6" default-y="-46" type="single">3</tremolo>
          </ornaments>
        </notations>
      </note>
    </measure>
    <!--=======================================================-->
    <measure number="13" width="158">
      <note default-x="15">
        <pitch>
          <step>C</step>
          <octave>3</octave>
        </pitch>
        <duration>24</duration>
        <voice>1</voice>
        <type>half</type>
        <dot/>
        <stem default-y="-19.5">up</stem>
        <notations>
          <ornaments>
            <tremolo default-x="6" default-y="-46" type="single">3</tremolo>
          </ornaments>
        </notations>
      </note>
    </measure>
    <!--=======================================================-->
    <measure number="14" width="112">
      <direction placement="below">
        <direction-type>
          <dynamics default-x="24" default-y="-85" halign="center">
            <f/>
          </dynamics>
        </direction-type>
        <sound dynamics="98"/>
      </direction>
      <direction placement="below">
        <direction-type>
          <wedge default-y="-73" relative-x="15" spread="15" type="diminuendo"/>
        </direction-type>
      </direction>
      <note default-x="24">
        <pitch>
          <step>D</step>
          <alter>-1</alter>
          <octave>3</octave>
        </pitch>
        <duration>24</duration>
        <voice>1</voice>
        <type>half</type>
        <dot/>
        <accidental>flat</accidental>
        <stem default-y="-15">up</stem>
        <notations>
          <ornaments>
            <tremolo default-x="6" default-y="-41" type="single">3</tremolo>
          </ornaments>
        </notations>
      </note>
      <direction>
        <direction-type>
          <wedge spread="0" type="stop"/>
        </direction-type>
      </direction>
    </measure>
    <!--=======================================================-->
    <measure number="15" width="176">
      <direction placement="below">
        <direction-type>
          <dynamics default-x="17" default-y="-82" halign="center">
            <pp/>
          </dynamics>
        </direction-type>
        <sound dynamics="40"/>
      </direction>
      <note default-x="22">
        <pitch>
          <step>D</step>
          <alter>-1</alter>
          <octave>3</octave>
        </pitch>
        <duration>24</duration>
        <voice>1</voice>
        <type>half</type>
        <dot/>
        <accidental>flat</accidental>
        <stem default-y="-15">up</stem>
        <notations>
          <ornaments>
            <tremolo default-x="6" default-y="-41" type="single">3</tremolo>
          </ornaments>
        </notations>
      </note>
    </measure>
    <!--=======================================================-->
    <measure number="16" width="112">
      <direction placement="below">
        <direction-type>
          <dynamics default-x="23" default-y="-85" halign="center">
            <f/>
          </dynamics>
        </direction-type>
        <sound dynamics="98"/>
      </direction>
      <direction placement="below">
        <direction-type>
          <wedge default-y="-70" relative-x="12" spread="15" type="diminuendo"/>
        </direction-type>
      </direction>
      <note default-x="23">
        <pitch>
          <step>D</step>
          <alter>-1</alter>
          <octave>3</octave>
        </pitch>
        <duration>24</duration>
        <voice>1</voice>
        <type>half</type>
        <dot/>
        <accidental>flat</accidental>
        <stem default-y="-15">up</stem>
        <notations>
          <ornaments>
            <tremolo default-x="6" default-y="-41" type="single">3</tremolo>
          </ornaments>
        </notations>
      </note>
      <direction>
        <direction-type>
          <wedge relative-x="20" spread="0" type="stop"/>
        </direction-type>
        <offset>-12</offset>
      </direction>
      <direction placement="below">
        <direction-type>
          <dynamics default-x="-3" default-y="-79" halign="center">
            <pp/>
          </dynamics>
        </direction-type>
        <sound dynamics="40"/>
      </direction>
      <barline location="right">
        <bar-style>light-heavy</bar-style>
      </barline>
    </measure>
  </part>
  <!--=========================================================-->
</score-partwise>
